<svg xmlns="http://www.w3.org/2000/svg" xmlns:xlink="http://www.w3.org/1999/xlink" width="352.94" height="253.188" viewBox="0 0 352.94 253.188">
  <defs>
    <linearGradient id="linear-gradient" y1="0.5" x2="1" y2="0.5" gradientUnits="objectBoundingBox">
      <stop offset="0" stop-color="#fff"/>
      <stop offset="0.354" stop-color="#e8f5ff"/>
      <stop offset="0.702" stop-color="#daefff"/>
      <stop offset="1" stop-color="#d6edff"/>
    </linearGradient>
    <linearGradient id="linear-gradient-4" x1="20.373" y1="0.224" x2="20.49" y2="0.875" gradientUnits="objectBoundingBox">
      <stop offset="0" stop-color="#e83f3e"/>
      <stop offset="0.053" stop-color="#e94644"/>
      <stop offset="0.705" stop-color="#f89e95"/>
      <stop offset="1" stop-color="#ffc1b5"/>
    </linearGradient>
    <clipPath id="clip-path">
      <circle id="Elipse_35" data-name="Elipse 35" cx="20.029" cy="20.029" r="20.029" transform="translate(1194.501 196.12) rotate(-9.309)" fill="none"/>
    </clipPath>
    <linearGradient id="linear-gradient-6" x1="0" y1="0.5" x2="1" y2="0.5" xlink:href="#linear-gradient"/>
  </defs>
  <g id="Grupo_644" data-name="Grupo 644" transform="translate(-1037.023 -117.997)">
    <g id="Grupo_518" data-name="Grupo 518">
      <path id="Trazado_1905" data-name="Trazado 1905" d="M1102.679,157.019l-6.625,9.363c-.019-.042-.044-.081-.063-.123-.619-1.406-1.1-2.842-1.617-4.243a.408.408,0,0,0-.013-.23,6.726,6.726,0,0,1-.46-3.585c.186-.884.545-1.713.711-2.606a7.248,7.248,0,0,0-2.309-7.213c-.416-.333-.941.306-.522.639,2.377,1.9,2.539,5.041,1.684,7.774a8.39,8.39,0,0,0-.4,2.178,12.327,12.327,0,0,0-2.453-3.318c-.387-.367-.909.274-.523.64,3.1,2.933,3.7,7.15,5.409,10.873l-.012.017a8.478,8.478,0,0,0-2.23-.861c-1.955-.456-4.64-.033-5.726-2.143-.24-.468-1.02-.192-.778.281.9,1.75,2.56,2.179,4.393,2.4a11.373,11.373,0,0,1,3.831,1.045l-5.695,8.049c-2.025-1.9-5.491-1.318-7.4-9.6-.858-3.712-2.5-12.369-4.039-14.314-1.576-1.752-4.555-6.037-3.031-8.109,2.527-3.433,6.965.73,9.671.327,9.812-1.457,15.306,6.688,16.782,10.15A14.612,14.612,0,0,0,1102.679,157.019Z" fill="#ffaa21"/>
      <path id="Trazado_1906" data-name="Trazado 1906" d="M1095.486,167.185l-.51.72a11.373,11.373,0,0,0-3.831-1.045c-1.833-.219-3.491-.648-4.393-2.4-.242-.473.538-.749.778-.281,1.086,2.11,3.771,1.687,5.726,2.143A8.478,8.478,0,0,1,1095.486,167.185Z" fill="#fff"/>
      <path id="Trazado_1907" data-name="Trazado 1907" d="M1094.612,155.6c-.166.893-.525,1.722-.711,2.606a6.726,6.726,0,0,0,.46,3.585.408.408,0,0,1,.013.23c.521,1.4,1,2.837,1.617,4.243.019.042.044.081.063.123l-.556.786c-1.713-3.723-2.311-7.94-5.409-10.873-.386-.366.136-1.007.523-.64a12.327,12.327,0,0,1,2.453,3.318,8.39,8.39,0,0,1,.4-2.178c.855-2.733.693-5.875-1.684-7.774-.419-.333.106-.972.522-.639A7.248,7.248,0,0,1,1094.612,155.6Z" fill="#fff"/>
    </g>
    <g id="Grupo_519" data-name="Grupo 519">
      <path id="Trazado_1908" data-name="Trazado 1908" d="M1318.316,169.827l2.878-11.1c.032.032.069.06.1.093,1.077,1.1,2.033,2.268,3.015,3.394a.424.424,0,0,0,.094.21,6.734,6.734,0,0,1,1.7,3.19c.138.893.1,1.8.258,2.688a7.247,7.247,0,0,0,4.716,5.927.413.413,0,0,0,.262-.783c-2.9-.933-4.162-3.813-4.331-6.672a8.338,8.338,0,0,0-.4-2.179,12.321,12.321,0,0,0,3.47,2.234c.492.205.753-.578.263-.784-3.938-1.645-5.99-5.376-8.912-8.251l0-.019a8.507,8.507,0,0,0,2.391.014c1.99-.266,4.35-1.613,6.114-.025.39.352,1.021-.183.627-.539-1.463-1.316-3.166-1.13-4.958-.685a11.346,11.346,0,0,1-3.952.38l2.473-9.544c2.565,1.055,5.6-.714,10.322,6.35,2.117,3.167,6.718,10.681,8.849,11.954,2.095,1.08,6.4,4.031,5.708,6.508-1.146,4.107-6.771,1.786-9.158,3.122-8.659,4.84-16.683-.829-19.29-3.544A14.634,14.634,0,0,0,1318.316,169.827Z" fill="#ffaa21"/>
      <path id="Trazado_1909" data-name="Trazado 1909" d="M1321.44,157.772l.222-.855a11.346,11.346,0,0,0,3.952-.38c1.792-.445,3.495-.631,4.958.685.394.356-.237.891-.627.539-1.764-1.588-4.124-.241-6.114.025A8.507,8.507,0,0,1,1321.44,157.772Z" fill="#fff"/>
      <path id="Trazado_1910" data-name="Trazado 1910" d="M1326.365,168.3c-.161-.893-.12-1.795-.258-2.688a6.734,6.734,0,0,0-1.7-3.19.424.424,0,0,1-.094-.21c-.982-1.126-1.938-2.3-3.015-3.394-.033-.033-.07-.061-.1-.093l.241-.933c2.922,2.875,4.974,6.606,8.912,8.251.49.206.229.989-.263.784a12.321,12.321,0,0,1-3.47-2.234,8.338,8.338,0,0,1,.4,2.179c.169,2.859,1.435,5.739,4.331,6.672a.413.413,0,0,1-.262.783A7.247,7.247,0,0,1,1326.365,168.3Z" fill="#fff"/>
    </g>
    <g id="Grupo_520" data-name="Grupo 520">
      <path id="Trazado_1911" data-name="Trazado 1911" d="M1097,235.862c-.21.047-.421.1-.63.144a.407.407,0,0,0-.23-.016,6.724,6.724,0,0,1-3.615.012c-.853-.295-1.632-.754-2.5-1.029a7.242,7.242,0,0,0-7.445,1.395c-.38.371.188.971.57.6,2.18-2.122,5.318-1.893,7.923-.706a8.379,8.379,0,0,0,2.112.668,12.356,12.356,0,0,0-3.6,2.021c-.412.34.159.937.571.6a15.74,15.74,0,0,1,6.839-2.882v12.477c-4.277.383-10.793.945-12.579,2.03-1.936,1.346-6.557,3.771-8.423,2-3.093-2.934,1.589-6.82,1.525-9.555-.227-9.918,8.538-14.357,12.157-15.391,4.552-1.3,6.527-3.811,7.32-6.246Z" fill="#ffaa21"/>
      <path id="Trazado_1912" data-name="Trazado 1912" d="M1092.527,236a6.724,6.724,0,0,0,3.615-.012.407.407,0,0,1,.23.016c.209-.049.42-.1.63-.144v.8a15.74,15.74,0,0,0-6.839,2.882c-.412.338-.983-.259-.571-.6a12.356,12.356,0,0,1,3.6-2.021,8.379,8.379,0,0,1-2.112-.668c-2.6-1.187-5.743-1.416-7.923.706-.382.374-.95-.226-.57-.6a7.242,7.242,0,0,1,7.445-1.395C1090.9,235.248,1091.674,235.707,1092.527,236Z" fill="#fff"/>
    </g>
    <g id="Grupo_521" data-name="Grupo 521">
      <path id="Trazado_1913" data-name="Trazado 1913" d="M1063.331,150.7c9.863-1.06,15.024,7.3,16.359,10.819,3.071,8.107,9.468,7.269,12.017,6.653a10.263,10.263,0,0,1,5.295.628v20.658c-.581-.5-1.168-1-1.759-1.47a22.594,22.594,0,0,0-5.112-3.05c-.421-.183-.851-.346-1.284-.5a.413.413,0,0,0-.2-.1c-.161-.035-.318-.077-.472-.12l-.234-.075c-5-1.617-5.337-7.7-2.515-11.67.3-.429-.309-.984-.619-.55a10.1,10.1,0,0,0-1.892,7.761,6.857,6.857,0,0,0,1.955,3.6c-.384-.106-.769-.215-1.149-.332-2.094-.642-3.913-2.462-5.506-3.911a19.661,19.661,0,0,1-2.144-2.27.217.217,0,0,0-.018-.041,7.917,7.917,0,0,0-.865-1.181,13.344,13.344,0,0,1-1.247-2.4c-.562-1.429-.981-2.883-1.445-4.3a.409.409,0,0,0,0-.23,6.73,6.73,0,0,1-.316-3.6c.222-.875.614-1.689.815-2.574a7.248,7.248,0,0,0-2.016-7.3c-.4-.348-.952.269-.547.619,2.3,1.994,2.334,5.139,1.37,7.835a8.364,8.364,0,0,0-.489,2.161,12.324,12.324,0,0,0-2.316-3.416c-.372-.381-.92.238-.549.62,2.978,3.056,3.4,7.294,4.966,11.084a.106.106,0,0,1,.013.029,8.531,8.531,0,0,0-2.219-.965c-1.935-.535-4.635-.22-5.635-2.373-.221-.476-1.012-.232-.789.251.831,1.784,2.47,2.28,4.293,2.573a9.011,9.011,0,0,1,5.385,2.429,20.527,20.527,0,0,0,2.417,2.914,27.306,27.306,0,0,0,4.671,3.927,20.107,20.107,0,0,0,5.863,2.02,8.305,8.305,0,0,0,1,.291,21.071,21.071,0,0,1,5.174,2.652,27.1,27.1,0,0,1,2.686,2.169,9.194,9.194,0,0,0-6.359.986,8.675,8.675,0,0,0-2.053,1.6,26.4,26.4,0,0,1-2.477,2.892c-2.251,1.743-4.659-.416-6.574-1.521-.461-.267-.831.473-.372.739,1.638.944,3.112,2.251,5.1,2.235,2.475-.019,3.5-2.2,4.942-3.795a7.91,7.91,0,0,1,8.526-2.01v6.92a19.471,19.471,0,0,1-12.4,3.612c-15.636-1.35-14.449-12.43-16.959-17.9-1.6-3.479-5.975-1.377-7.8-11.034-.706-3.745-1.995-12.46-3.458-14.466-1.5-1.815-4.308-6.216-2.7-8.224C1056.345,146.653,1060.611,150.992,1063.331,150.7Z" fill="#87d4ff"/>
      <path id="Trazado_1914" data-name="Trazado 1914" d="M1079.018,179.768a13.35,13.35,0,0,0,4.707,3.179c.38.117.765.226,1.149.332a6.857,6.857,0,0,1-1.955-3.6,8.2,8.2,0,0,1-.154-1.478c-.19.06-.389.125-.617.2A17.559,17.559,0,0,0,1079.018,179.768Z" fill="#225d6b"/>
      <path id="Trazado_1915" data-name="Trazado 1915" d="M1091.688,178.542a27.294,27.294,0,0,0,5.314.2v10.712c-.581-.5-1.168-1-1.759-1.47a22.594,22.594,0,0,0-5.112-3.05c-.421-.183-.851-.346-1.284-.5a.413.413,0,0,0-.2-.1c-.161-.035-.318-.077-.472-.12l-.234-.075a6.148,6.148,0,0,1-4.279-6.2,6.654,6.654,0,0,1,2.367-.184C1087.92,177.837,1089.819,178.285,1091.688,178.542Z" fill="#225d6b"/>
      <path id="Trazado_1916" data-name="Trazado 1916" d="M1087.414,184.838a8.305,8.305,0,0,0,1,.291,21.071,21.071,0,0,1,5.174,2.652,27.1,27.1,0,0,1,2.686,2.169,9.194,9.194,0,0,0-6.359.986,8.675,8.675,0,0,0-2.053,1.6,26.4,26.4,0,0,1-2.477,2.892c-2.251,1.743-4.659-.416-6.574-1.521-.461-.267-.831.473-.372.739,1.638.944,3.112,2.251,5.1,2.235,2.475-.019,3.5-2.2,4.942-3.795a7.91,7.91,0,0,1,8.526-2.01v6.92a19.471,19.471,0,0,1-12.4,3.612c-11.656-1.008-13.963-7.418-15.421-12.885,2.337-2.418,4.654-4.859,7.192-7.074a16.276,16.276,0,0,1,1.89-1.425,24.29,24.29,0,0,0,3.293,2.595A20.107,20.107,0,0,0,1087.414,184.838Z" fill="#225d6b"/>
      <path id="Trazado_1917" data-name="Trazado 1917" d="M1073,162.432c-.2.885-.593,1.7-.815,2.574a6.73,6.73,0,0,0,.316,3.6.409.409,0,0,1,0,.23c.464,1.421.883,2.875,1.445,4.3a13.344,13.344,0,0,0,1.247,2.4,7.917,7.917,0,0,1,.865,1.181.217.217,0,0,1,.018.041,19.661,19.661,0,0,0,2.144,2.27c1.593,1.449,3.412,3.269,5.506,3.911.38.117.765.226,1.149.332a6.857,6.857,0,0,1-1.955-3.6,10.1,10.1,0,0,1,1.892-7.761c.31-.434.923.121.619.55-2.822,3.968-2.487,10.053,2.515,11.67l.234.075c.154.043.311.085.472.12a.413.413,0,0,1,.2.1c.433.15.863.313,1.284.5a22.594,22.594,0,0,1,5.112,3.05c.591.474,1.178.968,1.759,1.47v1.619a7.91,7.91,0,0,0-8.526,2.01c-1.446,1.592-2.467,3.776-4.942,3.795-1.988.016-3.462-1.291-5.1-2.235-.459-.266-.089-1.006.372-.739,1.915,1.1,4.323,3.264,6.574,1.521a26.4,26.4,0,0,0,2.477-2.892,8.675,8.675,0,0,1,2.053-1.6,9.194,9.194,0,0,1,6.359-.986,27.1,27.1,0,0,0-2.686-2.169,21.071,21.071,0,0,0-5.174-2.652,8.305,8.305,0,0,1-1-.291,20.107,20.107,0,0,1-5.863-2.02,27.306,27.306,0,0,1-4.671-3.927,20.527,20.527,0,0,1-2.417-2.914,9.011,9.011,0,0,0-5.385-2.429c-1.823-.293-3.462-.789-4.293-2.573-.223-.483.568-.727.789-.251,1,2.153,3.7,1.838,5.635,2.373a8.531,8.531,0,0,1,2.219.965.106.106,0,0,0-.013-.029c-1.562-3.79-1.988-8.028-4.966-11.084-.371-.382.177-1,.549-.62a12.324,12.324,0,0,1,2.316,3.416,8.364,8.364,0,0,1,.489-2.161c.964-2.7.928-5.841-1.37-7.835-.405-.35.146-.967.547-.619A7.248,7.248,0,0,1,1073,162.432Z" fill="#fff"/>
    </g>
    <g id="Grupo_522" data-name="Grupo 522">
      <path id="Trazado_1918" data-name="Trazado 1918" d="M1097,185.334v10.394c-.667-.3-1.326-.616-1.987-.915a.412.412,0,0,0-.172-.153,6.715,6.715,0,0,1-2.871-2.2c-.5-.754-.833-1.593-1.351-2.339a7.247,7.247,0,0,0-6.75-3.437.414.414,0,0,0,.087.822c3.023-.352,5.369,1.744,6.709,4.274a8.4,8.4,0,0,0,1.265,1.818,12.356,12.356,0,0,0-4.084-.594c-.533.018-.445.839.087.823,3.336-.107,6.154,1.426,9.067,2.771v2.229c-1.595,1.117-3.13,3.041-5.266,2.368-.5-.158-.853.59-.347.75,1.877.591,3.35-.285,4.795-1.433.27-.214.543-.415.818-.609v9.3c-1.758.176-4.073-.219-7.7-2.46-3.24-2-10.543-6.931-13.01-7.2-2.355-.115-7.5-1.013-7.893-3.555-.662-4.211,5.419-4.433,7.037-6.64,5.871-8,15.524-6.166,19.022-4.778A14.984,14.984,0,0,0,1097,185.334Z" fill="#ffaa21"/>
      <path id="Trazado_1919" data-name="Trazado 1919" d="M1097,198.831v1.076c-.275.194-.548.4-.818.609-1.445,1.148-2.918,2.024-4.795,1.433-.506-.16-.154-.908.347-.75C1093.872,201.872,1095.407,199.948,1097,198.831Z" fill="#fff"/>
      <path id="Trazado_1920" data-name="Trazado 1920" d="M1090.621,190.125c.518.746.855,1.585,1.351,2.339a6.715,6.715,0,0,0,2.871,2.2.412.412,0,0,1,.172.153c.661.3,1.32.611,1.987.915v.874c-2.913-1.345-5.731-2.878-9.067-2.771-.532.016-.62-.8-.087-.823a12.356,12.356,0,0,1,4.084.594,8.4,8.4,0,0,1-1.265-1.818c-1.34-2.53-3.686-4.626-6.709-4.274a.414.414,0,0,1-.087-.822A7.247,7.247,0,0,1,1090.621,190.125Z" fill="#fff"/>
    </g>
    <g id="Grupo_523" data-name="Grupo 523">
      <path id="Trazado_1921" data-name="Trazado 1921" d="M1357.968,140.891c-4.971,8.584-14.766,7.809-18.393,6.808-8.355-2.311-11.458,3.346-12.467,5.766a10.256,10.256,0,0,1-3.635,3.9l-16.667-12.2c.748-.173,1.493-.354,2.225-.551a22.569,22.569,0,0,0,5.48-2.324c.4-.231.782-.482,1.159-.743a.4.4,0,0,0,.2-.1c.124-.11.251-.212.376-.31l.2-.145c4.26-3.081,9.367.244,10.9,4.864.167.5.977.333.81-.173a10.1,10.1,0,0,0-5.145-6.112,6.862,6.862,0,0,0-4.055-.547c.312-.247.627-.493.946-.73,1.756-1.311,4.3-1.7,6.408-2.133a19.627,19.627,0,0,1,3.1-.388c.015,0,.029.007.044.009a7.867,7.867,0,0,0,1.464,0,13.322,13.322,0,0,1,2.675.412c1.485.392,2.906.912,4.327,1.378a.415.415,0,0,0,.187.133,6.718,6.718,0,0,1,3.092,1.872c.575.7,1,1.494,1.6,2.179a7.249,7.249,0,0,0,7.082,2.687.414.414,0,0,0-.175-.808c-2.967.677-5.526-1.152-7.132-3.523a8.345,8.345,0,0,0-1.455-1.67,12.351,12.351,0,0,0,4.125.148c.527-.075.351-.882-.176-.809-4.225.6-7.9-1.562-11.877-2.54a.155.155,0,0,1-.031-.007,8.518,8.518,0,0,0,2.089-1.221c1.575-1.245,2.916-3.609,5.244-3.145.514.1.784-.679.263-.784-1.93-.383-3.3.646-4.611,1.944a9.021,9.021,0,0,1-5.142,2.91,20.459,20.459,0,0,0-3.779.229,27.245,27.245,0,0,0-5.927,1.449,20.079,20.079,0,0,0-5.093,3.537,8.081,8.081,0,0,0-.823.631,21.126,21.126,0,0,1-5.2,2.609,27.173,27.173,0,0,1-3.336.885,9.2,9.2,0,0,0,2.961-5.713,8.67,8.67,0,0,0-.078-2.6,26.324,26.324,0,0,1-.87-3.706c-.077-2.846,3.088-3.514,5.11-4.406.488-.215.11-.95-.376-.737-1.729.764-3.655,1.181-4.816,2.795-1.447,2.008-.288,4.122.142,6.229a7.909,7.909,0,0,1-3.414,8.067l-5.584-4.088a19.47,19.47,0,0,1,4.415-12.143c10.325-11.819,18.564-4.316,24.46-3.109,3.751.768,4.642-4.008,13.511.227,3.438,1.641,11.232,5.75,13.714,5.755,2.353-.141,7.56.2,8.232,2.679C1365.359,137.644,1359.338,138.522,1357.968,140.891Z" fill="#87d4ff"/>
      <path id="Trazado_1922" data-name="Trazado 1922" d="M1325.246,136.375a13.362,13.362,0,0,0-5.346,1.921c-.319.237-.634.483-.946.73a6.862,6.862,0,0,1,4.055.547,8.128,8.128,0,0,1,1.284.749c.064-.189.129-.388.2-.616A17.563,17.563,0,0,0,1325.246,136.375Z" fill="#225d6b"/>
      <path id="Trazado_1923" data-name="Trazado 1923" d="M1318.75,147.323a27.28,27.28,0,0,0-3.3,4.168l-8.643-6.327c.748-.173,1.493-.354,2.225-.551a22.569,22.569,0,0,0,5.48-2.324c.4-.231.782-.482,1.159-.743a.4.4,0,0,0,.2-.1c.124-.11.251-.212.376-.31l.2-.145a6.149,6.149,0,0,1,7.533.212,6.677,6.677,0,0,1-1.25,2.019C1321.545,144.7,1320.062,145.967,1318.75,147.323Z" fill="#225d6b"/>
      <path id="Trazado_1924" data-name="Trazado 1924" d="M1316.2,140.155a8.081,8.081,0,0,0-.823.631,21.126,21.126,0,0,1-5.2,2.609,27.173,27.173,0,0,1-3.336.885,9.2,9.2,0,0,0,2.961-5.713,8.67,8.67,0,0,0-.078-2.6,26.324,26.324,0,0,1-.87-3.706c-.077-2.846,3.088-3.514,5.11-4.406.488-.215.11-.95-.376-.737-1.729.764-3.655,1.181-4.816,2.795-1.447,2.008-.288,4.122.142,6.229a7.909,7.909,0,0,1-3.414,8.067l-5.584-4.088a19.47,19.47,0,0,1,4.415-12.143c7.7-8.809,14.233-6.884,19.506-4.831.57,3.315,1.171,6.626,1.458,9.982a16.135,16.135,0,0,1,.033,2.367,24.186,24.186,0,0,0-4.038,1.124A20.079,20.079,0,0,0,1316.2,140.155Z" fill="#225d6b"/>
      <path id="Trazado_1925" data-name="Trazado 1925" d="M1342.791,141.758c-.595-.685-1.021-1.482-1.6-2.179a6.718,6.718,0,0,0-3.092-1.872.415.415,0,0,1-.187-.133c-1.421-.466-2.842-.986-4.327-1.378a13.322,13.322,0,0,0-2.675-.412,7.867,7.867,0,0,1-1.464,0c-.015,0-.029-.006-.044-.009a19.627,19.627,0,0,0-3.1.388c-2.11.429-4.652.822-6.408,2.133-.319.237-.634.483-.946.73a6.862,6.862,0,0,1,4.055.547,10.1,10.1,0,0,1,5.145,6.112c.167.506-.643.672-.81.173-1.535-4.62-6.642-7.945-10.9-4.864l-.2.145c-.125.1-.252.2-.376.31a.4.4,0,0,1-.2.1c-.377.261-.762.512-1.159.743a22.569,22.569,0,0,1-5.48,2.324c-.732.2-1.477.378-2.225.551l-1.307-.957a7.909,7.909,0,0,0,3.414-8.067c-.43-2.107-1.589-4.221-.142-6.229,1.161-1.614,3.087-2.031,4.816-2.795.486-.213.864.522.376.737-2.022.892-5.187,1.56-5.11,4.406a26.324,26.324,0,0,0,.87,3.706,8.67,8.67,0,0,1,.078,2.6,9.2,9.2,0,0,1-2.961,5.713,27.173,27.173,0,0,0,3.336-.885,21.126,21.126,0,0,0,5.2-2.609,8.081,8.081,0,0,1,.823-.631,20.079,20.079,0,0,1,5.093-3.537,27.245,27.245,0,0,1,5.927-1.449,20.459,20.459,0,0,1,3.779-.229,9.021,9.021,0,0,0,5.142-2.91c1.313-1.3,2.681-2.327,4.611-1.944.521.1.251.887-.263.784-2.328-.464-3.669,1.9-5.244,3.145a8.518,8.518,0,0,1-2.089,1.221.155.155,0,0,0,.031.007c3.98.978,7.652,3.138,11.877,2.54.527-.073.7.734.176.809a12.351,12.351,0,0,1-4.125-.148,8.345,8.345,0,0,1,1.455,1.67c1.606,2.371,4.165,4.2,7.132,3.523a.414.414,0,0,1,.175.808A7.249,7.249,0,0,1,1342.791,141.758Z" fill="#fff"/>
    </g>
    <g id="Grupo_524" data-name="Grupo 524">
      <path id="Trazado_1926" data-name="Trazado 1926" d="M1310.131,147.6l-8.386-6.14c.639-.358,1.28-.706,1.911-1.062a.406.406,0,0,0,.225-.049,6.726,6.726,0,0,1,3.468-1.019c.9.045,1.778.268,2.686.292a7.248,7.248,0,0,0,6.76-3.417.413.413,0,0,0-.714-.415c-1.5,2.647-4.579,3.3-7.412,2.888a8.355,8.355,0,0,0-2.214-.052,12.345,12.345,0,0,0,2.891-2.945c.3-.44-.414-.855-.714-.416-1.885,2.755-4.787,4.124-7.593,5.679l-1.8-1.317c.041-1.946-.6-4.322,1.2-5.647.423-.311.028-1.038-.4-.724-1.585,1.166-1.748,2.871-1.676,4.716.013.344.015.683.008,1.019l-7.5-5.492c.9-1.522,2.583-3.157,6.531-4.757,3.531-1.431,11.822-4.412,13.5-6.241,1.483-1.832,5.246-5.45,7.531-4.27,3.789,1.955.376,6.993,1.2,9.6,2.983,9.461-4.2,16.168-7.382,18.17A14.9,14.9,0,0,0,1310.131,147.6Z" fill="#ffaa21"/>
      <path id="Trazado_1927" data-name="Trazado 1927" d="M1299.241,139.625l-.869-.636c.007-.336.005-.675-.008-1.019-.072-1.845.091-3.55,1.676-4.716.429-.314.824.413.4.724C1298.636,135.3,1299.282,137.679,1299.241,139.625Z" fill="#fff"/>
      <path id="Trazado_1928" data-name="Trazado 1928" d="M1310.035,139.62c-.908-.024-1.784-.247-2.686-.292a6.726,6.726,0,0,0-3.468,1.019.406.406,0,0,1-.225.049c-.631.356-1.272.7-1.911,1.062l-.706-.516c2.806-1.555,5.708-2.924,7.593-5.679.3-.439,1.015-.024.714.416a12.345,12.345,0,0,1-2.891,2.945,8.355,8.355,0,0,1,2.214.052c2.833.414,5.91-.241,7.412-2.888a.413.413,0,0,1,.714.415A7.248,7.248,0,0,1,1310.035,139.62Z" fill="#fff"/>
    </g>
    <g id="Grupo_543" data-name="Grupo 543">
      <path id="Trazado_1929" data-name="Trazado 1929" d="M1109.017,322.891c0,3.052-5.837,4.578,31.726,5.956,17.42.639-2.354,4.687,18.951,4.687,12.794,0,89.029.791,115.244-.175,4.089-.151,8.032-3.711,11.814-3.891,30.8-1.469,44.608-3.867,44.608-6.577,0-4.468-48.257-8.09-115.5-8.09S1109.017,318.423,1109.017,322.891Z" fill="url(#linear-gradient)"/>
      <g id="Grupo_525" data-name="Grupo 525">
        <path id="Trazado_1930" data-name="Trazado 1930" d="M1171.515,318.091h73.923c-8.02,0-19.31-23.617-19.31-23.617h-33.369S1181.569,318.091,1171.515,318.091Z" fill="#fff"/>
      </g>
      <g id="Grupo_526" data-name="Grupo 526">
        <path id="Trazado_1931" data-name="Trazado 1931" d="M1147.325,321.136a5.914,5.914,0,0,0,5.914,5.914h105.145a5.912,5.912,0,0,0,5.913-5.914h0a5.913,5.913,0,0,0-5.913-5.912H1153.239a5.915,5.915,0,0,0-5.914,5.912Z" fill="#fff"/>
      </g>
      <g id="Grupo_527" data-name="Grupo 527">
        <path id="Rectángulo_257" data-name="Rectángulo 257" d="M4.831,0H220.438a4.831,4.831,0,0,1,4.831,4.831V141.346a4.833,4.833,0,0,1-4.833,4.833H4.834A4.834,4.834,0,0,1,0,141.345V4.831A4.831,4.831,0,0,1,4.831,0Z" transform="translate(1094.899 151.866)" fill="#fff"/>
      </g>
      <g id="Grupo_528" data-name="Grupo 528">
        <path id="Trazado_1932" data-name="Trazado 1932" d="M1171.515,318.091h73.923c-8.02,0-19.31-23.617-19.31-23.617h-33.369S1181.569,318.091,1171.515,318.091Z" fill="#003aa3"/>
      </g>
      <g id="Grupo_530" data-name="Grupo 530">
        <g id="Grupo_529" data-name="Grupo 529">
          <path id="Trazado_1933" data-name="Trazado 1933" d="M1147.325,321.136a5.914,5.914,0,0,0,5.914,5.914h105.145a5.912,5.912,0,0,0,5.913-5.914h0a5.913,5.913,0,0,0-5.913-5.912H1153.239a5.915,5.915,0,0,0-5.914,5.912Z" fill="#003aa3"/>
        </g>
      </g>
      <g id="Grupo_531" data-name="Grupo 531">
        <path id="Rectángulo_258" data-name="Rectángulo 258" d="M4.831,0H220.438a4.831,4.831,0,0,1,4.831,4.831V141.346a4.833,4.833,0,0,1-4.833,4.833H4.834A4.834,4.834,0,0,1,0,141.345V4.831A4.831,4.831,0,0,1,4.831,0Z" transform="translate(1094.899 151.866)" fill="#bec3ce"/>
      </g>
      <g id="Grupo_532" data-name="Grupo 532">
        <path id="Trazado_1934" data-name="Trazado 1934" d="M1094.9,275.689v4.834h225.269V139.175a4.832,4.832,0,0,0-4.833-4.832h-215.6a4.834,4.834,0,0,0-4.834,4.832Z" fill="#151a23"/>
      </g>
      <g id="Grupo_534" data-name="Grupo 534">
        <g id="Grupo_533" data-name="Grupo 533">
          <path id="Trazado_1935" data-name="Trazado 1935" d="M1175.31,318.091h73.922c-8.02,0-19.31-23.617-19.31-23.617h-33.369S1185.362,318.091,1175.31,318.091Z" fill="#38b9ff"/>
        </g>
      </g>
      <g id="Grupo_535" data-name="Grupo 535">
        <path id="Trazado_1936" data-name="Trazado 1936" d="M1196.553,294.474h33.369s.852,1.92,2.877,5.5c-4.613.926-24.838.777-30.335,1.1-3.2.19-7.082.125-9.717,6.374-.64,1.512-2.573,5.6-.281,5.91,2.57.339,48.792,1.257,50.841,1.5,2.03,1.956,4.065,3.237,5.925,3.237H1175.31C1185.362,318.091,1196.553,294.474,1196.553,294.474Z" fill="#003aa3"/>
      </g>
      <g id="Grupo_537" data-name="Grupo 537">
        <g id="Grupo_536" data-name="Grupo 536">
          <path id="Trazado_1937" data-name="Trazado 1937" d="M1153.649,321.136a5.915,5.915,0,0,0,5.916,5.914h105.144a5.912,5.912,0,0,0,5.913-5.914h0a5.913,5.913,0,0,0-5.913-5.912H1159.565a5.916,5.916,0,0,0-5.916,5.912Z" fill="#38b9ff"/>
        </g>
      </g>
      <g id="Grupo_539" data-name="Grupo 539">
        <g id="Grupo_538" data-name="Grupo 538">
          <path id="Trazado_1938" data-name="Trazado 1938" d="M1100.5,293.214a4.833,4.833,0,0,0,4.834,4.831h215.6a4.83,4.83,0,0,0,4.831-4.831l-1.23-136.381c0-2.669-.933-4.967-3.6-4.967h-215.6a4.835,4.835,0,0,0-4.834,4.833Z" fill="#38b9ff"/>
        </g>
      </g>
      <g id="Grupo_541" data-name="Grupo 541">
        <g id="Grupo_540" data-name="Grupo 540">
          <path id="Trazado_1939" data-name="Trazado 1939" d="M1099.773,275.717v4.806h225.453V139.175a4.831,4.831,0,0,0-4.832-4.832h-215.6a5.051,5.051,0,0,0-5.019,4.9Z" fill="#0f3871"/>
        </g>
      </g>
      <g id="Grupo_542" data-name="Grupo 542">
        <rect id="Rectángulo_259" data-name="Rectángulo 259" width="206.916" height="128.162" transform="translate(1109.136 142.921)" fill="#fff"/>
      </g>
      <rect id="Rectángulo_260" data-name="Rectángulo 260" width="206.852" height="128.133" transform="translate(1109.137 142.921)" fill="#44526b"/>
      <path id="Trazado_1940" data-name="Trazado 1940" d="M1108.566,234.362v-4.524q9.7,3.441,19.4,6.884l96.739,34.333h-12.748Q1160.262,252.707,1108.566,234.362Z" fill="#e2ffff" opacity="0.1"/>
      <path id="Trazado_1941" data-name="Trazado 1941" d="M1159.992,143.039h155.714v64.609Z" fill="#e2ffff" opacity="0.1"/>
      <path id="Trazado_1942" data-name="Trazado 1942" d="M1108.566,211.374V175.183l8.075,2.832,198.8,69.729c.352.124.732.231,1.122.332v23.008H1278.8Z" fill="#e2ffff" opacity="0.1"/>
    </g>
    <path id="Trazado_1943" data-name="Trazado 1943" d="M1052.09,337.911c4.311,1.832,19.837,1.909,36.372,1.763,17.641-.156,104.515-.649,97.626-1.763-8.209-1.327-39.593-4.1-67.22-4.1S1043.531,334.274,1052.09,337.911Z" fill="url(#linear-gradient)"/>
    <rect id="Rectángulo_261" data-name="Rectángulo 261" width="105.48" height="144.451" transform="translate(1048.114 191.044)" fill="#7b4d42"/>
    <rect id="Rectángulo_262" data-name="Rectángulo 262" width="105.48" height="144.451" transform="translate(1048.114 191.044)" fill="#0f3871"/>
    <rect id="Rectángulo_263" data-name="Rectángulo 263" width="103.516" height="144.451" transform="translate(1053.729 189.135)" fill="#aacaf9"/>
    <rect id="Rectángulo_264" data-name="Rectángulo 264" width="103.516" height="144.451" transform="translate(1049.273 191.044)" fill="#7b4d42"/>
    <path id="Trazado_1944" data-name="Trazado 1944" d="M1150.412,330.981l-97.058-.386V198.186l83.3-.773,13.761,13.372Z" fill="#0f3871"/>
    <path id="Trazado_1945" data-name="Trazado 1945" d="M1154.971,328.2l-99.763-.387L1052.5,197.335h82.91l14.148,13.758Z" fill="#fff"/>
    <path id="Trazado_1946" data-name="Trazado 1946" d="M1089.6,246.617a1.535,1.535,0,0,1-1.586,1.478h-20.707a1.535,1.535,0,0,1-1.585-1.478h0a1.534,1.534,0,0,1,1.585-1.477h20.707a1.534,1.534,0,0,1,1.586,1.477Z" fill="#d33c59"/>
    <path id="Trazado_1947" data-name="Trazado 1947" d="M1108.016,250.828a1.029,1.029,0,0,1-1.063.992h-40.081a1.029,1.029,0,0,1-1.062-.992h0a1.029,1.029,0,0,1,1.062-.991h40.081a1.029,1.029,0,0,1,1.063.991Z" fill="#bcbcbc"/>
    <path id="Trazado_1948" data-name="Trazado 1948" d="M1108.016,254.3a1.029,1.029,0,0,1-1.063.992h-40.081a1.029,1.029,0,0,1-1.062-.992h0a1.029,1.029,0,0,1,1.062-.991h40.081a1.029,1.029,0,0,1,1.063.991Z" fill="#bcbcbc"/>
    <path id="Trazado_1949" data-name="Trazado 1949" d="M1080.749,257.752a1.029,1.029,0,0,1-1.063.992h-12.814a1.029,1.029,0,0,1-1.062-.992h0a1.029,1.029,0,0,1,1.062-.991h12.814a1.029,1.029,0,0,1,1.063.991Z" fill="#bcbcbc"/>
    <path id="Trazado_1950" data-name="Trazado 1950" d="M1089.6,266.112a1.535,1.535,0,0,1-1.586,1.478h-20.707a1.535,1.535,0,0,1-1.585-1.478h0a1.534,1.534,0,0,1,1.585-1.477h20.707a1.534,1.534,0,0,1,1.586,1.477Z" fill="#d33c59"/>
    <path id="Trazado_1951" data-name="Trazado 1951" d="M1108.016,270.323a1.029,1.029,0,0,1-1.063.992h-40.081a1.029,1.029,0,0,1-1.062-.992h0a1.029,1.029,0,0,1,1.062-.991h40.081a1.029,1.029,0,0,1,1.063.991Z" fill="#bcbcbc"/>
    <path id="Trazado_1952" data-name="Trazado 1952" d="M1108.016,273.8a1.028,1.028,0,0,1-1.063.991h-40.081a1.028,1.028,0,0,1-1.062-.991h0a1.029,1.029,0,0,1,1.062-.991h40.081a1.029,1.029,0,0,1,1.063.991Z" fill="#bcbcbc"/>
    <path id="Trazado_1953" data-name="Trazado 1953" d="M1080.749,277.248a1.029,1.029,0,0,1-1.063.991h-12.814a1.029,1.029,0,0,1-1.062-.991h0a1.029,1.029,0,0,1,1.062-.992h12.814a1.029,1.029,0,0,1,1.063.992Z" fill="#bcbcbc"/>
    <path id="Trazado_1954" data-name="Trazado 1954" d="M1089.6,286.639a1.534,1.534,0,0,1-1.586,1.478h-20.707a1.534,1.534,0,0,1-1.585-1.478h0a1.534,1.534,0,0,1,1.585-1.477h20.707a1.534,1.534,0,0,1,1.586,1.477Z" fill="#d33c59"/>
    <path id="Trazado_1955" data-name="Trazado 1955" d="M1108.016,290.85a1.028,1.028,0,0,1-1.063.991h-40.081a1.028,1.028,0,0,1-1.062-.991h0a1.029,1.029,0,0,1,1.062-.991h40.081a1.029,1.029,0,0,1,1.063.991Z" fill="#bcbcbc"/>
    <path id="Trazado_1956" data-name="Trazado 1956" d="M1108.016,294.327a1.029,1.029,0,0,1-1.063.992h-40.081a1.029,1.029,0,0,1-1.062-.992h0a1.029,1.029,0,0,1,1.062-.991h40.081a1.029,1.029,0,0,1,1.063.991Z" fill="#bcbcbc"/>
    <path id="Trazado_1957" data-name="Trazado 1957" d="M1080.749,297.774a1.029,1.029,0,0,1-1.063.992h-12.814a1.029,1.029,0,0,1-1.062-.992h0a1.028,1.028,0,0,1,1.062-.99h12.814a1.028,1.028,0,0,1,1.063.99Z" fill="#bcbcbc"/>
    <path id="Trazado_1958" data-name="Trazado 1958" d="M1149.465,211.066l-12.524,3.1-1.353-16.836Z" fill="#d7c4a6"/>
    <path id="Trazado_1959" data-name="Trazado 1959" d="M1149.56,211.093l-14.306.073.158-13.831Z" fill="#d33c59"/>
    <g id="Grupo_544" data-name="Grupo 544">
      <path id="Trazado_1960" data-name="Trazado 1960" d="M1117.13,237.384V223.792h13.592v13.592Zm11.684-1.907V225.7h-9.776v9.777Z" fill="#d33c59"/>
      <path id="Trazado_1961" data-name="Trazado 1961" d="M1130.191,236.853h-12.53V224.324h12.53Zm-11.684-.845h10.838V225.169h-10.838Z" fill="#d33c59"/>
    </g>
    <g id="Grupo_545" data-name="Grupo 545">
      <path id="Trazado_1962" data-name="Trazado 1962" d="M1119.07,230.279l1.349-1.349,2.761,2.761,4.121-5.33,1.51,1.167-5.447,7.044Z" fill="#d33c59"/>
      <path id="Trazado_1963" data-name="Trazado 1963" d="M1123.313,233.77l-3.491-3.491.6-.6,2.813,2.811,4.165-5.387.669.517Z" fill="#d33c59"/>
    </g>
    <g id="Grupo_546" data-name="Grupo 546">
      <path id="Trazado_1964" data-name="Trazado 1964" d="M1117.55,257.966V244.373h13.593v13.593Zm11.685-1.908v-9.777h-9.776v9.777Z" fill="#d33c59"/>
      <path id="Trazado_1965" data-name="Trazado 1965" d="M1130.612,257.434h-12.53V244.9h12.53Zm-11.684-.845h10.838v-10.84h-10.838Z" fill="#d33c59"/>
    </g>
    <g id="Grupo_547" data-name="Grupo 547">
      <path id="Trazado_1966" data-name="Trazado 1966" d="M1119.491,250.86l1.349-1.349,2.761,2.76,4.12-5.33,1.509,1.169-5.446,7.044Z" fill="#d33c59"/>
      <path id="Trazado_1967" data-name="Trazado 1967" d="M1123.733,254.35l-3.491-3.49.6-.6,2.812,2.811,4.165-5.387.668.518Z" fill="#d33c59"/>
    </g>
    <g id="Grupo_548" data-name="Grupo 548">
      <path id="Trazado_1968" data-name="Trazado 1968" d="M1118.053,277.73V264.139h13.594V277.73Zm11.685-1.907v-9.777h-9.776v9.777Z" fill="#d33c59"/>
      <path id="Trazado_1969" data-name="Trazado 1969" d="M1131.115,277.2h-12.53V264.67h12.53Zm-11.684-.846h10.838V265.515h-10.838Z" fill="#d33c59"/>
    </g>
    <g id="Grupo_549" data-name="Grupo 549">
      <path id="Trazado_1970" data-name="Trazado 1970" d="M1119.994,270.624l1.35-1.348,2.761,2.76,4.12-5.33,1.509,1.168-5.446,7.044Z" fill="#d33c59"/>
      <path id="Trazado_1971" data-name="Trazado 1971" d="M1120.4,291.079l1.35-1.348,2.761,2.76,4.12-5.33,1.509,1.168-5.446,7.044Z" fill="#d33c59"/>
      <path id="Trazado_1972" data-name="Trazado 1972" d="M1124.237,274.116l-3.491-3.492.6-.6,2.812,2.81,4.165-5.386.668.518Z" fill="#d33c59"/>
    </g>
    <g id="Grupo_550" data-name="Grupo 550">
      <path id="Trazado_1973" data-name="Trazado 1973" d="M1118.474,297.981V284.389h13.593v13.592Zm11.685-1.907V286.3h-9.776v9.776Z" fill="#d33c59"/>
      <path id="Trazado_1974" data-name="Trazado 1974" d="M1131.536,297.451h-12.531v-12.53h12.531Zm-11.685-.846h10.838V285.767h-10.838Z" fill="#d33c59"/>
    </g>
    <path id="Trazado_1975" data-name="Trazado 1975" d="M1134.5,197.846v5.677l-64.62-.773-1.16-.386,1.16-4.518a7.8,7.8,0,0,1,7.8-7.8l47.863-1.159c4.308,0,8.959,4.651,8.959,8.958Z" fill="#b4d0d3"/>
    <path id="Trazado_1976" data-name="Trazado 1976" d="M1125.542,188.888c-15.243,0-15.869-4.239-16.077-4.989a8.757,8.757,0,0,0-16.848-.064c-.221.769-1.489,5.053-16.1,5.053h0a7.8,7.8,0,0,0-7.8,7.8v5.677h64.621v-5.677A7.8,7.8,0,0,0,1125.542,188.888Zm-24.51-9.317a3.421,3.421,0,1,1-3.422,3.421A3.421,3.421,0,0,1,1101.032,179.571Z" fill="#ffaa21"/>
    <path id="Trazado_1977" data-name="Trazado 1977" d="M1125.542,188.888c-15.243,0-15.869-4.239-16.077-4.989a8.757,8.757,0,0,0-8.015-6.379c.022.111.041-.163.053-.049a7.24,7.24,0,0,1,6.057,5c1,2.576,1.78,5.12,5.884,6.182a111.074,111.074,0,0,0,13.289,2.371,3.833,3.833,0,0,1,3.3,3.727c0,5.863.994,7.611-2.7,7.611h6.009v-5.677A7.8,7.8,0,0,0,1125.542,188.888Z" fill="#ffaa21"/>
    <path id="Trazado_1978" data-name="Trazado 1978" d="M1068.721,199.239v3.125h64.621v-3.125Z" fill="#e5a67c"/>
    <g id="Grupo_551" data-name="Grupo 551">
      <path id="Trazado_1979" data-name="Trazado 1979" d="M1101.032,186.413a3.421,3.421,0,1,0-3.422-3.421A3.421,3.421,0,0,0,1101.032,186.413Z" fill="none"/>
    </g>
    <g id="Grupo_552" data-name="Grupo 552">
      <path id="Trazado_1980" data-name="Trazado 1980" d="M1100.3,183.763a2.437,2.437,0,0,1-2.58.07,3.414,3.414,0,0,0,4.864,2.206,8.607,8.607,0,0,0-.79-1.282,4.36,4.36,0,0,0-.91-1.045c-.163-.1-.152-.2-.123-.254A3.246,3.246,0,0,1,1100.3,183.763Z" fill="none"/>
    </g>
    <path id="Trazado_1981" data-name="Trazado 1981" d="M1090.843,186.824c-6.143,3.284-15.61,2.9-15.61,2.9.849,0,10.961.9,16.25-1.538,4.287-1.976,4.186-5.965,2.943-5.965C1093.577,182.219,1093.866,185.208,1090.843,186.824Z" fill="#e5a67c"/>
    <path id="Trazado_1982" data-name="Trazado 1982" d="M1089.6,225.784a1.535,1.535,0,0,1-1.586,1.478h-20.707a1.535,1.535,0,0,1-1.585-1.478h0a1.534,1.534,0,0,1,1.585-1.477h20.707a1.534,1.534,0,0,1,1.586,1.477Z" fill="#d33c59"/>
    <path id="Trazado_1983" data-name="Trazado 1983" d="M1108.016,229.995a1.029,1.029,0,0,1-1.063.992h-40.081a1.029,1.029,0,0,1-1.062-.992h0a1.029,1.029,0,0,1,1.062-.991h40.081a1.029,1.029,0,0,1,1.063.991Z" fill="#bcbcbc"/>
    <path id="Trazado_1984" data-name="Trazado 1984" d="M1108.016,233.472a1.029,1.029,0,0,1-1.063.992h-40.081a1.029,1.029,0,0,1-1.062-.992h0a1.029,1.029,0,0,1,1.062-.991h40.081a1.029,1.029,0,0,1,1.063.991Z" fill="#bcbcbc"/>
    <path id="Trazado_1985" data-name="Trazado 1985" d="M1080.749,236.92a1.029,1.029,0,0,1-1.063.991h-12.814a1.029,1.029,0,0,1-1.062-.991h0a1.028,1.028,0,0,1,1.062-.991h12.814a1.029,1.029,0,0,1,1.063.991Z" fill="#bcbcbc"/>
    <g id="Grupo_556" data-name="Grupo 556">
      <path id="Trazado_1986" data-name="Trazado 1986" d="M1063.526,343.578c1.921,1.832,8.839,1.91,16.207,1.763,7.861-.156,46.573-.649,43.5-1.763-3.658-1.327-17.643-4.1-29.953-4.1S1059.712,339.942,1063.526,343.578Z" fill="url(#linear-gradient)"/>
      <path id="Trazado_1987" data-name="Trazado 1987" d="M1072.12,338.893s-1.647,1.308-1.642.52c.055-7.189.387-16.34.265-21.415-.032-1.37-.382-22.248,4-22.8,3.99-.507,2.37-.035,3.483,2.367.932,2.007-2.214,19.25-2.939,20.923-.243.557-.733,3.43-.851,4.026C1072.774,330.965,1072.12,338.893,1072.12,338.893Z" fill="#fdc8a8"/>
      <path id="Trazado_1988" data-name="Trazado 1988" d="M1071.6,284.847l1.175,6.787c.776,1.715.776,2.459-.065,3.81-.483.776,10.132.665,9.747-.136-.884-1.824.658-3.529.658-4.288l.136-6.173Z" fill="url(#linear-gradient-4)"/>
      <path id="Trazado_1989" data-name="Trazado 1989" d="M1100.333,285.42c.348.093,2.745.218,2.745.218.082-1.2-.363-1.284-.363-1.284l-10.257-3.454c-1.6-.395-2.965.254-3.045,1.447h0c-.079,1.2,1.463,1.667,3.065,2.063Z" fill="#fdc8a8"/>
      <path id="Trazado_1990" data-name="Trazado 1990" d="M1088.474,282.215c.25.243,1.628,2.086,2.9,1.005l-.159.09a2.973,2.973,0,0,0,1.1-2.458l-7.932-7.512a3.47,3.47,0,0,0-4.468-.017h0c-1.272,1.081-.212,2.22.983,3.309Z" fill="#0f3871"/>
      <path id="Trazado_1991" data-name="Trazado 1991" d="M1080.694,338.621s-1.526,1.446-1.59.661c-.578-7.166-.23-16.312-.8-21.356-.152-1.361-5.2-21.948-.89-22.886,3.93-.856,4.4-.423,5.723,1.872,1.1,1.918.3,19.3-.27,21.029-.194.575-.43,3.479-.494,4.084C1081.465,330.591,1080.694,338.621,1080.694,338.621Z" fill="#fdc8a8"/>
      <path id="Trazado_1992" data-name="Trazado 1992" d="M1070.641,329.7c.262-.257.518-.52.785-.772.709-.672,1.448-1.312,2.2-1.933.236-1.45.5-2.96.8-4.487.118-.6.608-3.469.851-4.026.725-1.673,3.871-18.916,2.939-20.923-1.113-2.4.507-2.874-3.483-2.367-4.378.555-4.028,21.433-4,22.8C1070.813,320.928,1070.732,325.217,1070.641,329.7Z" fill="#fdc8a8"/>
      <path id="Trazado_1993" data-name="Trazado 1993" d="M1078.616,323.269l.335-.236c1.189-.833,2.388-1.651,3.566-2.5a20.218,20.218,0,0,1,.352-2.591c.574-1.731,1.375-19.111.27-21.029-1.32-2.295-1.793-2.728-5.723-1.872-4.313.938.738,21.525.89,22.886C1078.473,319.4,1078.56,321.238,1078.616,323.269Z" fill="#fdc8a8"/>
      <path id="Trazado_1994" data-name="Trazado 1994" d="M1078.727,339.652c.058.651-1.785,3.018-.065,2.867,4.249-.375,4.531-.435,4.261-1.005-.633-1.347-1.35-.694-1.715-2.753C1080.992,337.535,1078.669,339,1078.727,339.652Z" fill="#0f3871"/>
      <path id="Trazado_1995" data-name="Trazado 1995" d="M1083.394,294.3c-.736-3.117-.083-6.169.443-8.652.715-3.383,1.133-5.71,1.133-5.71,0-4.047-.8-7.426-6.6-7.426s-8.624,3.308-8.624,7.355c0,0,2.92,10.743,2.906,12.534-.039,5.122-3.686,11.429-2.772,25.6.149,2.306,10.287-.41,13.572-.551C1083.765,317.441,1085.223,302.049,1083.394,294.3Z" fill="#0f3871"/>
      <path id="Trazado_1996" data-name="Trazado 1996" d="M1073.813,274.194a3.162,3.162,0,0,0-4.007,1.991l-2.818,12.389a8.133,8.133,0,0,1,3.508.977,13.592,13.592,0,0,1,1.075-2.377l2.929-9.121C1075.057,276.4,1075.47,274.751,1073.813,274.194Z" fill="#0f3871"/>
      <path id="Trazado_1997" data-name="Trazado 1997" d="M1061.392,300.933a2.313,2.313,0,0,1-2.807-.236c-.359-.462,2.2-1.284,3.148-2.019a1.3,1.3,0,0,1,2,.1C1064.092,299.238,1062.952,299.933,1061.392,300.933Z" fill="#fdc8a8"/>
      <path id="Trazado_1998" data-name="Trazado 1998" d="M1064.593,298.147a20.149,20.149,0,0,1-1.489,1.682c-.992-.931-1.006-1.111-1.006-1.111l4.817-10.325c.823-1.461,2.3-1.89,3.29-.961h0c.992.93.27,2.414-.555,3.874Z" fill="#fdc8a8"/>
      <path id="Trazado_1999" data-name="Trazado 1999" d="M1070.071,339.75c0,.652-2.045,2.849-.317,2.849,4.265,0,4.551-.034,4.333-.626-.513-1.4-1.285-.811-1.466-2.893C1072.513,337.839,1070.071,339.1,1070.071,339.75Z" fill="#0f3871"/>
      <path id="Trazado_2000" data-name="Trazado 2000" d="M1074.332,273.3c-2.3.817,1.41,1.1,2.995,1.081s5.793-.707,3.718-1.721c-3.481-1.7-.049-6.019-3.489-5.976C1074.518,266.726,1078.148,271.946,1074.332,273.3Z" fill="#fdc8a8"/>
      <path id="Trazado_2001" data-name="Trazado 2001" d="M1074.475,274.178c.041-.041.078-.085.12-.125,1.243-1.13,2.588-2.142,3.924-3.16a6.142,6.142,0,0,1,.823-.664c-.22-1.745.456-3.569-1.786-3.541-3.038.038.592,5.258-3.224,6.615C1073.138,273.728,1073.567,274.009,1074.475,274.178Z" fill="#fdc8a8"/>
      <path id="Trazado_2002" data-name="Trazado 2002" d="M1081.456,261.1a1.621,1.621,0,1,1-1.641-1.579A1.609,1.609,0,0,1,1081.456,261.1Z" fill="#fbda70"/>
      <path id="Trazado_2003" data-name="Trazado 2003" d="M1073.22,265.177c.021,1.727,3.759,4.381,4.592,4.369a3.648,3.648,0,0,0,3.405-4.146c-.314-3.057-.47-6.617-2.811-6.588S1073.179,261.926,1073.22,265.177Z" fill="#fdc8a8"/>
      <path id="Trazado_2004" data-name="Trazado 2004" d="M1078.653,260.3c-3.616.047-3.37,6.417-6.287,6.455s-1.165-7.852,3.419-8.752A2.252,2.252,0,0,1,1078.653,260.3Z" fill="#fbda70"/>
      <path id="Trazado_2005" data-name="Trazado 2005" d="M1080.585,259.51c.011.867-1.049,1.583-2.37,1.6s-2.4-.672-2.411-1.538,1.052-1.583,2.371-1.6S1080.574,258.645,1080.585,259.51Z" fill="#fbda70"/>
      <g id="Grupo_555" data-name="Grupo 555">
        <g id="Grupo_554" data-name="Grupo 554">
          <g id="Grupo_553" data-name="Grupo 553">
            <path id="Trazado_2006" data-name="Trazado 2006" d="M1081.807,339.07c-.22,1.509.536,2.862,1.685,3.036l9.985,1.457c1.153.159,2.267-.922,2.479-2.433l1.487-10.156c.218-1.508-.544-2.864-1.7-3.029l-9.969-1.458c-1.154-.176-2.264.921-2.483,2.425Z" fill="#d33c59"/>
            <path id="Trazado_2007" data-name="Trazado 2007" d="M1105.4,278.937l-6.534,44.868-14.826-2.148,6.535-44.88Z" fill="#ffaa21"/>
            <path id="Trazado_2008" data-name="Trazado 2008" d="M1105.4,278.937l-6.534,44.868-4.363-.627,6.536-44.876Z" fill="#ffd685"/>
            <path id="Trazado_2009" data-name="Trazado 2009" d="M1104.652,284.044c-.072-.093.233-.361.122-.361-.513,0-.3.953-1.492.839-.489-.047-.567.284-.477.853.034.218.13.6,1.37.337a.538.538,0,0,0,.249-.079Z" fill="#ffaa21"/>
            <path id="Trazado_2010" data-name="Trazado 2010" d="M1104.175,285.26c1.3-.275,1.224-2.029.6-2.029-.513,0-.3.952-1.492.838-.489-.046-.567.285-.477.854C1102.839,285.141,1102.935,285.521,1104.175,285.26Z" fill="#fdc8a8"/>
            <path id="Trazado_2011" data-name="Trazado 2011" d="M1104.864,283.247a1.286,1.286,0,0,1,.036.182,1.482,1.482,0,0,1-1.9,1.607,1.049,1.049,0,0,1-.2-.093c.038.22.163.57,1.367.317C1105.41,285,1105.4,283.409,1104.864,283.247Z" fill="#fdc8a8"/>
            <rect id="Rectángulo_265" data-name="Rectángulo 265" width="45.357" height="4.584" transform="translate(1084.036 321.66) rotate(-81.711)" fill="#ffaa21"/>
            <path id="Trazado_2012" data-name="Trazado 2012" d="M1100.191,262.71l5.2,16.227-14.828-2.162Z" fill="#f9dcc3"/>
            <path id="Trazado_2013" data-name="Trazado 2013" d="M1100.191,262.71l5.2,16.227-14.828-2.162Z" fill="#ddc6ac"/>
            <path id="Trazado_2014" data-name="Trazado 2014" d="M1100.191,262.71l5.2,16.227-4.359-.634Z" fill="#fff"/>
            <path id="Trazado_2015" data-name="Trazado 2015" d="M1095.113,277.436l5.078-14.726.845,15.592" fill="#f9dcc3"/>
          </g>
        </g>
        <path id="Trazado_2016" data-name="Trazado 2016" d="M1082.111,323.664a2.192,2.192,0,0,0,1.765,2.544l13.781,2.012a2.184,2.184,0,0,0,2.411-1.934h0a2.187,2.187,0,0,0-1.758-2.547l-13.782-2.01a2.192,2.192,0,0,0-2.417,1.935Z" fill="#f9dcc3"/>
        <path id="Trazado_2017" data-name="Trazado 2017" d="M1081.455,328.144a2.194,2.194,0,0,0,1.766,2.545L1097,332.7a2.189,2.189,0,0,0,2.418-1.936h0a2.191,2.191,0,0,0-1.757-2.546l-13.781-2.012a2.2,2.2,0,0,0-2.421,1.936Z" fill="#f9dcc3"/>
        <path id="Trazado_2018" data-name="Trazado 2018" d="M1099.907,255.972a5.663,5.663,0,0,1,1.321-.354h0c.185.014,1.174.351,1.151.8l-.82,10.1a1.906,1.906,0,0,1-2.16,1.607h0a1.9,1.9,0,0,1-1.6-2.154Z" fill="#3d5b69"/>
      </g>
    </g>
    <path id="Trazado_2019" data-name="Trazado 2019" d="M1278.367,182.782h-9.415v-4.614h.061V142.613a6.976,6.976,0,0,0-8.248-6.881h-50.782S1145,134.7,1133.34,134.413c5.885.759,6.389,7.73,6.389,7.73.01.155.021.311.021.47h0v35.555h.039v32.48c-.023.36-.039.722-.039,1.087s.016.728.039,1.089v.043h0c0,10.9,3.182,15.526,10.67,15.526l29.409-.53-.958,69.987h116.11V199.439A16.657,16.657,0,0,0,1278.367,182.782Z" fill="#aacaf9"/>
    <path id="Trazado_2020" data-name="Trazado 2020" d="M1223.273,220.916h-65.624l12.71-45.47h52.914Z" fill="#7189ad"/>
    <rect id="Rectángulo_266" data-name="Rectángulo 266" width="138.873" height="107.326" transform="translate(1185.998 191.962)" fill="#fff"/>
    <path id="Trazado_2021" data-name="Trazado 2021" d="M1217.17,134.666h-83.111s-.056-6.41,7.129-6.41h75.982Z" fill="#7189ad"/>
    <path id="Trazado_2022" data-name="Trazado 2022" d="M1298.861,135.136a6.971,6.971,0,0,0-8.248-6.88H1141.188a7,7,0,0,1,5.75,6.88h0v35.556h.039v32.479c-.023.36-.039.722-.039,1.088s.016.728.039,1.088v.044h0c0,10.9,3.181,15.525,10.669,15.525,7.275,0,10.7-4.627,10.7-15.571h0V191.962l130.45-1.434.061-19.836h0Z" fill="#fff"/>
    <path id="Trazado_2023" data-name="Trazado 2023" d="M1214.422,187.332a1.478,1.478,0,0,1-1.528,1.425h-52.4a1.48,1.48,0,0,1-1.528-1.425h0a1.48,1.48,0,0,1,1.528-1.425h52.4a1.478,1.478,0,0,1,1.528,1.425Z" fill="#bcbcbc"/>
    <path id="Trazado_2024" data-name="Trazado 2024" d="M1214.422,192.331a1.478,1.478,0,0,1-1.528,1.425h-52.4a1.48,1.48,0,0,1-1.528-1.425h0a1.48,1.48,0,0,1,1.528-1.425h52.4a1.478,1.478,0,0,1,1.528,1.425Z" fill="#bcbcbc"/>
    <path id="Trazado_2025" data-name="Trazado 2025" d="M1168.3,195.862h-7.8a1.428,1.428,0,1,0,0,2.85h7.8Z" fill="#bcbcbc"/>
    <path id="Trazado_2026" data-name="Trazado 2026" d="M1193.175,181.278a2.205,2.205,0,0,1-2.279,2.124h-29.771a2.2,2.2,0,0,1-2.278-2.124h0a2.2,2.2,0,0,1,2.278-2.124H1190.9a2.205,2.205,0,0,1,2.279,2.124Z" fill="#d33c59"/>
    <path id="Trazado_2027" data-name="Trazado 2027" d="M1183.983,174.285c-9.268,0-12.911.158-15.394,9.95l20.612,2.287v5.659l109.928-1.123V168.582s-.515,5.7-15.366,5.7Z" fill="#ccd9f2"/>
    <g id="Grupo_557" data-name="Grupo 557">
      <path id="Trazado_2028" data-name="Trazado 2028" d="M1213.932,197.584V178.043h19.542v19.541Zm16.8-2.742V180.788h-14.055v14.054Z" fill="#358dff"/>
      <path id="Trazado_2029" data-name="Trazado 2029" d="M1232.711,196.822H1214.7V178.808h18.015Zm-16.8-1.217h15.582V180.024h-15.582Z" fill="#358dff"/>
    </g>
    <path id="Trazado_2030" data-name="Trazado 2030" d="M1268.9,191.962c0,9.2,30.118,16.658,39.317,16.658a16.658,16.658,0,0,0,0-33.315C1299.016,175.3,1268.9,182.762,1268.9,191.962Z" fill="#fff"/>
    <path id="Trazado_2031" data-name="Trazado 2031" d="M1186,201.489h99.556l22.661-26.184H1176.577l4.3,4.644c5.152,4.814,5.118,12.013,5.118,12.013Z" fill="#fff"/>
    <path id="Trazado_2032" data-name="Trazado 2032" d="M1168.356,187.275c0,6.318-.006,8.808-.006,8.808,4.263,0,15.71,3.1,17.678-.362,0,0-.021-6.39-.021-8.446,0-6.318-2.268-11.439-8.587-11.439S1168.356,180.957,1168.356,187.275Z" fill="#7189ad"/>
    <g id="Grupo_558" data-name="Grupo 558">
      <path id="Trazado_2033" data-name="Trazado 2033" d="M1290.828,258.568v-16.8h16.8v16.8Zm14.44-2.358V244.128h-12.082V256.21Z" fill="#d33c59"/>
      <path id="Trazado_2034" data-name="Trazado 2034" d="M1306.97,257.911h-15.486V242.427h15.486Zm-14.44-1.044h13.4v-13.4h-13.4Z" fill="#d33c59"/>
    </g>
    <g id="Grupo_559" data-name="Grupo 559">
      <path id="Trazado_2035" data-name="Trazado 2035" d="M1293.226,249.787l1.668-1.667,3.412,3.412,5.093-6.587,1.866,1.442-6.731,8.706Z" fill="#d33c59"/>
      <path id="Trazado_2036" data-name="Trazado 2036" d="M1298.469,254.1l-4.314-4.314.738-.738,3.476,3.474,5.147-6.658.826.639Z" fill="#d33c59"/>
    </g>
    <path id="Trazado_2037" data-name="Trazado 2037" d="M1232.457,245.763a1.716,1.716,0,0,1-1.773,1.653h-31.531a1.715,1.715,0,0,1-1.772-1.653h0a1.715,1.715,0,0,1,1.772-1.652h31.531a1.716,1.716,0,0,1,1.773,1.652Z" fill="#d33c59"/>
    <path id="Trazado_2038" data-name="Trazado 2038" d="M1258.34,250.473a1.15,1.15,0,0,1-1.189,1.108h-58.485a1.15,1.15,0,0,1-1.188-1.108h0a1.151,1.151,0,0,1,1.188-1.109h58.485a1.151,1.151,0,0,1,1.189,1.109Z" fill="#bcbcbc"/>
    <path id="Trazado_2039" data-name="Trazado 2039" d="M1258.34,254.361a1.151,1.151,0,0,1-1.189,1.109h-58.485a1.151,1.151,0,0,1-1.188-1.109h0a1.15,1.15,0,0,1,1.188-1.108h58.485a1.15,1.15,0,0,1,1.189,1.108Z" fill="#bcbcbc"/>
    <path id="Trazado_2040" data-name="Trazado 2040" d="M1218.152,258.216a1.152,1.152,0,0,1-1.19,1.109h-18.3a1.151,1.151,0,0,1-1.188-1.109h0a1.15,1.15,0,0,1,1.188-1.108h18.3a1.151,1.151,0,0,1,1.19,1.108Z" fill="#bcbcbc"/>
    <path id="Trazado_2041" data-name="Trazado 2041" d="M1281.745,202.861a1.716,1.716,0,0,1-1.773,1.652h-31.531a1.715,1.715,0,0,1-1.772-1.652h0a1.715,1.715,0,0,1,1.772-1.653h31.531a1.716,1.716,0,0,1,1.773,1.653Z" fill="#d33c59"/>
    <path id="Trazado_2042" data-name="Trazado 2042" d="M1307.628,207.57a1.151,1.151,0,0,1-1.189,1.109h-58.485a1.151,1.151,0,0,1-1.188-1.109h0a1.15,1.15,0,0,1,1.188-1.108h58.485a1.15,1.15,0,0,1,1.189,1.108Z" fill="#bcbcbc"/>
    <path id="Trazado_2043" data-name="Trazado 2043" d="M1307.628,211.459a1.15,1.15,0,0,1-1.189,1.108h-58.485a1.15,1.15,0,0,1-1.188-1.108h0a1.15,1.15,0,0,1,1.188-1.109h58.485a1.151,1.151,0,0,1,1.189,1.109Z" fill="#bcbcbc"/>
    <path id="Trazado_2044" data-name="Trazado 2044" d="M1307.628,216.022a1.151,1.151,0,0,1-1.189,1.109h-58.485a1.151,1.151,0,0,1-1.188-1.109h0a1.151,1.151,0,0,1,1.188-1.109h58.485a1.151,1.151,0,0,1,1.189,1.109Z" fill="#bcbcbc"/>
    <path id="Trazado_2045" data-name="Trazado 2045" d="M1267.44,221.535a1.151,1.151,0,0,1-1.189,1.108h-18.3a1.15,1.15,0,0,1-1.188-1.108h0a1.151,1.151,0,0,1,1.188-1.109h18.3a1.152,1.152,0,0,1,1.189,1.109Z" fill="#bcbcbc"/>
    <g id="Grupo_560" data-name="Grupo 560">
      <path id="Trazado_2046" data-name="Trazado 2046" d="M1290.828,283.933v-16.8h16.8v16.8Zm14.44-2.357V269.493h-12.082v12.083Z" fill="#d33c59"/>
      <path id="Trazado_2047" data-name="Trazado 2047" d="M1306.97,283.277h-15.486V267.792h15.486Zm-14.44-1.045h13.4v-13.4h-13.4Z" fill="#d33c59"/>
    </g>
    <g id="Grupo_561" data-name="Grupo 561">
      <path id="Trazado_2048" data-name="Trazado 2048" d="M1293.226,275.152l1.668-1.667,3.412,3.412,5.093-6.587,1.866,1.442-6.731,8.706Z" fill="#d33c59"/>
      <path id="Trazado_2049" data-name="Trazado 2049" d="M1298.469,279.466l-4.314-4.314.738-.738,3.476,3.474,5.147-6.658.826.639Z" fill="#d33c59"/>
    </g>
    <path id="Trazado_2050" data-name="Trazado 2050" d="M1232.457,271.128a1.716,1.716,0,0,1-1.773,1.653h-31.531a1.715,1.715,0,0,1-1.772-1.653h0a1.715,1.715,0,0,1,1.772-1.652h31.531a1.716,1.716,0,0,1,1.773,1.652Z" fill="#d33c59"/>
    <path id="Trazado_2051" data-name="Trazado 2051" d="M1258.34,275.838a1.151,1.151,0,0,1-1.189,1.109h-58.485a1.151,1.151,0,0,1-1.188-1.109h0a1.15,1.15,0,0,1,1.188-1.108h58.485a1.15,1.15,0,0,1,1.189,1.108Z" fill="#bcbcbc"/>
    <path id="Trazado_2052" data-name="Trazado 2052" d="M1258.34,279.727a1.15,1.15,0,0,1-1.189,1.108h-58.485a1.15,1.15,0,0,1-1.188-1.108h0a1.15,1.15,0,0,1,1.188-1.109h58.485a1.151,1.151,0,0,1,1.189,1.109Z" fill="#bcbcbc"/>
    <path id="Trazado_2053" data-name="Trazado 2053" d="M1218.152,283.582a1.151,1.151,0,0,1-1.19,1.108h-18.3a1.15,1.15,0,0,1-1.188-1.108h0a1.151,1.151,0,0,1,1.188-1.109h18.3a1.152,1.152,0,0,1,1.19,1.109Z" fill="#bcbcbc"/>
    <g id="Grupo_562" data-name="Grupo 562">
      <path id="Trazado_2054" data-name="Trazado 2054" d="M1260.355,164.378V144.837H1279.9v19.541Zm16.8-2.743V147.58H1263.1v14.055Z" fill="#d33c59"/>
      <path id="Trazado_2055" data-name="Trazado 2055" d="M1279.133,163.614h-18.015V145.6h18.015Zm-16.8-1.215h15.582V146.816h-15.582Z" fill="#d33c59"/>
    </g>
    <g id="Grupo_563" data-name="Grupo 563">
      <path id="Trazado_2056" data-name="Trazado 2056" d="M1263.145,154.162l1.94-1.94,3.969,3.969,5.925-7.663,2.17,1.678-7.831,10.127Z" fill="#d33c59"/>
      <path id="Trazado_2057" data-name="Trazado 2057" d="M1269.244,159.181l-5.019-5.019.859-.859,4.043,4.042,5.988-7.745.961.743Z" fill="#d33c59"/>
    </g>
    <path id="Trazado_2058" data-name="Trazado 2058" d="M1205.768,147.7a2.206,2.206,0,0,1-2.279,2.124h-40.534a2.205,2.205,0,0,1-2.279-2.124h0a2.206,2.206,0,0,1,2.279-2.125h40.534a2.206,2.206,0,0,1,2.279,2.125Z" fill="#d33c59"/>
    <path id="Trazado_2059" data-name="Trazado 2059" d="M1239.041,153.755a1.479,1.479,0,0,1-1.528,1.425h-75.185a1.48,1.48,0,0,1-1.528-1.425h0a1.48,1.48,0,0,1,1.528-1.425h75.185a1.479,1.479,0,0,1,1.528,1.425Z" fill="#bcbcbc"/>
    <path id="Trazado_2060" data-name="Trazado 2060" d="M1239.041,158.754a1.479,1.479,0,0,1-1.528,1.425h-75.185a1.48,1.48,0,0,1-1.528-1.425h0a1.48,1.48,0,0,1,1.528-1.425h75.185a1.479,1.479,0,0,1,1.528,1.425Z" fill="#bcbcbc"/>
    <path id="Trazado_2061" data-name="Trazado 2061" d="M1187.378,163.71a1.481,1.481,0,0,1-1.529,1.425h-23.521a1.48,1.48,0,0,1-1.528-1.425h0a1.48,1.48,0,0,1,1.528-1.425h23.521a1.48,1.48,0,0,1,1.529,1.425Z" fill="#bcbcbc"/>
    <g id="Grupo_564" data-name="Grupo 564">
      <path id="Trazado_2062" data-name="Trazado 2062" d="M1203.611,298.823h0a8.831,8.831,0,1,0-8.831,8.832A8.832,8.832,0,0,0,1203.611,298.822Z" fill="#fff"/>
    </g>
    <path id="Trazado_2063" data-name="Trazado 2063" d="M1324.871,304.5V292.422s-.514,5.7-15.366,5.7l-108.968,2.852s.84,5.653-5.757,6.677Z" fill="#ccd9f2"/>
    <path id="Trazado_2064" data-name="Trazado 2064" d="M1311.037,298.725h-17.652c0,.032-.005.064-.005.1h-89.769a8.832,8.832,0,0,1-8.831,8.831h130.092a8.831,8.831,0,0,0,8.83-8.832C1333.7,298.789,1311.037,298.757,1311.037,298.725Z" fill="#7189ad"/>
    <circle id="Elipse_34" data-name="Elipse 34" cx="20.029" cy="20.029" r="20.029" transform="matrix(0.39, -0.921, 0.921, 0.39, 1191.251, 223.274)" fill="#d33c59"/>
    <g id="Grupo_572" data-name="Grupo 572">
      <g id="Grupo_571" data-name="Grupo 571" clip-path="url(#clip-path)">
        <g id="Grupo_570" data-name="Grupo 570">
          <path id="Trazado_2065" data-name="Trazado 2065" d="M1219.39,249.79h10.739l-4.466-11.706-1.222-15.044-13.545.829.644,14.829Z" fill="#f2ebdd"/>
          <g id="Grupo_565" data-name="Grupo 565">
            <path id="Trazado_2066" data-name="Trazado 2066" d="M1210.81,224.15c.15,1.76,2.377,2.493,5.28,2.225l.244.48c2.9-.257,5.131-1.9,4.986-3.654l-1.586-13.264c-.15-1.757-2.147-3.007-5.05-2.746h0c-2.9.263-4.188,1.822-4.042,3.588Z" fill="#fdc8a8"/>
          </g>
          <path id="Trazado_2067" data-name="Trazado 2067" d="M1220.6,219.05l-9.882-1.26.057,2.657c2.314,1.649,5.787,3.433,6.9,3.552,1.031.112,3.409-1.371,3.391-1.956Z" fill="#fdc8a8"/>
          <path id="Trazado_2068" data-name="Trazado 2068" d="M1222.262,207.578l1.1-.56c.917-.456,1.7.038,1.851,1.106.263,1.832-1.254,2.027-1.134,3.464l-2.36-.2Z" fill="#fdc8a8"/>
          <path id="Trazado_2069" data-name="Trazado 2069" d="M1209.271,211.295l-1.219-.225c-1.009-.177-1.614.518-1.461,1.588.266,1.829,1.7,1.522,2.163,3.1l2.112-.966Z" fill="#fdc8a8"/>
          <path id="Trazado_2070" data-name="Trazado 2070" d="M1223.934,216.151c-.694,2.572-2.659,6.269-4.409,6.737-1.962.52-8.061-2.071-9.062-3.751-2.762-4.641-5.056-17.415,4.4-18.295,2.522-.232,6.758-1.894,8.362,2.674C1224.243,206.422,1224.713,213.25,1223.934,216.151Z" fill="#fdc8a8"/>
          <path id="Trazado_2071" data-name="Trazado 2071" d="M1223.934,216.151c.779-2.9.309-9.729-.711-12.635-1.6-4.568-5.84-2.906-8.362-2.674a8.314,8.314,0,0,0-4.169,1.436,2.028,2.028,0,0,1,.273.151,18.009,18.009,0,0,1,4.319,3.988c.094.121.421-.391.468-.269a10.358,10.358,0,0,0,2.882,1.1c.878.079,4.168-1.087,4.606.341a14.81,14.81,0,0,1,.488,7.8c-1.376,5.744-4.2,7.5-4.2,7.5C1221.275,222.42,1223.24,218.723,1223.934,216.151Z" fill="#fdc8a8"/>
          <g id="Grupo_567" data-name="Grupo 567">
            <g id="Grupo_566" data-name="Grupo 566">
              <path id="Trazado_2072" data-name="Trazado 2072" d="M1216.087,197.968c.646-.849-.223,3.633,1.668,2.19.847-.647,2.974-.172,4.19,1.808l-8.69,2.691c-.552.031-1.106.064-1.658.115a2.886,2.886,0,0,0-2.47,2.73c-.754-.349-1.51-.693-2.255-1.1C1206.83,198.534,1213.868,200.884,1216.087,197.968Z" fill="#0f3871"/>
            </g>
          </g>
          <path id="Trazado_2073" data-name="Trazado 2073" d="M1221.352,197.942c.353.968-.437,2.333-1.765,3.049s-3.745-.444-4.1-1.413,1.244-.2,2.543-1.577C1219.1,196.861,1220.995,196.974,1221.352,197.942Z" fill="#0f3871"/>
          <path id="Trazado_2074" data-name="Trazado 2074" d="M1221.489,206.064c2.137-.251,2.686,4.08,2.686,4.08.595-.114.563-3.344-.277-5.864C1223.371,202.7,1219.945,206.244,1221.489,206.064Z" fill="#0f3871"/>
          <path id="Trazado_2075" data-name="Trazado 2075" d="M1221.489,206.064c2.137-.251,2.686,4.08,2.686,4.08.595-.114.563-3.344-.277-5.864C1223.371,202.7,1219.945,206.244,1221.489,206.064Z" fill="#f48baa"/>
          <path id="Trazado_2076" data-name="Trazado 2076" d="M1223.743,202.365c.319,1.432,0,3.061-2.264,4.1-4.055,1.858-5.177-.873-10.846.847-.487.148.45,1.312-1.048,2.756-1.528,1.474-.9,4.178-.9,4.178-.834.048-1.475-6.081-1.616-6.715-.683-3.07,2.5-6.713,7.1-8.137S1223.059,199.3,1223.743,202.365Z" fill="#0f3871"/>
          <path id="Trazado_2077" data-name="Trazado 2077" d="M1208.581,212.461a62.811,62.811,0,0,1-.8-6.272c.041-1.983.1-3.365,1.88-4.52.862-.559,3.5-.981,4.483-1.174a5.137,5.137,0,0,0,2.805-1.771,3.853,3.853,0,0,1-.536.161c-.053-.69-.058-1.273-.329-.917-2.219,2.916-9.257.566-9.215,8.432l.118.062a3.91,3.91,0,0,0,.08,1.064c.141.634.782,6.763,1.616,6.715A14.587,14.587,0,0,1,1208.581,212.461Z" fill="#f48baa"/>
          <path id="Trazado_2078" data-name="Trazado 2078" d="M1220.567,249.79l-10.29-18.959a12.977,12.977,0,0,1,1.2-5.944c-9.222,2.5-7.224,5.207-8.376,9.415l3.393,15.488Z" fill="#f2ebdd"/>
          <g id="Grupo_568" data-name="Grupo 568">
            <path id="Trazado_2079" data-name="Trazado 2079" d="M1210.995,226.182a11.592,11.592,0,0,0-.718,4.649l1,1.844Z" fill="#d3c6ae"/>
            <path id="Trazado_2080" data-name="Trazado 2080" d="M1226.771,224.659c1.326.9,3.011,2.039,4.491,3.036A10.741,10.741,0,0,0,1226.771,224.659Z" fill="#d3c6ae"/>
            <path id="Trazado_2081" data-name="Trazado 2081" d="M1226.771,224.659c-1.379-.937-2.369-1.618-2.331-1.617v0l-.023,0c-.034,0-.066,0-.1,0v.01l-4.407.269c.241.195.486.392.74.584A12.266,12.266,0,0,1,1226.771,224.659Z" fill="#d3c6ae"/>
          </g>
          <path id="Trazado_2082" data-name="Trazado 2082" d="M1220.177,242.862a.605.605,0,1,0,.578-.585A.58.58,0,0,0,1220.177,242.862Z" fill="#d3c6ae"/>
          <path id="Trazado_2083" data-name="Trazado 2083" d="M1218.279,234.2a.6.6,0,0,0,1.2-.054.6.6,0,0,0-1.2.054Z" fill="#d3c6ae"/>
          <g id="Grupo_569" data-name="Grupo 569">
            <path id="Trazado_2084" data-name="Trazado 2084" d="M1230.445,239.488l-2.459,3.319-3.448-2.276-.916-5.186,5.908-1.044Z" fill="#d3c6ae"/>
            <path id="Trazado_2085" data-name="Trazado 2085" d="M1230.129,239.421l-2.214,2.987-3.1-2.048-.824-4.669,5.317-.939Z" fill="#f2ebdd"/>
          </g>
          <path id="Trazado_2086" data-name="Trazado 2086" d="M1234.429,230.549l-.257-1.226a6.062,6.062,0,0,0-1.838-2.892c-2.028-1.806-4.486-2.777-8.016-3.393-2.6.169-3.619.054-3.534,1.509l.095,1.883c2.356,5.617,3.945,14.65,5,23.36h8.534c-.182-4.514-.348-7.719-.348-7.719C1233.968,237.3,1234.831,233.518,1234.429,230.549Z" fill="#0f3871"/>
          <path id="Trazado_2087" data-name="Trazado 2087" d="M1220.879,226.43c2.356,5.617,3.946,14.65,5,23.36h2.683c.111-1.686.166-3.652.111-6.4-.125-6.305-1.281-6.428-4.026-11.7-1.005-1.929,1.986-4.841-.143-8.622-.063-.012-.123-.025-.187-.036-2.6.169-3.619.054-3.534,1.509Z" fill="#f48baa"/>
          <path id="Trazado_2088" data-name="Trazado 2088" d="M1222.81,223.46l-3.874,6.275-1.386-3.6,5.029-5.017Z" fill="#d3c6ae"/>
          <path id="Trazado_2089" data-name="Trazado 2089" d="M1222.81,223.46l-3.985,5.239-1.282-2.746,4.978-5.379Z" fill="#f2ebdd"/>
          <path id="Trazado_2090" data-name="Trazado 2090" d="M1219.1,249.79a77.049,77.049,0,0,0-.82-9.886c-1.843-10.817-3.059-13-7.138-15.265,1.042-.137-5.308-.808-11.564,5.15-.269,4.8,2.885,14.578,4.8,20Z" fill="#0f3871"/>
          <path id="Trazado_2091" data-name="Trazado 2091" d="M1209.172,224.773c-3.437-1.566-12.383,6.546-12.383,6.546v9.82c2.507,4.542,4.774-.69,5.553,2.52,2.071.725-1.264-11.045.56-9.876,3.785,2.426,1.831-1.669,4.894,1.634C1207.58,232.874,1210.783,226.988,1209.172,224.773Z" fill="#0f3871"/>
          <path id="Trazado_2092" data-name="Trazado 2092" d="M1214.9,232.987c1.219,1.765-.856,4.3.131,9.77.216,1.2.921,3.513,1.686,7.033h2.38a77.049,77.049,0,0,0-.82-9.886c-1.843-10.817-3.059-13-7.138-15.265.617-.081-1.36-.346-4.372.685C1207.382,228.354,1213.228,230.561,1214.9,232.987Z" fill="#f48baa"/>
          <path id="Trazado_2093" data-name="Trazado 2093" d="M1210.379,225.322l6.212,4.809.916-3.783-7.721-3.617Z" fill="#d3c6ae"/>
          <path id="Trazado_2094" data-name="Trazado 2094" d="M1210.379,225.322l6.079,4.2,1.113-3.369-7.916-4.028Z" fill="#f2ebdd"/>
        </g>
      </g>
    </g>
    <path id="Trazado_2095" data-name="Trazado 2095" d="M1351.748,332.619c-.01,1.349-1.831,1.891-3.29,1.841s-4.816.3-4.81-.74c.006-1.35,1.875-1.19,3.783-3.472.648-.775,2.47-2.123,3.451-1.256C1351.405,329.458,1351.75,332.149,1351.748,332.619Z" fill="#358dff"/>
    <path id="Trazado_2096" data-name="Trazado 2096" d="M1345.518,333.991c.132-.01.826-.03.844-.038a6.667,6.667,0,0,0,1.461-.074c.672-.125,1.61-.171,2.279-.306.736-.147,1.108-.666,1.633-1.186.006.1.012.182.013.232-.01,1.349-1.831,1.891-3.29,1.841s-4.816.3-4.81-.74c0-.016,0-.03,0-.044A3.956,3.956,0,0,0,1345.518,333.991Z" fill="#fff"/>
    <g id="Grupo_573" data-name="Grupo 573">
      <path id="Trazado_2097" data-name="Trazado 2097" d="M1340.413,280.767,1323.549,252.1c.037-.041.075-.081.112-.124a10.913,10.913,0,0,0,2.629-7.281,28.748,28.748,0,1,0-20.246,8.208c.607,0,1.207-.019,1.8-.053.118.11.231.223.354.328a10.923,10.923,0,0,0,7.469,2.628l17.27,29.358a1.889,1.889,0,0,0,2.58.669l4.223-2.484A1.89,1.89,0,0,0,1340.413,280.767Zm-59.288-56.734a25.055,25.055,0,1,1,24.937,25.173A25.055,25.055,0,0,1,1281.125,224.033Z" fill="#83a1b7"/>
    </g>
    <path id="Trazado_2098" data-name="Trazado 2098" d="M1340.833,271.319s9.058,2.489,12.209,2.418a2.66,2.66,0,0,0,2.87-2.514c.157-1.178-.821-1.5-2.3-1.756l-10.277-.563c-.337-.059-.648-.127-.932-.187a8.411,8.411,0,0,1-1.115-.65l-6.959-6.395c-.965-1.185-3.385-2.846-3.438-2.534a19.159,19.159,0,0,0,1.914,3l6.275,8.044A4.222,4.222,0,0,0,1340.833,271.319Z" fill="#fdc8a8"/>
    <g id="Grupo_575" data-name="Grupo 575">
      <path id="Trazado_2099" data-name="Trazado 2099" d="M1341.381,274.679l-19.865-33.771c-.1.148-.2.3-.311.437a6.951,6.951,0,0,1-4.566,2.538,7.252,7.252,0,0,1-2.761,1.139l20.031,34.053a1.891,1.891,0,0,0,2.58.669l4.223-2.485A1.889,1.889,0,0,0,1341.381,274.679Z" fill="#0f3871"/>
      <path id="Trazado_2100" data-name="Trazado 2100" d="M1333.081,273.03c-2.883-4.068-9.361-14.874-10.322-18.123-1-3.371,1.076-4.091,3.429-6.056l-4.672-7.943c-.1.148-.2.3-.311.437a6.951,6.951,0,0,1-4.566,2.538,7.252,7.252,0,0,1-2.761,1.139l20.031,34.053a1.891,1.891,0,0,0,2.58.669l4.223-2.485a1.872,1.872,0,0,0,.857-1.123C1335.828,277.635,1336.241,277.489,1333.081,273.03Z" fill="#22a2ff"/>
      <path id="Trazado_2101" data-name="Trazado 2101" d="M1326.631,235.156a8,8,0,0,1-3.02,4.282c-5,3.492-10.591,6.1-16.716,4.961a10.964,10.964,0,0,0,19.736-9.243Z" fill="#22a2ff"/>
      <path id="Trazado_2102" data-name="Trazado 2102" d="M1326.68,235.235a8,8,0,0,1-3.019,4.282c-5,3.492-10.591,6.1-16.716,4.961a10.963,10.963,0,0,0,19.735-9.243Z" fill="#0f3871"/>
      <g id="Grupo_574" data-name="Grupo 574">
        <path id="Trazado_2103" data-name="Trazado 2103" d="M1335.9,218.2a28.75,28.75,0,1,0-28.885,28.615A28.75,28.75,0,0,0,1335.9,218.2Zm-28.868,24.919a25.055,25.055,0,1,1,25.173-24.937A25.054,25.054,0,0,1,1307.03,243.118Z" fill="#0f3871"/>
        <circle id="Elipse_36" data-name="Elipse 36" cx="25.055" cy="25.055" r="25.055" transform="matrix(0.94, -0.342, 0.342, 0.94, 1275.034, 203.091)" fill="#a9e1ea" opacity="0.55"/>
      </g>
      <path id="Trazado_2104" data-name="Trazado 2104" d="M1329.051,229.912a25.1,25.1,0,0,0-.209-24.305Q1328.959,217.76,1329.051,229.912Z" fill="#fff" opacity="0.77"/>
      <path id="Trazado_2105" data-name="Trazado 2105" d="M1317.444,195.164a25.134,25.134,0,0,0-15.677-1.707c.188,16.356.3,32.712.411,49.068a25.127,25.127,0,0,0,15.609-1.952C1317.752,225.436,1317.565,210.3,1317.444,195.164Z" fill="#fff" opacity="0.77"/>
      <path id="Trazado_2106" data-name="Trazado 2106" d="M1290.891,199.441c-.447.393-.888.8-1.313,1.228a25.056,25.056,0,0,0,.235,35.433c.45.444.917.86,1.391,1.263Q1291.075,218.4,1290.891,199.441Z" fill="#fff" opacity="0.77"/>
    </g>
    <g id="Grupo_576" data-name="Grupo 576">
      <path id="Trazado_2107" data-name="Trazado 2107" d="M1352.5,278.143l3.26-4.445c.945-1.3,2.054-3.284,3.241-2.446a5.417,5.417,0,0,1,1.344,5.722,13.881,13.881,0,0,1-1.5,3.113A52.161,52.161,0,0,1,1352.5,278.143Z" fill="#358dff"/>
    </g>
    <g id="Grupo_577" data-name="Grupo 577">
      <path id="Trazado_2108" data-name="Trazado 2108" d="M1352.5,278.143l3.26-4.445c.945-1.3,2.054-3.284,3.241-2.446a5.417,5.417,0,0,1,1.344,5.722,13.881,13.881,0,0,1-1.5,3.113A52.161,52.161,0,0,1,1352.5,278.143Z" fill="#b5cee5"/>
    </g>
    <g id="Grupo_578" data-name="Grupo 578">
      <path id="Trazado_2109" data-name="Trazado 2109" d="M1332.7,274.063c-1.356,0-2.565.449-2.348,1.375l-.323-.058c.215.923,1.538,1.442,2.894,1.444l10.5.02c1.36,0,2.286-.751,2.069-1.676h0c-.218-.922-1.493-1.676-2.854-1.678Z" fill="#fdc8a8"/>
    </g>
    <g id="Grupo_579" data-name="Grupo 579">
      <path id="Trazado_2110" data-name="Trazado 2110" d="M1347.075,273.213l1.253,2.1c2.608,1.536.324,2.448.258,2.414-1.053-.516-4.745.183-4.826.254l-1.747-4.439s2.544-1,3.429-1.342l1.944-1.149C1348.271,270.716,1346.31,272.086,1347.075,273.213Z" fill="#358dff"/>
    </g>
    <g id="Grupo_580" data-name="Grupo 580">
      <path id="Trazado_2111" data-name="Trazado 2111" d="M1331.035,274.89a2.132,2.132,0,0,1,1.481-.341c-.245-.5-.695-.834-.889-1.191l-5.521-8.046a30.456,30.456,0,0,1-2.413-3.855s-1.426,1.151-.793,2.392l6.345,10.5a13.24,13.24,0,0,0,1,1.485A2.581,2.581,0,0,1,1331.035,274.89Z" fill="#fdc8a8"/>
    </g>
    <g id="Grupo_599" data-name="Grupo 599">
      <g id="Grupo_581" data-name="Grupo 581">
        <path id="Trazado_2112" data-name="Trazado 2112" d="M1350.955,313.653c.038,1.53-.444,2.725-1.536,2.7l.248-.073c-1.094-.018-2.007-1.277-2.044-2.808,0,0-.566-5.7-.1-21.358l7.738.206c1.092.016-2.14,4.1-2.1,5.635Z" fill="#fdc8a8"/>
      </g>
      <g id="Grupo_582" data-name="Grupo 582">
        <path id="Trazado_2113" data-name="Trazado 2113" d="M1375.8,324.75c.858,1.044-.2,2.623-1.35,3.516s-3.512,3.31-4.173,2.506c-.856-1.041.681-2.113.69-5.086,0-1.01.541-3.211,1.85-3.172C1373.519,322.536,1375.505,324.387,1375.8,324.75Z" fill="#358dff"/>
      </g>
      <g id="Grupo_583" data-name="Grupo 583">
        <path id="Trazado_2114" data-name="Trazado 2114" d="M1371.892,329.787c.1-.092.614-.552.622-.569a6.619,6.619,0,0,0,1.077-.99c.437-.526,1.128-1.161,1.557-1.694a3.25,3.25,0,0,0,.5-1.956c.066.071.125.132.156.172.858,1.044-.2,2.623-1.35,3.516s-3.512,3.31-4.173,2.506c-.01-.011-.015-.024-.023-.033A3.973,3.973,0,0,0,1371.892,329.787Z" fill="#fff"/>
      </g>
      <g id="Grupo_584" data-name="Grupo 584">
        <path id="Trazado_2115" data-name="Trazado 2115" d="M1348.7,330.318a2.667,2.667,0,0,0,.672.137,1.459,1.459,0,0,0,1.157-.379l.912-11.72-.589-4.312c.077-1.521.365-3-.726-3.173l-.493-.079c-1.088-.176-2.033.915-2.106,2.436l1.136,15.748A4.9,4.9,0,0,0,1348.7,330.318Z" fill="#fdc8a8"/>
      </g>
      <g id="Grupo_585" data-name="Grupo 585">
        <path id="Trazado_2116" data-name="Trazado 2116" d="M1356.8,312.943c.117,1.529.353,2.776,1.44,2.7l.492-.031c1.087-.075,1.963-1.287,1.844-2.815l-.806-15.75c-.118-1.531-.156-6.283-1.243-6.212l-3.937,1.574c-1.086.074-4.623,5.722-.56,5.816Z" fill="#fdc8a8"/>
      </g>
      <g id="Grupo_586" data-name="Grupo 586">
        <path id="Trazado_2117" data-name="Trazado 2117" d="M1371.71,324.752a3.968,3.968,0,0,0,1.191-.154c.351-.119.93-.436.739-.909a5.425,5.425,0,0,0-.26-.516l-9.161-7.672s-6.223-2.64-6.667-2.481l-.332.368c-.741.8.084,2.128,1.276,3.092l13.158,8.221C1371.674,324.717,1371.69,324.735,1371.71,324.752Z" fill="#fdc8a8"/>
      </g>
      <path id="Trazado_2118" data-name="Trazado 2118" d="M1373.456,323.313c-1.234,2.814-15.021-7.972-15.225-8.841-.9-3.813-1.562-6.179,2.115-6.237l-.574-11.186c-.118-1.531-.156-6.283-1.243-6.212l-3.937,1.574c-1.086.074-4.623,5.722-.56,5.816l2.77,14.716a11.516,11.516,0,0,0,.14,1.174,3.626,3.626,0,0,0,1.554,2.363l13.158,8.221c.02.016.036.034.056.051a3.968,3.968,0,0,0,1.191-.154c.351-.119.93-.436.739-.909C1373.587,323.56,1373.522,323.437,1373.456,323.313Z" fill="#fdc8a8"/>
      <g id="Grupo_587" data-name="Grupo 587">
        <path id="Trazado_2119" data-name="Trazado 2119" d="M1348.354,330.171a2.61,2.61,0,0,0,1.017.284c.06.005.114,0,.17,0a1.274,1.274,0,0,0-.064-.761c-.628-1.6-.88-8.219-.934-17.5-.016-2.427.478-3.616,2.673-3.723,3.216-.156,7.316-14.135,8.341-14.732-.142-1.659-.39-2.947-1.028-2.9l-3.69,1.475-7.311-.2c-.378,12.651-.085,18.8.042,20.7-.019.137-.036.274-.044.416l.712,15.787A2.912,2.912,0,0,0,1348.354,330.171Z" fill="#fdc8a8"/>
      </g>
      <g id="Grupo_588" data-name="Grupo 588">
        <path id="Trazado_2120" data-name="Trazado 2120" d="M1345.31,307.017c-.472,2.2,17.493,1.079,16.887-1.03-2.661-9.237-2.782-28.838-4.255-34.93-.276-1.14-1.971-1.421-3.874-2.293a6.914,6.914,0,0,0-4.3.151c-2.485.828-4.031.719-4.251,2.943C1344.409,283.234,1348.19,293.694,1345.31,307.017Z" fill="#358dff"/>
      </g>
      <g id="Grupo_589" data-name="Grupo 589">
        <path id="Trazado_2121" data-name="Trazado 2121" d="M1362.2,305.987c-2.661-9.237-2.782-28.838-4.255-34.93-.276-1.14-1.971-1.421-3.874-2.293a5.729,5.729,0,0,0-3.085-.147c0,.155,0,.309-.011.464,1.39.133,1.781,1.732,3.544,1.907.515.052,2.843.6,3.3,1.67.578,1.353.449,3.7.6,6.148.625,9.885,1.824,24.528,1.086,25.765-2.28,3.82-9.325,2.065-13.533,3.136C1349.172,308.911,1362.726,307.823,1362.2,305.987Z" fill="#b5cee5"/>
      </g>
      <g id="Grupo_590" data-name="Grupo 590">
        <path id="Trazado_2122" data-name="Trazado 2122" d="M1354.1,270.2c.062.71-.787,1.36-1.893,1.45h0c-1.106.089-2.054-.417-2.111-1.13l-.458-5.373c-.061-.711.788-1.361,1.9-1.451h0c1.1-.086,2.052.417,2.115,1.129Z" fill="#fdc8a8"/>
      </g>
      <g id="Grupo_591" data-name="Grupo 591">
        <path id="Trazado_2123" data-name="Trazado 2123" d="M1353.993,268.983l-.34-4.153c-.063-.712-1.011-1.215-2.115-1.129s-1.956.74-1.9,1.451l.478,5.6A3.878,3.878,0,0,0,1353.993,268.983Z" fill="#e5a67c"/>
      </g>
      <g id="Grupo_595" data-name="Grupo 595">
        <g id="Grupo_594" data-name="Grupo 594">
          <g id="Grupo_593" data-name="Grupo 593">
            <g id="Grupo_592" data-name="Grupo 592">
              <path id="Trazado_2124" data-name="Trazado 2124" d="M1349.7,276.794c-7.849-1.754-3.134-20.605-1.431-21.343.853-.968,4.092-3.9,8.169-.171,1.972,1.8,4.735,14.738-.642,15.794C1350.764,272.062,1352.461,277.41,1349.7,276.794Z" fill="#0f3871"/>
            </g>
          </g>
        </g>
      </g>
      <g id="Grupo_598" data-name="Grupo 598">
        <g id="Grupo_597" data-name="Grupo 597">
          <g id="Grupo_596" data-name="Grupo 596">
            <path id="Trazado_2125" data-name="Trazado 2125" d="M1356.434,255.28c-1.987-1.815-3.771-2.046-5.182-1.7,4.439.194,6.718,5.25,6.173,10.186a9.02,9.02,0,0,1-3.673,6.442,10.065,10.065,0,0,0-2.09,1.775,11.448,11.448,0,0,1-.653,2.354,3.785,3.785,0,0,1-1.8,2.307,4.823,4.823,0,0,0,.486.147c2.765.616,1.068-4.732,6.1-5.72C1361.169,270.018,1358.406,257.083,1356.434,255.28Z" fill="#22a2ff"/>
          </g>
        </g>
      </g>
    </g>
    <path id="Trazado_2126" data-name="Trazado 2126" d="M1133.34,134.413a8.407,8.407,0,0,0-1.066-.07C1130.984,134.343,1131.5,134.369,1133.34,134.413Z" fill="#aacaf9"/>
    <path id="Trazado_2127" data-name="Trazado 2127" d="M1340.754,334.185a182.565,182.565,0,0,0,19.763.583c9.637-.1,27.342-.4,23.579-1.124-4.484-.866-11.308-1.393-26.4-1.393S1337.487,333.8,1340.754,334.185Z" fill="url(#linear-gradient)"/>
    <path id="Trazado_2128" data-name="Trazado 2128" d="M1365.036,332.264c1.38,2.863,4.369,5.36,6.559,3.608,2.067-1.654,1.9-6.421.391-9.169a13.886,13.886,0,0,0-10.481-6.939C1363.206,323.292,1363.656,329.4,1365.036,332.264Z" fill="#ffaa21"/>
    <path id="Trazado_2129" data-name="Trazado 2129" d="M1371.595,335.872c2.067-1.654,1.9-6.421.391-9.169a13.886,13.886,0,0,0-10.481-6.939C1370.365,327.066,1371.595,335.872,1371.595,335.872Z" fill="#ffaa21"/>
    <g id="Grupo_601" data-name="Grupo 601">
      <g id="Grupo_600" data-name="Grupo 600">
        <path id="Trazado_2130" data-name="Trazado 2130" d="M1371.312,334.25l-.181-.615c-.056-.2-.128-.44-.227-.711s-.2-.59-.334-.92c-.067-.168-.136-.343-.209-.525s-.161-.363-.245-.554c-.164-.388-.369-.775-.574-1.192-.43-.816-.937-1.677-1.506-2.537a46.683,46.683,0,0,0-3.136-4.107l-1.371-1.6s.553.559,1.421,1.512a34.85,34.85,0,0,1,3.2,4.043,25.649,25.649,0,0,1,1.5,2.581c.2.426.4.824.557,1.221.081.2.164.383.235.569l.2.538c.131.339.221.664.309.943s.155.524.2.727Z" fill="#ffaa21"/>
      </g>
    </g>
    <path id="Trazado_2131" data-name="Trazado 2131" d="M1368.658,328.526c.263,6.166,2.853,12.311,6.7,9.843,3.635-2.331,6.02-11.679,5.519-17.677-1.177-14.119-10.07-18.01-10.07-18.01C1371.133,310.279,1368.4,322.359,1368.658,328.526Z" fill="#ffaa21"/>
    <path id="Trazado_2132" data-name="Trazado 2132" d="M1384.216,332.087c-1.879,2.564-5.273,4.476-7.107,2.354-1.731-2-.7-6.66,1.285-9.087a13.883,13.883,0,0,1,11.569-4.914C1387.648,323.6,1386.094,329.523,1384.216,332.087Z" fill="#ffaa21"/>
    <path id="Trazado_2133" data-name="Trazado 2133" d="M1377.109,334.441c-1.731-2-.7-6.66,1.285-9.087a13.883,13.883,0,0,1,11.569-4.914C1379.921,326.006,1377.109,334.441,1377.109,334.441Z" fill="#ffaa21"/>
    <g id="Grupo_603" data-name="Grupo 603">
      <g id="Grupo_602" data-name="Grupo 602">
        <path id="Trazado_2134" data-name="Trazado 2134" d="M1377.682,332.9l.291-.571c.091-.186.206-.41.352-.659s.3-.544.5-.844c.095-.152.195-.312.3-.478s.224-.327.342-.5c.232-.351.5-.7.781-1.068.572-.723,1.227-1.478,1.943-2.22a46.527,46.527,0,0,1,3.832-3.467l1.639-1.323s-.646.449-1.673,1.228a34.954,34.954,0,0,0-3.886,3.392,25.527,25.527,0,0,0-1.945,2.265c-.275.383-.544.738-.771,1.1-.115.178-.23.346-.334.516l-.291.494c-.19.309-.338.612-.475.87s-.248.487-.333.678Z" fill="#ffaa21"/>
      </g>
    </g>
    <path id="Trazado_2135" data-name="Trazado 2135" d="M1375.361,338.369c3.635-2.331,6.02-11.679,5.519-17.677-1.177-14.119-10.07-18.01-10.07-18.01A69.084,69.084,0,0,1,1375.361,338.369Z" fill="#ffaa21"/>
    <path id="Trazado_2136" data-name="Trazado 2136" d="M1375.361,338.369c3.635-2.331,6.02-11.679,5.519-17.677-1.177-14.119-10.07-18.01-10.07-18.01A69.084,69.084,0,0,1,1375.361,338.369Z" fill="#ffaa21"/>
    <g id="Grupo_605" data-name="Grupo 605">
      <g id="Grupo_604" data-name="Grupo 604">
        <path id="Trazado_2137" data-name="Trazado 2137" d="M1375.872,335.09s.034-.454.1-1.274c.034-.411.07-.912.088-1.482s.063-1.232.06-1.935c0-.354.007-.725.011-1.111s-.015-.775-.022-1.183c-.006-.825-.065-1.668-.109-2.567-.124-1.772-.323-3.667-.607-5.585-.581-3.824-1.342-7.037-1.906-9.341-.581-2.287-.94-3.7-.94-3.7s.427,1.326,1.055,3.554a76.991,76.991,0,0,1,2.03,9.245c.286,1.933.472,3.862.574,5.668.033.917.079,1.777.071,2.618,0,.417.008.815,0,1.207s-.024.771-.035,1.132c-.011.716-.069,1.387-.1,1.967s-.081,1.086-.127,1.5Z" fill="#ffaa21"/>
      </g>
    </g>
    <path id="Trazado_2138" data-name="Trazado 2138" d="M1388.218,339.924c-.057-2.5.608-4.038-2.4-4.652-.888-.181-2.149.957-4.054.12-2.714-2.706-2.709-4.662-5.572-4.662-3.322,0-5.33,3.314-5.33,7.116a7.934,7.934,0,0,0,.035,2.078Z" fill="#09f"/>
    <g id="Grupo_636" data-name="Grupo 636">
      <path id="Trazado_2139" data-name="Trazado 2139" d="M1161.373,369.937c5.335.491,15.7.775,28.927.666,14.1-.116,40.02-.453,34.512-1.283-6.563-.99-16.552-1.592-38.642-1.592S1156.591,369.5,1161.373,369.937Z" fill="url(#linear-gradient-6)"/>
      <path id="Trazado_2140" data-name="Trazado 2140" d="M1168.751,366.979s-1.981,1.573-1.975.625c.066-8.646.465-21.383.319-27.487-.039-1.647-.46-26.755,4.805-27.423,4.8-.61,2.85-.042,4.189,2.846,1.121,2.415-2.663,23.152-3.535,25.164-.292.669-.881,4.124-1.023,4.841A202.74,202.74,0,0,0,1168.751,366.979Z" fill="#fdc8a8"/>
      <path id="Trazado_2141" data-name="Trazado 2141" d="M1175.887,366.939s-1.835.585-1.913-.358c-.695-8.619-.276-20.484-.959-26.55-.183-1.637-6.257-26.4-1.07-27.523,4.726-1.03,5.294-.509,6.882,2.251,1.328,2.307.366,23.208-.325,25.29-.233.691-.517,4.184-.594,4.912C1176.814,355.263,1175.887,366.939,1175.887,366.939Z" fill="#fdc8a8"/>
      <path id="Trazado_2142" data-name="Trazado 2142" d="M1166.972,354.194c.315-.309.623-.625.943-.928.853-.808,1.742-1.578,2.652-2.325.284-1.744.6-3.559.964-5.4.142-.717.731-4.172,1.023-4.841.872-2.012,4.656-22.749,3.535-25.164-1.339-2.888.609-3.456-4.189-2.846-5.265.668-4.844,25.776-4.805,27.423C1167.179,343.641,1167.082,348.8,1166.972,354.194Z" fill="#fdc8a8"/>
      <path id="Trazado_2143" data-name="Trazado 2143" d="M1173.387,346.456l.4-.283c1.43-1,2.873-1.986,4.289-3.007a24.224,24.224,0,0,1,.423-3.117c.691-2.082,1.653-22.983.325-25.29-1.588-2.76-2.156-3.281-6.882-2.251-5.187,1.128.887,25.886,1.07,27.523C1173.215,341.809,1173.32,344.014,1173.387,346.456Z" fill="#fdc8a8"/>
      <path id="Trazado_2144" data-name="Trazado 2144" d="M1180.356,317.835c.1.39.122,3.074.122,3.074-1.512.084-1.6-.415-1.6-.415l-3.784-11.5c-.408-1.795.486-3.317,1.995-3.4h0c1.512-.081,2.021,1.649,2.43,3.444Z" fill="#fdc8a8"/>
      <path id="Trazado_2145" data-name="Trazado 2145" d="M1181.928,321.466c2.738,2.455-1.4,4.442-2.891,2.644-.552-.665-1.208-6.809-1.208-6.809l2.452-.254S1181.064,320.691,1181.928,321.466Z" fill="#fdc8a8"/>
      <path id="Trazado_2146" data-name="Trazado 2146" d="M1179.134,311.623c-.885-3.748-.1-7.418.533-10.4.859-4.068,1.362-6.867,1.362-6.867a7.028,7.028,0,0,0-2.936-6.234c-1.19-.971-2.382-2.7-5-2.7-6.974,0-6.619,4.556-6.619,9.422,0,0-.216,11.609-.258,14.5-.09,6.159-2.412,13.745-1.313,30.787.179,2.774,10.35-.492,14.3-.663C1179.58,339.448,1181.334,320.937,1179.134,311.623Z" fill="#d33c59"/>
      <path id="Trazado_2147" data-name="Trazado 2147" d="M1195.91,304.543c.416.147-.843-.444-.843-.444.138-1.63.006-1.8.006-1.8l-12.613-5.354c-1.911-.644-3.573.158-3.714,1.789h0c-.139,1.629,1.7,2.375,3.614,3.016Z" fill="#fdc8a8"/>
      <path id="Trazado_2148" data-name="Trazado 2148" d="M1167.014,287.146a4.664,4.664,0,0,0,.631,6.1l13.075,8.171a13,13,0,0,1,2.574-4.376,15.319,15.319,0,0,1-2.287-2.286l-9.272-7.166C1170.062,286.252,1168.341,285.114,1167.014,287.146Z" fill="#d33c59"/>
      <path id="Trazado_2149" data-name="Trazado 2149" d="M1166.35,366.277c0,.784-1.736,3.138,1.439,3.138,7.835,0,7.205.248,6.8-.464-.942-1.68-4.957-.4-5.291-2.9C1169.3,366.048,1166.35,365.491,1166.35,366.277Z" fill="#0f3871"/>
      <path id="Trazado_2150" data-name="Trazado 2150" d="M1172.989,366.277c0,.784-1.735,3.138,1.439,3.138,7.835,0,7.206.248,6.8-.464-.942-1.68-4.38-.4-4.713-2.9C1176.519,366.048,1172.989,365.491,1172.989,366.277Z" fill="#0f3871"/>
      <path id="Trazado_2151" data-name="Trazado 2151" d="M1170.256,285.5c-.414,1.284-.325,2.191,1.581,2.167s6.651.807,4.472-.916c-3.135-2.479-.059-8.393-4.2-8.341C1168.46,278.456,1171.707,281.006,1170.256,285.5Z" fill="#fdc8a8"/>
      <path id="Trazado_2152" data-name="Trazado 2152" d="M1171.394,287.673c.05-.049.81.023.746-.005-2.064-.89-.188-4.707,1.419-5.932.309-.3.355,1.171.7.934-.265-2.1.548-4.293-2.149-4.259-3.652.045-.5,2.065-1.856,7.09C1169.773,287.294,1170.3,287.47,1171.394,287.673Z" fill="#fdc8a8"/>
      <g id="Grupo_606" data-name="Grupo 606">
        <path id="Trazado_2153" data-name="Trazado 2153" d="M1168.079,274.984a19.26,19.26,0,0,0,.86,6.568c.513,1.41,4.07,2.731,4.235,2.721,1.312-.063,4.506-2.057,4.724-3.13a26.13,26.13,0,0,0,.493-7.517c-.314-3.855-3.1-6.65-6.226-6.244S1168.184,270.642,1168.079,274.984Z" fill="#fdc9a3"/>
      </g>
      <g id="Grupo_607" data-name="Grupo 607">
        <path id="Trazado_2154" data-name="Trazado 2154" d="M1178.391,273.626c-.314-3.855-3.1-6.65-6.226-6.244a3.786,3.786,0,0,0-2.7,1.519,7.141,7.141,0,0,1,1.6.507,16.361,16.361,0,0,1,3.643,2.6.882.882,0,0,1,.322.97c.041.048.631,0,.666.057a10.657,10.657,0,0,1,1.218,1.959c.849,2.262.861,5.256.474,6a6.621,6.621,0,0,1-1.641,2.064,7.276,7.276,0,0,1-2.579,1.219c1.312-.063,4.506-2.057,4.724-3.13A26.13,26.13,0,0,0,1178.391,273.626Z" fill="#fdc8a8"/>
      </g>
      <path id="Trazado_2155" data-name="Trazado 2155" d="M1166.62,268.525a2.968,2.968,0,1,0,3.045-2.889A2.968,2.968,0,0,0,1166.62,268.525Z" fill="#ffaa21"/>
      <g id="Grupo_610" data-name="Grupo 610">
        <g id="Grupo_609" data-name="Grupo 609">
          <g id="Grupo_608" data-name="Grupo 608">
            <path id="Trazado_2156" data-name="Trazado 2156" d="M1178.021,277.572c.036.46-.081,2.851-.074,3.327.493-.338.654,4.764,1.138,4.409,1.761-9.679-.492-16.785-1.562-17.1-1.1-.928-5.217-3.681-9.9.474-1.123,1-1.719,4.827-1.953,8.761.843,3.486,2.148,3.651,3.441,4.044-1.879-3.744,1.4-8.028,3.489-8.239a12.742,12.742,0,0,0,3.41-.329A8.34,8.34,0,0,1,1178.021,277.572Z" fill="#ffaa21"/>
          </g>
        </g>
      </g>
      <path id="Trazado_2157" data-name="Trazado 2157" d="M1214.05,369.452c-1.985.107-.828,1.836,36,1.334,2.526-.035,6.808.5,9.66.382,19.641-.813,38.494.183,38.494-1.439,0-1.426-34.311-3.41-48.563-1.522C1243.851,368.974,1218.773,369.2,1214.05,369.452Z" fill="url(#linear-gradient)"/>
      <g id="Grupo_612" data-name="Grupo 612">
        <g id="Grupo_611" data-name="Grupo 611">
          <path id="Trazado_2158" data-name="Trazado 2158" d="M1224.872,340.276c-.106,2.112,1.273.685,2.76,1.1l.972,2.665c1.485.41,2.537-3.39,3.107-5.306l8.011-19.316c.569-1.915.163-5.411-1.324-5.822l-2.873,1.24c-1.485-.411-5.621.13-6.191,2.047Z" fill="#0f3871"/>
        </g>
      </g>
      <path id="Trazado_2159" data-name="Trazado 2159" d="M1224.427,368.158l2.235.3.541-3.468-2.234-.3Z" fill="#fdc8a8"/>
      <path id="Trazado_2160" data-name="Trazado 2160" d="M1227.2,364.992l-.188,1.2a.879.879,0,0,0-.415-.086c-.6.022-1.117.038-1.383.619a1.84,1.84,0,0,0,.055,1.08c.032.159.064.316.092.475l-.937-.127.542-3.466Z" fill="#fdc8a8"/>
      <path id="Trazado_2161" data-name="Trazado 2161" d="M1216.772,369.3c-.027-.039-.007-.14.015-.415.032-.389,2.791-.781,4.492-.979a3.374,3.374,0,0,0,1.253-.4c.229-.191.09-.183.236-.109.448.226.848.021,1.228.049l-.312,2.915c-2.281-.168-5.78-.453-6.524-.512-.459-.035-.438-.222-.419-.454A.372.372,0,0,1,1216.772,369.3Z" fill="#0f3871"/>
      <path id="Trazado_2162" data-name="Trazado 2162" d="M1216.772,369.3c-.027-.039-.007-.14.015-.415.032-.389,2.791-.781,4.492-.979a3.374,3.374,0,0,0,1.253-.4c.229-.191.09-.183.236-.109.448.226.769.015,1.228.049l-.312,2.915c-2.281-.168-5.78-.453-6.524-.512-.459-.035-.438-.222-.419-.454A.372.372,0,0,1,1216.772,369.3Z" fill="#c591a5"/>
      <path id="Trazado_2163" data-name="Trazado 2163" d="M1223.742,369.823l-.059.537c-2.281-.167-5.78-.453-6.523-.511-.461-.035-.438-.222-.419-.454a.462.462,0,0,1,.027-.088Z" fill="#0f3871"/>
      <path id="Trazado_2164" data-name="Trazado 2164" d="M1223.738,369.848l-.054.513c-2.281-.168-5.78-.453-6.524-.512-.459-.035-.438-.222-.419-.454a.258.258,0,0,1,.021-.064Z" fill="#db967f"/>
      <path id="Trazado_2165" data-name="Trazado 2165" d="M1218.045,369.491c-.021.233-.043.419.418.456,1.094.085,8.166.665,8.523.63.2-.02.472-.155.491-.387h0a.434.434,0,0,0-.418-.456l-8.523-.631a.447.447,0,0,0-.491.388Z" fill="#0f3871"/>
      <g id="Grupo_614" data-name="Grupo 614">
        <g id="Grupo_613" data-name="Grupo 613">
          <path id="Trazado_2166" data-name="Trazado 2166" d="M1227.492,370.02c0,.15-2.916-.11-9.315-.6-.153-.012-.124-.014-.089-.448.035-.39,2.794-.782,4.492-.977a3.38,3.38,0,0,0,1.253-.4c.23-.191.091-.183.237-.109,2.79,1.4,2.726-.136,3.178.074C1227.784,367.82,1227.487,369.759,1227.492,370.02Z" fill="#0f3871"/>
        </g>
      </g>
      <path id="Trazado_2167" data-name="Trazado 2167" d="M1223.532,368.531c.011.027.058.038.106.023h0c.046-.015.076-.053.064-.081l-.287-.737c-.01-.029-.058-.04-.1-.025h0c-.048.015-.076.053-.064.084Z" fill="#0f3871"/>
      <path id="Trazado_2168" data-name="Trazado 2168" d="M1222.856,368.494c.005.022.05.033.1.022h0c.048-.011.083-.039.077-.065l-.16-.6c-.005-.024-.05-.034-.1-.024h0c-.048.011-.082.041-.076.064Z" fill="#0f3871"/>
      <path id="Trazado_2169" data-name="Trazado 2169" d="M1222.293,368.341c0,.014.044.019.093.01h0c.048-.01.086-.03.084-.044l-.086-.379c0-.015-.045-.02-.094-.011h0c-.048.009-.086.029-.083.045Z" fill="#0f3871"/>
      <g id="Grupo_616" data-name="Grupo 616">
        <g id="Grupo_615" data-name="Grupo 615">
          <path id="Trazado_2170" data-name="Trazado 2170" d="M1227.884,337.617l.7-.017c1.557-.04,2.4,1.008,2.283,3.209l-3.392,23.226-.336,1.94-3.02-.467.637-24.42A3.334,3.334,0,0,1,1227.884,337.617Z" fill="#0f3871"/>
        </g>
      </g>
      <g id="Grupo_618" data-name="Grupo 618">
        <g id="Grupo_617" data-name="Grupo 617">
          <path id="Trazado_2171" data-name="Trazado 2171" d="M1237.716,341.9c-.084,2.007,1.267.037,2.916.117l.747.036c1.649.08,2.7-1.512,2.782-3.521l1.966-20.475c.083-2.006-.03-5.615-1.68-5.7l-2.65,1.844c-1.646-.08-5.791,1.351-5.874,3.36Z" fill="#0f3871"/>
        </g>
      </g>
      <path id="Trazado_2172" data-name="Trazado 2172" d="M1239.822,367.831l2.253.138.25-3.5-2.253-.139Z" fill="#fdc8a8"/>
      <path id="Trazado_2173" data-name="Trazado 2173" d="M1242.324,364.473l-.087,1.214a.88.88,0,0,0-.421-.055c-.592.064-1.11.119-1.328.717a1.864,1.864,0,0,0,.147,1.074c.046.155.091.309.132.466l-.945-.059.249-3.5Z" fill="#fdc8a8"/>
      <g id="Grupo_621" data-name="Grupo 621">
        <path id="Trazado_2174" data-name="Trazado 2174" d="M1247.557,369.708a1.452,1.452,0,0,0,.047-.413c.027-.389-2.228-1.02-3.626-1.364a2.462,2.462,0,0,1-.994-.5c-.163-.21-.049-.189-.181-.129-.409.184-.715-.054-1.037-.06l-.157,2.92c1.938.034,4.911.057,5.542.064.392,0,.4-.182.417-.414A.414.414,0,0,0,1247.557,369.708Z" fill="#0f3871"/>
        <path id="Trazado_2175" data-name="Trazado 2175" d="M1247.557,369.708a1.452,1.452,0,0,0,.047-.413c.027-.389-2.228-1.02-3.626-1.364a2.462,2.462,0,0,1-.994-.5c-.163-.21-.049-.189-.181-.129-.409.184-.647-.053-1.037-.06l-.157,2.92c1.938.034,4.911.057,5.542.064.392,0,.4-.182.417-.414A.414.414,0,0,0,1247.557,369.708Z" fill="#c591a5"/>
        <path id="Trazado_2176" data-name="Trazado 2176" d="M1241.639,369.62l-.028.538c1.936.035,4.91.058,5.541.065.391,0,.4-.182.416-.414a.337.337,0,0,0-.01-.091Z" fill="#0f3871"/>
        <path id="Trazado_2177" data-name="Trazado 2177" d="M1241.637,369.646l-.028.513c1.938.034,4.911.057,5.542.064.392,0,.4-.182.417-.414a.239.239,0,0,0-.008-.066Z" fill="#db967f"/>
        <path id="Trazado_2178" data-name="Trazado 2178" d="M1245.732,369.775c-.016.234-.023.422-.358.418-.792-.006-5.916-.013-6.167-.079a.418.418,0,0,1-.3-.425h0a.412.412,0,0,1,.358-.418l6.167.08c.182,0,.317.191.3.424Z" fill="#0f3871"/>
        <g id="Grupo_620" data-name="Grupo 620">
          <g id="Grupo_619" data-name="Grupo 619">
            <path id="Trazado_2179" data-name="Trazado 2179" d="M1238.918,369.519c-.022.15,2.095.132,6.729.18.109,0,.089,0,.118-.437.027-.388-1.892-1.007-3.08-1.343a1.945,1.945,0,0,1-.844-.5c-.14-.21-.041-.19-.155-.13-2.173,1.165-1.93-.36-2.279-.188C1238.993,367.312,1238.955,369.26,1238.918,369.519Z" fill="#0f3871"/>
          </g>
        </g>
        <path id="Trazado_2180" data-name="Trazado 2180" d="M1241.937,368.369a.053.053,0,0,1-.079.014h0a.078.078,0,0,1-.036-.087l.3-.706a.054.054,0,0,1,.079-.018h0a.078.078,0,0,1,.036.088Z" fill="#0f3871"/>
        <path id="Trazado_2181" data-name="Trazado 2181" d="M1242.606,368.467c-.008.023-.04.029-.074.014h0c-.033-.014-.054-.046-.046-.068l.191-.584c.006-.023.04-.031.073-.015h0c.034.015.054.046.046.07Z" fill="#0f3871"/>
        <path id="Trazado_2182" data-name="Trazado 2182" d="M1243.174,368.531c0,.014-.034.016-.068,0h0c-.034-.013-.059-.036-.055-.05l.11-.369c0-.014.036-.017.069,0h0c.034.013.058.036.054.051Z" fill="#0f3871"/>
        <path id="Trazado_2183" data-name="Trazado 2183" d="M1242.182,367.667a.052.052,0,0,1-.06-.055h0a.091.091,0,0,1,.073-.073l.92-.121a.05.05,0,0,1,.062.053h0a.087.087,0,0,1-.073.074Z" fill="#0f3871"/>
        <path id="Trazado_2184" data-name="Trazado 2184" d="M1242.734,367.924a.048.048,0,0,1-.057-.052h0a.073.073,0,0,1,.057-.072l.79-.126a.051.051,0,0,1,.057.054h0a.074.074,0,0,1-.057.07Z" fill="#0f3871"/>
        <path id="Trazado_2185" data-name="Trazado 2185" d="M1243.22,368.2a.049.049,0,0,1-.064-.043h0a.069.069,0,0,1,.045-.078l.76-.235a.052.052,0,0,1,.066.045h0a.072.072,0,0,1-.045.078Z" fill="#0f3871"/>
      </g>
      <g id="Grupo_623" data-name="Grupo 623">
        <g id="Grupo_622" data-name="Grupo 622">
          <path id="Trazado_2186" data-name="Trazado 2186" d="M1240.655,337.131l.748-.066c1.648-.153,2.634.83,2.709,3.032l-1.533,23.4-.184,1.96-3.247-.246-1.5-24.393A3.345,3.345,0,0,1,1240.655,337.131Z" fill="#0f3871"/>
        </g>
      </g>
      <path id="Trazado_2187" data-name="Trazado 2187" d="M1235.923,319.8c.162.081,1.13,8.262,1.187,9.736.094,2.41,2.371,31.907,2.851,35.739l-.813-.062-1.432-23.315a5.107,5.107,0,0,1-.065-1.078L1236.577,327Z" fill="#f48baa"/>
      <path id="Trazado_2188" data-name="Trazado 2188" d="M1235.923,319.8l.688,7.116-4.9,11.816c-.231.779-.544,1.868-.933,2.861-.022-.947,1.847-6.505,3.9-11.871C1236.442,325.1,1235.142,320.3,1235.923,319.8Z" fill="#f48baa"/>
      <path id="Trazado_2189" data-name="Trazado 2189" d="M1224.761,341.088a4.9,4.9,0,0,1,.111-.808v0l4.462-23.4c.57-1.917,4.706-2.458,6.191-2.047l2.873-1.24a1.929,1.929,0,0,1,1.126,1.259,6.542,6.542,0,0,1,2.262-.453l.747.033c1.139.051,2.9,2.62,3.568,3.9l-.116.644s-5.494.2-8.824-1.407c0,0-.165.481-3.6,1.354-2.328.592-6.3,19.333-6.639,21.2-1.276,7.089-1.376,19.3-1.424,25.5l-1.371-.109Z" fill="#f48baa"/>
      <path id="Trazado_2190" data-name="Trazado 2190" d="M1232.754,282.649l-.594,9.379,4.878,7.935,4.318-7.935v-9.655Z" fill="#f2ebdd"/>
      <path id="Trazado_2191" data-name="Trazado 2191" d="M1247.388,321.086c-2.793,2.474,1.3,4.591,2.832,2.769.567-.673,1.537-6.086,1.537-6.086l-2.792-1.07S1248.27,320.3,1247.388,321.086Z" fill="#fdc8a8"/>
      <path id="Trazado_2192" data-name="Trazado 2192" d="M1197.666,302.336c3.189-.752,3.734,2.722,1.562,2.944-.8.082-6.046-1.539-6.046-1.539l-.032-2.217S1196.66,302.573,1197.666,302.336Z" fill="#fdc8a8"/>
      <path id="Trazado_2193" data-name="Trazado 2193" d="M1200.132,301.781c-3.429-1.47-3.6,3.132-1.3,3.743.85.225,6.16-1.207,6.16-1.207l-.223-2.982S1201.215,302.246,1200.132,301.781Z" fill="#fdc8a8"/>
      <g id="Grupo_625" data-name="Grupo 625">
        <g id="Grupo_624" data-name="Grupo 624">
          <path id="Trazado_2194" data-name="Trazado 2194" d="M1204.076,301.1l17.095-2.67a5.059,5.059,0,0,0,1.695,3.378c.475,2.677-4.49,3.067-6.191,2.892l-12.636.892c-.652-.072-.937-2.477-.651-3.865C1203.579,300.8,1204.076,301.1,1204.076,301.1Z" fill="#0f3871"/>
        </g>
      </g>
      <g id="Grupo_627" data-name="Grupo 627">
        <g id="Grupo_626" data-name="Grupo 626">
          <path id="Trazado_2195" data-name="Trazado 2195" d="M1219.81,296.249l3.637-5.575c.971-1.746,2.746-7,4.7-7.692l6.242,8.877c-2.783-.407-6.195,2.963-7.1,4.6l-4.116,5.685a15.7,15.7,0,0,1-.91,1.3l-5.266-3.159A48.358,48.358,0,0,0,1219.81,296.249Z" fill="#0f3871"/>
        </g>
      </g>
      <path id="Trazado_2196" data-name="Trazado 2196" d="M1223.934,291.236c-2.227,3.39-4.339,7.564-5.516,8.134-1.264.612-6.73.57-6.783.55l6.378-1,5.434-8.251c.221-.5,1.022-2.185,1.524-3.291,1.775-3.912,2.986-4.3,2.986-4.3C1229.194,283.029,1224.679,290.1,1223.934,291.236Z" fill="#f48baa"/>
      <path id="Trazado_2197" data-name="Trazado 2197" d="M1240.97,282.214h0a12.268,12.268,0,0,1,.983,4.667c.019,1.06-4.915,13.083-4.915,13.083-.663.126-1.427-5.648-1.926-5.97-1.032-.663-.4-3.63-1.263-4.489-1.767-1.761-.735-4.959-1.24-7.291h0c-4.832.29-5.045,1.055-5.627,1.832a3.92,3.92,0,0,0-.949,3.01l1.773,25.672c.112,1.4.292,5.211.292,5.211.254.54,8.219-.75,9.743-2.2,0,0,.905,2.2,8.153,2.969.933.1.512-4.833.661-5.7l1.974-26.32C1247.761,283.981,1243.659,282.214,1240.97,282.214Z" fill="#0f3871"/>
      <path id="Trazado_2198" data-name="Trazado 2198" d="M1227.323,283.668c.631-.638.626-1.051,5.286-1.454a7.06,7.06,0,0,1,.118.832c-.409.293-1.257.044-1.773.11-1.657.209-3.423.051-3.314,2.012.146,2.653-.05,8.616.208,11.248.5,5.163,1.39,15.514,1.424,16.64.03,1.008.056,2.345.916,3.024,1.538,1.215,6.675-.309,7.284-.066-2.144,1.332-9.136,2.431-9.374,1.925,0,0-.18-3.813-.292-5.211l-1.773-25.672A4.06,4.06,0,0,1,1227.323,283.668Z" fill="#f48baa"/>
      <g id="Grupo_629" data-name="Grupo 629">
        <g id="Grupo_628" data-name="Grupo 628">
          <path id="Trazado_2199" data-name="Trazado 2199" d="M1246.986,284.294a12.158,12.158,0,0,1,5.317,7.276l1.143,6.446c.445,1.965.558,4.8.808,6.5l-5.11,2.9c.537-1.886.093-1.707-.066-2.33l-3.209-14.483c-.161-.833-.323-1.678-.538-2.547Z" fill="#0f3871"/>
        </g>
      </g>
      <g id="Grupo_631" data-name="Grupo 631">
        <g id="Grupo_630" data-name="Grupo 630">
          <path id="Trazado_2200" data-name="Trazado 2200" d="M1248.3,318.218l.862-13.818c2.181.518,2.869-2.783,2.869-2.783,2.959.329,2.244,5.048,1.672,6.577l-1.989,11.554c-.225.584-1.49-.046-2.9-.71C1247.865,318.6,1248.3,318.218,1248.3,318.218Z" fill="#0f3871"/>
        </g>
      </g>
      <path id="Trazado_2201" data-name="Trazado 2201" d="M1251.665,291.953c.329,2.852,2.3,11.945,2.4,11.941-.037-1.488-.614-5.878-.614-5.878l-1.143-6.446a7.231,7.231,0,0,0-.4-1.216C1250.746,289.915,1251.51,290.6,1251.665,291.953Z" fill="#f48baa"/>
      <g id="Grupo_632" data-name="Grupo 632">
        <path id="Trazado_2202" data-name="Trazado 2202" d="M1237.837,315.682c0,.035,0,.056,0,.056S1237.839,315.715,1237.837,315.682Z" fill="#fdc8a8"/>
        <path id="Trazado_2203" data-name="Trazado 2203" d="M1230.726,282.917a2.407,2.407,0,0,1,2-1.276c.9,3.719,4.348,17.84,4.486,17.756,0,0,3.355-14.165,4.225-17.756a3.363,3.363,0,0,1,1.707,1s1.065,1.359.767,1.8a5.93,5.93,0,0,1-1.287.661s1.006,1.234.883,1.55a82.211,82.211,0,0,0-6,13.354c.075,4.149.277,14.584.325,15.679-.085-1.2-1.066-15.411-1.09-15.512-1.836-7.4-5.592-11.709-6.087-12.97-.123-.315.884-1.55.884-1.55a5.969,5.969,0,0,1-1.288-.66C1229.958,284.551,1230.726,282.917,1230.726,282.917Z" fill="#0f3871"/>
        <path id="Trazado_2204" data-name="Trazado 2204" d="M1230.726,282.917a2.407,2.407,0,0,1,2-1.276c.9,3.719,4.348,17.84,4.486,17.756,0,0,3.355-14.165,4.225-17.756a3.363,3.363,0,0,1,1.707,1s1.065,1.359.767,1.8a5.93,5.93,0,0,1-1.287.661s1.006,1.234.883,1.55a82.211,82.211,0,0,0-6,13.354c.075,4.149.277,14.584.325,15.679-.085-1.2-1.066-15.411-1.09-15.512-1.836-7.4-5.592-11.709-6.087-12.97-.123-.315.884-1.55.884-1.55a5.969,5.969,0,0,1-1.288-.66C1229.958,284.551,1230.726,282.917,1230.726,282.917Z" fill="#f48baa"/>
      </g>
      <g id="Grupo_633" data-name="Grupo 633">
        <path id="Trazado_2205" data-name="Trazado 2205" d="M1240.613,283.048c-.1,1.2-1.62,1.7-3.6,1.517l-.166.327c-1.977-.176-3.5-1.292-3.4-2.49l1.08-9.041c.1-1.2,1.464-2.049,3.443-1.871h0c1.976.179,2.854,1.242,2.754,2.446Z" fill="#fdc8a8"/>
      </g>
      <path id="Trazado_2206" data-name="Trazado 2206" d="M1233.942,278.073l6.839-.715-.026,1.472a18.633,18.633,0,0,1-4.822,2.617c-.7.076-2.323-.935-2.311-1.333Z" fill="#fdc8a8"/>
      <path id="Trazado_2207" data-name="Trazado 2207" d="M1241.216,282.576l-3.275,3.921-1.11-2.274,4.4-3.375Z" fill="#bac8e2"/>
      <path id="Trazado_2208" data-name="Trazado 2208" d="M1241.216,282.576l-3.275,3.518-1.178-1.985,4.468-3.664Z" fill="#f2ebdd"/>
      <path id="Trazado_2209" data-name="Trazado 2209" d="M1232.925,282.576l3.275,4.283.721-2.737-4.01-3.275Z" fill="#bac8e2"/>
      <path id="Trazado_2210" data-name="Trazado 2210" d="M1232.925,282.576l3.275,3.518.712-2.107-4-3.543Z" fill="#f2ebdd"/>
      <path id="Trazado_2211" data-name="Trazado 2211" d="M1231.93,270.548l-.774-.339c-.641-.275-1.153.09-1.217.823-.11,1.256.93,1.331.9,2.314l1.6-.227Z" fill="#fdc8a8"/>
      <path id="Trazado_2212" data-name="Trazado 2212" d="M1240.911,272.584l.821-.2c.68-.158,1.118.291,1.055,1.025-.112,1.255-1.1,1.1-1.355,2.192l-1.473-.577Z" fill="#fdc8a8"/>
      <path id="Trazado_2213" data-name="Trazado 2213" d="M1231.118,276.445c.57,1.724,2.047,4.165,3.256,4.418,1.355.278,5.406-1.716,6.024-2.9,1.7-3.264,2.778-12.044-3.689-12.283-1.724-.062-4.67-1.032-5.588,2.137A20.472,20.472,0,0,0,1231.118,276.445Z" fill="#fdc8a8"/>
      <path id="Trazado_2214" data-name="Trazado 2214" d="M1231.118,276.445a20.472,20.472,0,0,1,0-8.625c.918-3.169,3.864-2.2,5.588-2.137a5.659,5.659,0,0,1,2.892.819,1.419,1.419,0,0,0-.18.113,12.279,12.279,0,0,0-2.787,2.877c-.059.087-.3-.249-.329-.165a7.02,7.02,0,0,1-1.919.858c-.595.088-2.878-.581-3.122.407a10.107,10.107,0,0,0-.035,5.324c1.154,3.856,3.145,4.947,3.145,4.947C1233.165,280.61,1231.688,278.169,1231.118,276.445Z" fill="#fdc8a8"/>
      <g id="Grupo_635" data-name="Grupo 635">
        <g id="Grupo_634" data-name="Grupo 634">
          <path id="Trazado_2215" data-name="Trazado 2215" d="M1235.766,263.774c-.472-.553.29,2.464-1.051,1.553-.6-.408-2.031,0-2.783,1.39l6.016,1.5c.377,0,.755,0,1.132.015a1.967,1.967,0,0,1,1.785,1.764c.5-.266,1-.529,1.493-.836C1242.087,263.807,1237.387,265.674,1235.766,263.774Z" fill="#0f3871"/>
        </g>
      </g>
      <path id="Trazado_2216" data-name="Trazado 2216" d="M1232.182,263.956c-.2.673.386,1.571,1.317,2.008a2.477,2.477,0,0,0,2.737-1.117c.2-.672-.854-.088-1.79-.977C1233.673,263.135,1232.388,263.284,1232.182,263.956Z" fill="#0f3871"/>
      <path id="Trazado_2217" data-name="Trazado 2217" d="M1232.4,269.488c-1.464-.089-1.673,2.879-1.673,2.879-.409-.055-.51-2.254-.034-4C1230.99,267.273,1233.456,269.552,1232.4,269.488Z" fill="#0f3871"/>
      <path id="Trazado_2218" data-name="Trazado 2218" d="M1232.4,269.488c-1.464-.089-1.673,2.879-1.673,2.879-.409-.055-.51-2.254-.034-4C1230.99,267.273,1233.456,269.552,1232.4,269.488Z" fill="#f48baa"/>
      <path id="Trazado_2219" data-name="Trazado 2219" d="M1230.723,267.057a2.315,2.315,0,0,0,1.7,2.7c2.83,1.109,3.49-.791,7.413.164.336.082-.256.909.817,1.835a3.349,3.349,0,0,1,.771,2.809c.57,0,.773-4.194.845-4.631.348-2.115-1.954-4.473-5.14-5.267S1231.072,264.942,1230.723,267.057Z" fill="#0f3871"/>
      <path id="Trazado_2220" data-name="Trazado 2220" d="M1241.425,273.351a43.082,43.082,0,0,0,.3-4.3c-.1-1.347-.2-2.285-1.451-3a12.791,12.791,0,0,0-3.095-.629,3.5,3.5,0,0,1-1.977-1.1,2.544,2.544,0,0,0,.371.089c.01-.471-.009-.868.189-.636,1.621,1.9,6.321.033,6.592,5.387l-.078.047a2.718,2.718,0,0,1-.014.727c-.072.437-.275,4.632-.845,4.631A9.924,9.924,0,0,0,1241.425,273.351Z" fill="#f48baa"/>
      <path id="Trazado_2221" data-name="Trazado 2221" d="M1238.389,307.308a.393.393,0,1,1-.391-.364A.377.377,0,0,1,1238.389,307.308Z" fill="#f48baa"/>
      <path id="Trazado_2222" data-name="Trazado 2222" d="M1236.315,302.019a.393.393,0,1,1-.392-.365A.378.378,0,0,1,1236.315,302.019Z" fill="#f48baa"/>
      <path id="Trazado_2223" data-name="Trazado 2223" d="M1237.078,311.993a.393.393,0,1,1-.393-.363A.379.379,0,0,1,1237.078,311.993Z" fill="#f48baa"/>
    </g>
    <g id="Grupo_643" data-name="Grupo 643">
      <path id="Trazado_2224" data-name="Trazado 2224" d="M1057.518,340.775c-1.647,2.013-4.5,3.426-5.909,1.613-1.327-1.712-.283-5.473,1.447-7.369a11.36,11.36,0,0,1,9.667-3.509C1060.694,333.99,1059.165,338.762,1057.518,340.775Z" fill="#ffaa21"/>
      <path id="Trazado_2225" data-name="Trazado 2225" d="M1051.609,342.388c-1.327-1.712-.283-5.473,1.447-7.369a11.36,11.36,0,0,1,9.667-3.509C1054.276,335.619,1051.609,342.388,1051.609,342.388Z" fill="#ffaa21"/>
      <g id="Grupo_638" data-name="Grupo 638">
        <g id="Grupo_637" data-name="Grupo 637">
          <path id="Trazado_2226" data-name="Trazado 2226" d="M1052.145,341.152l.262-.454c.083-.148.187-.326.317-.523s.268-.431.443-.668l.266-.377c.094-.13.2-.258.3-.394.2-.276.442-.546.685-.838.5-.566,1.067-1.154,1.685-1.729a37.863,37.863,0,0,1,3.282-2.665l1.4-1.009s-.547.338-1.421.93a28.719,28.719,0,0,0-3.323,2.6,21.064,21.064,0,0,0-1.688,1.765c-.242.3-.476.58-.678.865-.1.141-.2.273-.295.408l-.26.39c-.169.245-.3.486-.426.691s-.224.387-.3.539Z" fill="#ffaa21"/>
        </g>
      </g>
      <path id="Trazado_2227" data-name="Trazado 2227" d="M1055.354,341.106c-1.392,5.78-4.63,11.01-7.219,7.792-2.445-3.037-2.549-12.435-1-18,3.644-13.1,11.464-14.758,11.464-14.758C1056.884,323.26,1056.745,335.326,1055.354,341.106Z" fill="#ffaa21"/>
      <path id="Trazado_2228" data-name="Trazado 2228" d="M1042.15,346.422c1.6,1.573,4.32,2.185,5.6-.072,1.2-2.13.128-5.66-1.546-7.09-3.94-3.366-9.177-.771-9.177-.771C1038.993,340.428,1040.551,344.848,1042.15,346.422Z" fill="#ffaa21"/>
      <path id="Trazado_2229" data-name="Trazado 2229" d="M1047.746,346.35c1.2-2.13.128-5.66-1.546-7.09-3.94-3.366-9.177-.771-9.177-.771A15.29,15.29,0,0,1,1047.746,346.35Z" fill="#ffaa21"/>
      <g id="Grupo_640" data-name="Grupo 640">
        <g id="Grupo_639" data-name="Grupo 639">
          <path id="Trazado_2230" data-name="Trazado 2230" d="M1047.211,345.246l-.258-.387c-.081-.126-.183-.277-.311-.44s-.263-.362-.433-.552l-.26-.308c-.091-.1-.192-.2-.293-.314-.2-.222-.429-.428-.665-.655a16.036,16.036,0,0,0-1.627-1.274,24.735,24.735,0,0,0-3.153-1.764l-1.339-.623s.523.186,1.359.536a18.526,18.526,0,0,1,3.19,1.687,13.625,13.625,0,0,1,1.631,1.309c.235.237.463.452.659.685.1.114.2.219.288.329l.254.323c.165.2.3.407.418.58s.22.33.3.462Z" fill="#ffaa21"/>
        </g>
      </g>
      <path id="Trazado_2231" data-name="Trazado 2231" d="M1048.135,348.9c-2.445-3.037-2.549-12.435-1-18,3.644-13.1,11.464-14.758,11.464-14.758C1048.994,331.441,1048.135,348.9,1048.135,348.9Z" fill="#ffaa21"/>
      <path id="Trazado_2232" data-name="Trazado 2232" d="M1048.135,348.9c-2.445-3.037-2.549-12.435-1-18,3.644-13.1,11.464-14.758,11.464-14.758C1048.994,331.441,1048.135,348.9,1048.135,348.9Z" fill="#ffaa21"/>
      <g id="Grupo_642" data-name="Grupo 642">
        <g id="Grupo_641" data-name="Grupo 641">
          <path id="Trazado_2233" data-name="Trazado 2233" d="M1048.357,345.677l.168-1.229c.052-.4.119-.879.214-1.424s.186-1.181.324-1.846l.2-1.055c.073-.364.16-.73.244-1.116.163-.779.372-1.564.579-2.406.439-1.649.961-3.4,1.554-5.15,1.195-3.49,2.417-6.359,3.307-8.413.9-2.032,1.457-3.29,1.457-3.29s-.593,1.157-1.52,3.124a81.732,81.732,0,0,0-3.387,8.293c-.6,1.765-1.117,3.55-1.544,5.237-.2.861-.4,1.665-.558,2.463-.08.4-.163.771-.232,1.143s-.129.736-.189,1.081c-.128.68-.211,1.329-.294,1.886s-.143,1.048-.187,1.452Z" fill="#ffaa21"/>
        </g>
      </g>
      <path id="Trazado_2234" data-name="Trazado 2234" d="M1058.614,352.684c-.065-2.472-.261-4.538-3.656-5.144a6.023,6.023,0,0,0-3.633.67c-3.066-2.671-4.992-4.6-8.227-4.6-3.753,0-5.193,3.271-5.193,7.024a6.79,6.79,0,0,0,.316,2.051Z" fill="#09f"/>
    </g>
    <path id="Trazado_2235" data-name="Trazado 2235" d="M1337.716,363.919c-.142-4.277,1.51-6.9-5.948-7.944-2.2-.31-5.333,1.634-10.061.2-6.734-4.621-6.721-7.961-13.826-7.961-8.243,0-13.225,5.66-13.225,12.153,0,1.237-.363,2.429.087,3.548Z" fill="#09f"/>
  </g>
</svg>
