<svg xmlns="http://www.w3.org/2000/svg" xmlns:xlink="http://www.w3.org/1999/xlink" width="612.276" height="858.89" viewBox="0 0 612.276 858.89">
  <defs>
    <filter id="Rectángulo_6" x="0" y="0" width="612.276" height="858.89" filterUnits="userSpaceOnUse">
      <feOffset dx="7" dy="7" input="SourceAlpha"/>
      <feGaussianBlur stdDeviation="2.5" result="blur"/>
      <feFlood flood-color="#9b9b9b" flood-opacity="0.502"/>
      <feComposite operator="in" in2="blur"/>
      <feComposite in="SourceGraphic"/>
    </filter>
    <clipPath id="clip-path">
      <rect id="Rectángulo_7" data-name="Rectángulo 7" width="595.276" height="841.89" transform="translate(424.54 6426.687)" fill="none"/>
    </clipPath>
  </defs>
  <g id="Grupo_590" data-name="Grupo 590" transform="translate(-422.999 -6425.082)">
    <g id="Grupo_9" data-name="Grupo 9">
      <g transform="matrix(1, 0, 0, 1, 423, 6425.08)" filter="url(#Rectángulo_6)">
        <rect id="Rectángulo_6-2" data-name="Rectángulo 6" width="595.276" height="841.89" transform="translate(596.78 843.39) rotate(180)" fill="#fff" stroke="#afafaf" stroke-miterlimit="10" stroke-width="2"/>
      </g>
      <g id="Grupo_7" data-name="Grupo 7" opacity="0.85">
        <g id="Grupo_6" data-name="Grupo 6" clip-path="url(#clip-path)">
          <g id="Grupo_5" data-name="Grupo 5">
            <path id="Trazado_3" data-name="Trazado 3" d="M625.277,6643.652l25.4,25.63-25.4,25.643-25.42-25.643Z" fill="#fff"/>
            <path id="Trazado_4" data-name="Trazado 4" d="M722.037,6594.84l25.4,25.632-25.4,25.6-25.4-25.6Z" fill="#fff"/>
            <path id="Trazado_5" data-name="Trazado 5" d="M625.277,6448.383l25.4,25.63-25.4,25.63-25.42-25.63Z" fill="#f3f2f2"/>
            <path id="Trazado_6" data-name="Trazado 6" d="M649.475,6472.8l25.374,25.63-25.374,25.6-25.4-25.6Z" fill="#f3f2f2"/>
            <path id="Trazado_7" data-name="Trazado 7" d="M673.646,6497.2l25.42,25.655-25.42,25.63-25.4-25.63Z" fill="#f7f8f9"/>
            <path id="Trazado_8" data-name="Trazado 8" d="M697.864,6521.612l25.374,25.63-25.374,25.632-25.42-25.632Z" fill="#f5f5f5"/>
            <path id="Trazado_9" data-name="Trazado 9" d="M722.037,6546.056l25.4,25.6-25.4,25.607-25.4-25.607Z" fill="#f5f5f5"/>
            <path id="Trazado_10" data-name="Trazado 10" d="M746.233,6570.451l25.4,25.6-25.4,25.63-25.4-25.63Z" fill="#fff"/>
            <path id="Trazado_11" data-name="Trazado 11" d="M770.429,6594.84l25.37,25.632-25.37,25.6-25.422-25.6Z" fill="#fff"/>
            <path id="Trazado_12" data-name="Trazado 12" d="M794.575,6619.259l25.4,25.63-25.4,25.632L769.2,6644.889Z" fill="#fff"/>
            <path id="Trazado_13" data-name="Trazado 13" d="M818.77,6643.652l25.42,25.63-25.42,25.643-25.4-25.643Z" fill="#fff"/>
            <path id="Trazado_14" data-name="Trazado 14" d="M842.965,6668.072l25.422,25.616-25.422,25.63-25.4-25.63Z" fill="#fff"/>
            <path id="Trazado_15" data-name="Trazado 15" d="M625.277,6399.548l25.4,25.63-25.4,25.655-25.42-25.655Z" fill="#f1f1f1"/>
            <path id="Trazado_16" data-name="Trazado 16" d="M649.475,6423.965l25.374,25.63-25.374,25.632-25.4-25.632Z" fill="#f3f2f2"/>
            <path id="Trazado_17" data-name="Trazado 17" d="M673.646,6448.383l25.42,25.63-25.42,25.63-25.4-25.63Z" fill="#f3f2f2"/>
            <path id="Trazado_18" data-name="Trazado 18" d="M697.864,6472.8l25.374,25.63-25.374,25.6-25.42-25.6Z" fill="#f3f2f2"/>
            <path id="Trazado_19" data-name="Trazado 19" d="M722.037,6497.2l25.4,25.655-25.4,25.63-25.4-25.63Z" fill="#f3f2f2"/>
            <path id="Trazado_20" data-name="Trazado 20" d="M746.233,6521.612l25.4,25.63-25.4,25.632-25.4-25.632Z" fill="#f3f2f2"/>
            <path id="Trazado_21" data-name="Trazado 21" d="M770.429,6546.056l25.37,25.6-25.37,25.607-25.422-25.607Z" fill="#f7f8f9"/>
            <path id="Trazado_22" data-name="Trazado 22" d="M794.575,6570.451l25.4,25.6-25.4,25.63-25.374-25.63Z" fill="#fff"/>
            <path id="Trazado_23" data-name="Trazado 23" d="M818.77,6594.84l25.42,25.632-25.42,25.6-25.4-25.6Z" fill="#fff"/>
            <path id="Trazado_24" data-name="Trazado 24" d="M842.965,6619.259l25.422,25.63-25.422,25.632-25.4-25.632Z" fill="#f7f8f9"/>
            <path id="Trazado_25" data-name="Trazado 25" d="M867.162,6643.652l25.4,25.63-25.4,25.643-25.4-25.643Z" fill="#fff"/>
            <path id="Trazado_26" data-name="Trazado 26" d="M625.277,6350.737l25.4,25.63L625.277,6402l-25.42-25.629Z" fill="#e7e6e6"/>
            <path id="Trazado_27" data-name="Trazado 27" d="M649.475,6375.13l25.374,25.63-25.374,25.628-25.4-25.628Z" fill="#e7e6e6"/>
            <path id="Trazado_28" data-name="Trazado 28" d="M673.646,6399.548l25.42,25.63-25.42,25.655-25.4-25.655Z" fill="#e7e6e6"/>
            <path id="Trazado_29" data-name="Trazado 29" d="M697.864,6423.965l25.374,25.63-25.374,25.632-25.42-25.632Z" fill="#f1f1f1"/>
            <path id="Trazado_30" data-name="Trazado 30" d="M722.037,6448.383l25.4,25.63-25.4,25.63-25.4-25.63Z" fill="#e3e4e3"/>
            <path id="Trazado_31" data-name="Trazado 31" d="M746.233,6472.8l25.4,25.63-25.4,25.6-25.4-25.6Z" fill="#f0efef"/>
            <path id="Trazado_32" data-name="Trazado 32" d="M770.429,6497.2l25.37,25.655-25.37,25.63-25.422-25.63Z" fill="#f4f5f5"/>
            <path id="Trazado_33" data-name="Trazado 33" d="M794.575,6521.612l25.4,25.63-25.4,25.632L769.2,6547.242Z" fill="#f3f2f2"/>
            <path id="Trazado_34" data-name="Trazado 34" d="M818.77,6546.056l25.42,25.6-25.42,25.607-25.4-25.607Z" fill="#f7f7f7"/>
            <path id="Trazado_35" data-name="Trazado 35" d="M842.965,6570.451l25.422,25.6-25.422,25.63-25.4-25.63Z" fill="#f9f9f9"/>
            <path id="Trazado_36" data-name="Trazado 36" d="M867.162,6594.84l25.4,25.632-25.4,25.6-25.4-25.6Z" fill="#f7f7f7"/>
            <path id="Trazado_37" data-name="Trazado 37" d="M891.358,6619.259l25.372,25.63-25.372,25.632-25.4-25.632Z" fill="#f7f7f7"/>
            <path id="Trazado_38" data-name="Trazado 38" d="M915.527,6643.652l25.422,25.63-25.422,25.643-25.4-25.643Z" fill="#fff"/>
            <path id="Trazado_39" data-name="Trazado 39" d="M939.723,6668.072l25.4,25.616-25.4,25.63-25.4-25.63Z" fill="#fff"/>
            <path id="Trazado_40" data-name="Trazado 40" d="M649.475,6326.318l25.374,25.632-25.374,25.63-25.4-25.63Z" fill="silver"/>
            <path id="Trazado_41" data-name="Trazado 41" d="M673.646,6350.737l25.42,25.63L673.646,6402l-25.4-25.629Z" fill="#dfdedd"/>
            <path id="Trazado_42" data-name="Trazado 42" d="M697.864,6375.13l25.374,25.63-25.374,25.628-25.42-25.628Z" fill="#dcdbdc"/>
            <path id="Trazado_43" data-name="Trazado 43" d="M722.037,6399.548l25.4,25.63-25.4,25.655-25.4-25.655Z" fill="#e9e9ea"/>
            <path id="Trazado_44" data-name="Trazado 44" d="M746.233,6423.965l25.4,25.63-25.4,25.632-25.4-25.632Z" fill="#e3e4e3"/>
            <path id="Trazado_45" data-name="Trazado 45" d="M770.429,6448.383l25.37,25.63-25.37,25.63-25.422-25.63Z" fill="#dfdfde"/>
            <path id="Trazado_46" data-name="Trazado 46" d="M794.575,6472.8l25.4,25.63-25.4,25.6-25.374-25.6Z" fill="#e7e6e6"/>
            <path id="Trazado_47" data-name="Trazado 47" d="M818.77,6497.2l25.42,25.655-25.42,25.63-25.4-25.63Z" fill="#f3f2f2"/>
            <path id="Trazado_48" data-name="Trazado 48" d="M842.965,6521.612l25.422,25.63-25.422,25.632-25.4-25.632Z" fill="#efeded"/>
            <path id="Trazado_49" data-name="Trazado 49" d="M867.162,6546.056l25.4,25.6-25.4,25.607-25.4-25.607Z" fill="#f7f7f7"/>
            <path id="Trazado_50" data-name="Trazado 50" d="M891.358,6570.451l25.372,25.6-25.372,25.63-25.4-25.63Z" fill="#f7f7f7"/>
            <path id="Trazado_51" data-name="Trazado 51" d="M915.527,6594.84l25.422,25.632-25.422,25.6-25.4-25.6Z" fill="#fff"/>
            <path id="Trazado_52" data-name="Trazado 52" d="M939.723,6619.259l25.4,25.63-25.4,25.632-25.4-25.632Z" fill="#fff"/>
            <path id="Trazado_53" data-name="Trazado 53" d="M963.919,6643.652l25.4,25.63-25.4,25.643-25.4-25.643Z" fill="#fff"/>
            <path id="Trazado_54" data-name="Trazado 54" d="M697.864,6326.318l25.374,25.632-25.374,25.63-25.42-25.63Z" fill="#dfdedd"/>
            <path id="Trazado_55" data-name="Trazado 55" d="M722.037,6350.737l25.4,25.63L722.037,6402l-25.4-25.629Z" fill="#dfdedd"/>
            <path id="Trazado_56" data-name="Trazado 56" d="M746.233,6375.13l25.4,25.63-25.4,25.628-25.4-25.628Z" fill="#dfdedd"/>
            <path id="Trazado_57" data-name="Trazado 57" d="M770.429,6399.548l25.37,25.63-25.37,25.655-25.422-25.655Z" fill="#e7e6e6"/>
            <path id="Trazado_58" data-name="Trazado 58" d="M794.575,6423.965l25.4,25.63-25.4,25.632L769.2,6449.6Z" fill="#ececec"/>
            <path id="Trazado_59" data-name="Trazado 59" d="M818.77,6448.383l25.42,25.63-25.42,25.63-25.4-25.63Z" fill="#ececec"/>
            <path id="Trazado_60" data-name="Trazado 60" d="M842.965,6472.8l25.422,25.63-25.422,25.6-25.4-25.6Z" fill="#ebebeb"/>
            <path id="Trazado_61" data-name="Trazado 61" d="M867.162,6497.2l25.4,25.655-25.4,25.63-25.4-25.63Z" fill="#f5f5f5"/>
            <path id="Trazado_62" data-name="Trazado 62" d="M891.358,6521.612l25.372,25.63-25.372,25.632-25.4-25.632Z" fill="#f5f5f5"/>
            <path id="Trazado_63" data-name="Trazado 63" d="M915.527,6546.056l25.422,25.6-25.422,25.607-25.4-25.607Z" fill="#f3f2f2"/>
            <path id="Trazado_64" data-name="Trazado 64" d="M939.723,6570.451l25.4,25.6-25.4,25.63-25.4-25.63Z" fill="#ececec"/>
            <path id="Trazado_65" data-name="Trazado 65" d="M963.919,6594.84l25.4,25.632-25.4,25.6-25.4-25.6Z" fill="#f5f5f5"/>
            <path id="Trazado_66" data-name="Trazado 66" d="M988.114,6619.259l25.4,25.63-25.4,25.632-25.4-25.632Z" fill="#f5f5f5"/>
            <path id="Trazado_67" data-name="Trazado 67" d="M1012.285,6643.652l25.422,25.63-25.422,25.643-25.4-25.643Z" fill="#fff"/>
            <path id="Trazado_68" data-name="Trazado 68" d="M746.233,6326.318l25.4,25.632-25.4,25.63-25.4-25.63Z" fill="#b9b9ba"/>
            <path id="Trazado_69" data-name="Trazado 69" d="M770.429,6350.737l25.37,25.63L770.429,6402l-25.422-25.629Z" fill="#dfdfdf"/>
            <path id="Trazado_70" data-name="Trazado 70" d="M794.575,6375.13l25.4,25.63-25.4,25.628L769.2,6400.76Z" fill="#dfdedd"/>
            <path id="Trazado_71" data-name="Trazado 71" d="M818.77,6399.548l25.42,25.63-25.42,25.655-25.4-25.655Z" fill="#dfdedd"/>
            <path id="Trazado_72" data-name="Trazado 72" d="M842.965,6423.965l25.422,25.63-25.422,25.632-25.4-25.632Z" fill="#ececec"/>
            <path id="Trazado_73" data-name="Trazado 73" d="M867.162,6448.383l25.4,25.63-25.4,25.63-25.4-25.63Z" fill="#ebebeb"/>
            <path id="Trazado_74" data-name="Trazado 74" d="M891.358,6472.8l25.372,25.63-25.372,25.6-25.4-25.6Z" fill="#f0efef"/>
            <path id="Trazado_75" data-name="Trazado 75" d="M915.527,6497.2l25.422,25.655-25.422,25.63-25.4-25.63Z" fill="#f4f5f5"/>
            <path id="Trazado_76" data-name="Trazado 76" d="M939.723,6521.612l25.4,25.63-25.4,25.632-25.4-25.632Z" fill="#ebebeb"/>
            <path id="Trazado_77" data-name="Trazado 77" d="M963.919,6546.056l25.4,25.6-25.4,25.607-25.4-25.607Z" fill="#ececec"/>
            <path id="Trazado_78" data-name="Trazado 78" d="M988.114,6570.451l25.4,25.6-25.4,25.63-25.4-25.63Z" fill="#ebebeb"/>
            <path id="Trazado_79" data-name="Trazado 79" d="M1012.285,6594.84l25.422,25.632-25.422,25.6-25.4-25.6Z" fill="#f7f8f9"/>
            <path id="Trazado_80" data-name="Trazado 80" d="M1036.506,6619.259l25.372,25.63-25.372,25.632-25.42-25.632Z" fill="#fafdff"/>
            <path id="Trazado_81" data-name="Trazado 81" d="M794.575,6326.318l25.4,25.632-25.4,25.63L769.2,6351.95Z" fill="#d5d6d5"/>
            <path id="Trazado_82" data-name="Trazado 82" d="M818.77,6350.737l25.42,25.63L818.77,6402l-25.4-25.629Z" fill="#dfdedd"/>
            <path id="Trazado_83" data-name="Trazado 83" d="M842.965,6375.13l25.422,25.63-25.422,25.628-25.4-25.628Z" fill="#e3e2e2"/>
            <path id="Trazado_84" data-name="Trazado 84" d="M867.162,6399.548l25.4,25.63-25.4,25.655-25.4-25.655Z" fill="#e3e2e2"/>
            <path id="Trazado_85" data-name="Trazado 85" d="M891.358,6423.965l25.372,25.63-25.372,25.632-25.4-25.632Z" fill="#ebebeb"/>
            <path id="Trazado_86" data-name="Trazado 86" d="M915.527,6448.383l25.422,25.63-25.422,25.63-25.4-25.63Z" fill="#efefef"/>
            <path id="Trazado_87" data-name="Trazado 87" d="M939.723,6472.8l25.4,25.63-25.4,25.6-25.4-25.6Z" fill="#efeded"/>
            <path id="Trazado_88" data-name="Trazado 88" d="M963.919,6497.2l25.4,25.655-25.4,25.63-25.4-25.63Z" fill="#f3f2f2"/>
            <path id="Trazado_89" data-name="Trazado 89" d="M988.114,6521.612l25.4,25.63-25.4,25.632-25.4-25.632Z" fill="#f3f2f2"/>
            <path id="Trazado_90" data-name="Trazado 90" d="M1012.285,6546.056l25.422,25.6-25.422,25.607-25.4-25.607Z" fill="#ececec"/>
            <path id="Trazado_91" data-name="Trazado 91" d="M1036.506,6570.451l25.372,25.6-25.372,25.63-25.42-25.63Z" fill="#efefef"/>
            <path id="Trazado_92" data-name="Trazado 92" d="M1060.677,6594.84l25.372,25.632-25.372,25.6-25.374-25.6Z" fill="#fafdff"/>
            <path id="Trazado_93" data-name="Trazado 93" d="M1084.823,6619.259l25.447,25.63-25.447,25.632-25.349-25.632Z" fill="#fff"/>
            <path id="Trazado_94" data-name="Trazado 94" d="M842.965,6326.318l25.422,25.632-25.422,25.63-25.4-25.63Z" fill="#dfdfdf"/>
            <path id="Trazado_95" data-name="Trazado 95" d="M867.162,6350.737l25.4,25.63L867.162,6402l-25.4-25.629Z" fill="#e1e1e1"/>
            <path id="Trazado_96" data-name="Trazado 96" d="M891.358,6375.13l25.372,25.63-25.372,25.628-25.4-25.628Z" fill="#e1e1e1"/>
            <path id="Trazado_97" data-name="Trazado 97" d="M915.527,6399.548l25.422,25.63-25.422,25.655-25.4-25.655Z" fill="#ebebeb"/>
            <path id="Trazado_98" data-name="Trazado 98" d="M939.723,6423.965l25.4,25.63-25.4,25.632-25.4-25.632Z" fill="#f3f2f2"/>
            <path id="Trazado_99" data-name="Trazado 99" d="M963.919,6448.383l25.4,25.63-25.4,25.63-25.4-25.63Z" fill="#ececec"/>
            <path id="Trazado_100" data-name="Trazado 100" d="M988.114,6472.8l25.4,25.63-25.4,25.6-25.4-25.6Z" fill="#ebeaea"/>
            <path id="Trazado_101" data-name="Trazado 101" d="M1012.285,6497.2l25.422,25.655-25.422,25.63-25.4-25.63Z" fill="#ebebeb"/>
            <path id="Trazado_102" data-name="Trazado 102" d="M1036.506,6521.612l25.372,25.63-25.372,25.632-25.42-25.632Z" fill="#efeded"/>
            <path id="Trazado_103" data-name="Trazado 103" d="M1060.677,6546.056l25.372,25.6-25.372,25.607-25.374-25.607Z" fill="#f3f2f2"/>
            <path id="Trazado_104" data-name="Trazado 104" d="M1084.823,6570.451l25.447,25.6-25.447,25.63-25.349-25.63Z" fill="#f7f7f7"/>
            <path id="Trazado_105" data-name="Trazado 105" d="M891.358,6326.318l25.372,25.632-25.372,25.63-25.4-25.63Z" fill="#dcdbdc"/>
            <path id="Trazado_106" data-name="Trazado 106" d="M915.527,6350.737l25.422,25.63L915.527,6402l-25.4-25.629Z" fill="#d2d2d2"/>
            <path id="Trazado_107" data-name="Trazado 107" d="M939.723,6375.13l25.4,25.63-25.4,25.628-25.4-25.628Z" fill="#d1d2d2"/>
            <path id="Trazado_108" data-name="Trazado 108" d="M963.919,6399.548l25.4,25.63-25.4,25.655-25.4-25.655Z" fill="#d7d7d7"/>
            <path id="Trazado_109" data-name="Trazado 109" d="M988.114,6423.965l25.4,25.63-25.4,25.632-25.4-25.632Z" fill="#ececec"/>
            <path id="Trazado_110" data-name="Trazado 110" d="M1012.285,6448.383l25.422,25.63-25.422,25.63-25.4-25.63Z" fill="#efefef"/>
            <path id="Trazado_111" data-name="Trazado 111" d="M1036.506,6472.8l25.372,25.63-25.372,25.6-25.42-25.6Z" fill="#d0d0cf"/>
            <path id="Trazado_112" data-name="Trazado 112" d="M1060.677,6497.2l25.372,25.655-25.372,25.63-25.374-25.63Z" fill="#efeded"/>
            <path id="Trazado_113" data-name="Trazado 113" d="M1084.823,6521.612l25.447,25.63-25.447,25.632-25.349-25.632Z" fill="#f0efef"/>
            <path id="Trazado_114" data-name="Trazado 114" d="M939.723,6326.318l25.4,25.632-25.4,25.63-25.4-25.63Z" fill="#dbdbda"/>
            <path id="Trazado_115" data-name="Trazado 115" d="M963.919,6350.737l25.4,25.63L963.919,6402l-25.4-25.629Z" fill="#dcdbdc"/>
            <path id="Trazado_116" data-name="Trazado 116" d="M988.114,6375.13l25.4,25.63-25.4,25.628-25.4-25.628Z" fill="#dcdbdc"/>
            <path id="Trazado_117" data-name="Trazado 117" d="M1012.285,6399.548l25.422,25.63-25.422,25.655-25.4-25.655Z" fill="#e9e9ea"/>
            <path id="Trazado_118" data-name="Trazado 118" d="M1036.506,6423.965l25.372,25.63-25.372,25.632-25.42-25.632Z" fill="#f1f1f1"/>
            <path id="Trazado_119" data-name="Trazado 119" d="M1060.677,6448.383l25.372,25.63-25.372,25.63-25.374-25.63Z" fill="#f1f1f1"/>
            <path id="Trazado_120" data-name="Trazado 120" d="M1084.823,6472.8l25.447,25.63-25.447,25.6-25.349-25.6Z" fill="#e1e1e1"/>
            <path id="Trazado_121" data-name="Trazado 121" d="M988.114,6326.318l25.4,25.632-25.4,25.63-25.4-25.63Z" fill="#dcdbdc"/>
            <path id="Trazado_122" data-name="Trazado 122" d="M1012.285,6350.737l25.422,25.63L1012.285,6402l-25.4-25.629Z" fill="#e1e1e1"/>
            <path id="Trazado_123" data-name="Trazado 123" d="M1036.506,6375.13l25.372,25.63-25.372,25.628-25.42-25.628Z" fill="#e1e1e1"/>
            <path id="Trazado_124" data-name="Trazado 124" d="M1060.677,6399.548l25.372,25.63-25.372,25.655-25.374-25.655Z" fill="#ececec"/>
            <path id="Trazado_125" data-name="Trazado 125" d="M1084.823,6423.965l25.447,25.63-25.447,25.632-25.349-25.632Z" fill="#d8d8d7"/>
            <path id="Trazado_126" data-name="Trazado 126" d="M1036.506,6326.318l25.372,25.632-25.372,25.63-25.42-25.63Z" fill="#dfdfdf"/>
            <path id="Trazado_127" data-name="Trazado 127" d="M1060.677,6350.737l25.372,25.63L1060.677,6402l-25.374-25.629Z" fill="#e1e1e1"/>
            <path id="Trazado_128" data-name="Trazado 128" d="M1084.823,6375.13l25.447,25.63-25.447,25.628-25.349-25.628Z" fill="#f1f1f1"/>
            <path id="Trazado_129" data-name="Trazado 129" d="M1084.823,6326.318l25.447,25.632-25.447,25.63-25.349-25.63Z" fill="#f7f8f9"/>
          </g>
        </g>
      </g>
      <rect id="Rectángulo_8" data-name="Rectángulo 8" width="595.276" height="21" transform="translate(1019.775 6447.686) rotate(180)" fill="#1ebcc5"/>
      <rect id="Rectángulo_9" data-name="Rectángulo 9" width="595.276" height="36.285" transform="translate(424.622 7232.187)" fill="#0d0d0d"/>
      <path id="Trazado_130" data-name="Trazado 130" d="M587.965,7268.366H424.5v-55.013H563.352Z" fill="#1ebcc5"/>
      <g id="Grupo_8" data-name="Grupo 8">
        <text id="Nombre_empresa" data-name="Nombre empresa" transform="translate(631.932 6523.525)" fill="#231f20" font-size="20.757" font-family="Montserrat-Bold, Montserrat" font-weight="700" letter-spacing="-0.05em"><tspan x="-87.792" y="0">Nombre empresa</tspan></text>
        <g id="Logo">
          <path id="Trazado_131" data-name="Trazado 131" d="M504.765,6498.453H484.606L474.526,6516l10.08,17.544h20.159L514.845,6516Zm-2.862,30.1H487.469L480.251,6516l7.218-12.562H501.9L509.12,6516Zm-2.917-20.047h-8.6l-4.3,7.486,4.3,7.486h8.6l4.3-7.486Zm-1.221,12.846h-6.159l-3.079-5.36,3.079-5.36h6.159l3.08,5.36Z" fill="#1ebcc5" fill-rule="evenodd"/>
        </g>
      </g>
      <rect id="Rectángulo_10" data-name="Rectángulo 10" width="407.223" height="9.333" transform="translate(494.686 6825.561)" fill="#cecece"/>
      <rect id="Rectángulo_11" data-name="Rectángulo 11" width="407.223" height="9.333" transform="translate(494.686 6847.526)" fill="#cecece"/>
      <rect id="Rectángulo_12" data-name="Rectángulo 12" width="210.223" height="9.333" transform="translate(494.686 6869.492)" fill="#cecece"/>
      <rect id="Rectángulo_13" data-name="Rectángulo 13" width="106.49" height="9.333" transform="translate(796.908 6772.25)" fill="#cecece"/>
      <rect id="Rectángulo_14" data-name="Rectángulo 14" width="407.223" height="9.333" transform="translate(494.686 6982.895)" fill="#cecece"/>
      <rect id="Rectángulo_15" data-name="Rectángulo 15" width="407.223" height="9.333" transform="translate(494.686 7004.86)" fill="#cecece"/>
      <rect id="Rectángulo_16" data-name="Rectángulo 16" width="105.111" height="9.333" transform="translate(494.686 7026.825)" fill="#cecece"/>
      <rect id="Rectángulo_17" data-name="Rectángulo 17" width="407.223" height="9.333" transform="translate(494.686 7061.561)" fill="#cecece"/>
      <rect id="Rectángulo_18" data-name="Rectángulo 18" width="407.223" height="9.333" transform="translate(494.686 7083.526)" fill="#cecece"/>
      <rect id="Rectángulo_19" data-name="Rectángulo 19" width="124.556" height="9.333" transform="translate(494.686 7105.492)" fill="#cecece"/>
      <rect id="Rectángulo_20" data-name="Rectángulo 20" width="407.223" height="9.333" transform="translate(494.686 6904.228)" fill="#cecece"/>
      <rect id="Rectángulo_21" data-name="Rectángulo 21" width="407.223" height="9.333" transform="translate(494.686 6926.193)" fill="#cecece"/>
      <rect id="Rectángulo_22" data-name="Rectángulo 22" width="300.556" height="9.333" transform="translate(494.686 6948.158)" fill="#cecece"/>
    </g>
    <path id="Trazado_2925" data-name="Trazado 2925" d="M5.086,17H3.758V6.758H.141V5.578H8.7v1.18H5.086Zm6.438,0h-1.3V8.438h1.3ZM10.172,7.109q.375-.484.809-1.172a13.411,13.411,0,0,0,.684-1.2h1.578v.164a11.549,11.549,0,0,1-1.023,1.25A11.619,11.619,0,0,1,11.039,7.3h-.867Zm6.867,8.977a4.236,4.236,0,0,0,.664-.051,4.3,4.3,0,0,0,.508-.105v.992a2.371,2.371,0,0,1-.621.168,4.664,4.664,0,0,1-.738.066q-2.484,0-2.484-2.617V9.445H13.141V8.82l1.227-.539.547-1.828h.75V8.438h2.484V9.445H15.664v5.039a1.734,1.734,0,0,0,.367,1.188A1.278,1.278,0,0,0,17.039,16.086Zm4.1-7.648v5.555a2.235,2.235,0,0,0,.477,1.563,1.941,1.941,0,0,0,1.492.516,2.435,2.435,0,0,0,1.965-.734,3.7,3.7,0,0,0,.621-2.4v-4.5h1.3V17h-1.07l-.187-1.148h-.07a2.585,2.585,0,0,1-1.105.969,3.716,3.716,0,0,1-1.613.336,3.273,3.273,0,0,1-2.34-.742,3.159,3.159,0,0,1-.777-2.375v-5.6ZM31.039,17h-1.3V4.844h1.3ZM41.18,12.711a4.724,4.724,0,0,1-1.055,3.27,3.714,3.714,0,0,1-2.914,1.176,3.86,3.86,0,0,1-2.039-.539A3.558,3.558,0,0,1,33.8,15.07a5.391,5.391,0,0,1-.484-2.359,4.716,4.716,0,0,1,1.047-3.262,3.7,3.7,0,0,1,2.906-1.168,3.622,3.622,0,0,1,2.855,1.2A4.7,4.7,0,0,1,41.18,12.711Zm-6.523,0a4.064,4.064,0,0,0,.656,2.5,2.6,2.6,0,0,0,3.863,0,4.043,4.043,0,0,0,.66-2.5,3.978,3.978,0,0,0-.66-2.48,2.32,2.32,0,0,0-1.949-.848,2.283,2.283,0,0,0-1.922.836A4.023,4.023,0,0,0,34.656,12.711Zm18.781,3.141h-.07a3.047,3.047,0,0,1-2.687,1.3,3.179,3.179,0,0,1-2.613-1.148,5.055,5.055,0,0,1-.934-3.266,5.141,5.141,0,0,1,.938-3.289A3.155,3.155,0,0,1,50.68,8.281a3.114,3.114,0,0,1,2.672,1.266h.1L53.4,8.93l-.031-.6V4.844h1.3V17H53.609Zm-2.594.219a2.361,2.361,0,0,0,1.926-.723,3.652,3.652,0,0,0,.6-2.332v-.273a4.3,4.3,0,0,0-.605-2.6,2.3,2.3,0,0,0-1.934-.777,1.985,1.985,0,0,0-1.746.887,4.409,4.409,0,0,0-.605,2.5,4.227,4.227,0,0,0,.6,2.477A2.037,2.037,0,0,0,50.844,16.07Zm10.188,1.086a3.934,3.934,0,0,1-3-1.156,4.476,4.476,0,0,1-1.1-3.211A4.964,4.964,0,0,1,57.957,9.5,3.387,3.387,0,0,1,60.7,8.281,3.229,3.229,0,0,1,63.242,9.34a4.057,4.057,0,0,1,.938,2.793v.82h-5.9a3.394,3.394,0,0,0,.762,2.289,2.634,2.634,0,0,0,2.035.781,6.9,6.9,0,0,0,2.734-.578V16.6a6.863,6.863,0,0,1-1.3.426A7.31,7.31,0,0,1,61.031,17.156ZM60.68,9.367a2.118,2.118,0,0,0-1.645.672,3.1,3.1,0,0,0-.723,1.859h4.477a2.851,2.851,0,0,0-.547-1.879A1.925,1.925,0,0,0,60.68,9.367ZM67.688,17h-1.3V4.844h1.3Zm8.2,0h-1.3V8.438h1.3ZM74.484,6.117a.861.861,0,0,1,.219-.652.81.81,0,0,1,1.086,0,.846.846,0,0,1,.227.648.859.859,0,0,1-.227.652.794.794,0,0,1-1.086,0A.877.877,0,0,1,74.484,6.117ZM84.5,17V11.461A2.235,2.235,0,0,0,84.023,9.9a1.941,1.941,0,0,0-1.492-.516,2.461,2.461,0,0,0-1.969.727,3.668,3.668,0,0,0-.625,2.4V17h-1.3V8.438H79.7l.211,1.172h.063a2.648,2.648,0,0,1,1.117-.98,3.63,3.63,0,0,1,1.6-.348,3.252,3.252,0,0,1,2.328.746,3.175,3.175,0,0,1,.781,2.387V17Zm7.82-7.555h-2.18V17h-1.3V9.445H87.313V8.859l1.531-.469V7.914q0-3.156,2.758-3.156a5.675,5.675,0,0,1,1.594.273L92.859,6.07a4.29,4.29,0,0,0-1.281-.242,1.248,1.248,0,0,0-1.086.488,2.725,2.725,0,0,0-.352,1.566v.555h2.18Zm8.953,3.266a4.724,4.724,0,0,1-1.055,3.27A3.714,3.714,0,0,1,97.3,17.156a3.86,3.86,0,0,1-2.039-.539,3.558,3.558,0,0,1-1.375-1.547,5.391,5.391,0,0,1-.484-2.359,4.716,4.716,0,0,1,1.047-3.262,3.7,3.7,0,0,1,2.906-1.168,3.622,3.622,0,0,1,2.855,1.2A4.7,4.7,0,0,1,101.273,12.711Zm-6.523,0a4.064,4.064,0,0,0,.656,2.5,2.6,2.6,0,0,0,3.863,0,4.043,4.043,0,0,0,.66-2.5,3.978,3.978,0,0,0-.66-2.48,2.32,2.32,0,0,0-1.949-.848,2.283,2.283,0,0,0-1.922.836A4.023,4.023,0,0,0,94.75,12.711Zm12.7-4.43a5.075,5.075,0,0,1,1.023.094l-.18,1.2a4.418,4.418,0,0,0-.937-.117,2.282,2.282,0,0,0-1.777.844,3.077,3.077,0,0,0-.738,2.1V17h-1.3V8.438h1.07l.148,1.586h.063a3.764,3.764,0,0,1,1.148-1.289A2.585,2.585,0,0,1,107.453,8.281ZM120.992,17V11.43a2.312,2.312,0,0,0-.437-1.535,1.692,1.692,0,0,0-1.359-.512,2.195,2.195,0,0,0-1.789.7,3.3,3.3,0,0,0-.578,2.141V17h-1.3V11.43a2.312,2.312,0,0,0-.437-1.535,1.7,1.7,0,0,0-1.367-.512,2.118,2.118,0,0,0-1.785.73,3.953,3.953,0,0,0-.566,2.395V17h-1.3V8.438h1.055l.211,1.172h.063a2.549,2.549,0,0,1,1.035-.977,3.162,3.162,0,0,1,1.5-.352,2.544,2.544,0,0,1,2.625,1.453h.063a2.73,2.73,0,0,1,1.109-1.062,3.442,3.442,0,0,1,1.656-.391,2.9,2.9,0,0,1,2.176.746,3.338,3.338,0,0,1,.723,2.387V17Zm7.586.156a3.934,3.934,0,0,1-3-1.156,4.476,4.476,0,0,1-1.1-3.211A4.964,4.964,0,0,1,125.5,9.5a3.387,3.387,0,0,1,2.738-1.219,3.229,3.229,0,0,1,2.547,1.059,4.057,4.057,0,0,1,.938,2.793v.82h-5.9a3.394,3.394,0,0,0,.762,2.289,2.635,2.635,0,0,0,2.035.781,6.9,6.9,0,0,0,2.734-.578V16.6a6.863,6.863,0,0,1-1.3.426A7.31,7.31,0,0,1,128.578,17.156Zm-.352-7.789a2.118,2.118,0,0,0-1.645.672,3.1,3.1,0,0,0-.723,1.859h4.477a2.851,2.851,0,0,0-.547-1.879A1.925,1.925,0,0,0,128.227,9.367Zm7.07,5.773.117.18q-.2.781-.586,1.816t-.8,1.926h-.977q.211-.812.465-2.008t.355-1.914Zm10.336,2.016a3.934,3.934,0,0,1-3-1.156,4.476,4.476,0,0,1-1.1-3.211,4.964,4.964,0,0,1,1.02-3.289A3.387,3.387,0,0,1,145.3,8.281a3.229,3.229,0,0,1,2.547,1.059,4.057,4.057,0,0,1,.938,2.793v.82h-5.9a3.394,3.394,0,0,0,.762,2.289,2.634,2.634,0,0,0,2.035.781,6.9,6.9,0,0,0,2.734-.578V16.6a6.863,6.863,0,0,1-1.3.426A7.31,7.31,0,0,1,145.633,17.156Zm-.352-7.789a2.118,2.118,0,0,0-1.645.672,3.1,3.1,0,0,0-.723,1.859h4.477a2.851,2.851,0,0,0-.547-1.879A1.925,1.925,0,0,0,145.281,9.367ZM156.852,17V11.461a2.235,2.235,0,0,0-.477-1.562,1.941,1.941,0,0,0-1.492-.516,2.461,2.461,0,0,0-1.969.727,3.668,3.668,0,0,0-.625,2.4V17h-1.3V8.438h1.055l.211,1.172h.063a2.648,2.648,0,0,1,1.117-.98,3.63,3.63,0,0,1,1.6-.348,3.252,3.252,0,0,1,2.328.746,3.175,3.175,0,0,1,.781,2.387V17Zm9.414,0h-1.3V4.844h1.3Zm10.141-4.289a4.724,4.724,0,0,1-1.055,3.27,3.714,3.714,0,0,1-2.914,1.176,3.86,3.86,0,0,1-2.039-.539,3.558,3.558,0,0,1-1.375-1.547,5.391,5.391,0,0,1-.484-2.359,4.716,4.716,0,0,1,1.047-3.262,3.7,3.7,0,0,1,2.906-1.168,3.622,3.622,0,0,1,2.855,1.2A4.7,4.7,0,0,1,176.406,12.711Zm-6.523,0a4.064,4.064,0,0,0,.656,2.5,2.6,2.6,0,0,0,3.863,0,4.043,4.043,0,0,0,.66-2.5,3.978,3.978,0,0,0-.66-2.48,2.32,2.32,0,0,0-1.949-.848,2.283,2.283,0,0,0-1.922.836A4.023,4.023,0,0,0,169.883,12.711Zm16.938,4.445a3.706,3.706,0,0,1-1.527-.309,2.872,2.872,0,0,1-1.16-.949h-.094a11.485,11.485,0,0,1,.094,1.422v3.523h-1.3V8.438h1.055l.18,1.172h.063A3.012,3.012,0,0,1,185.3,8.594a3.539,3.539,0,0,1,1.523-.312,3.165,3.165,0,0,1,2.629,1.164,5.125,5.125,0,0,1,.926,3.266,5.1,5.1,0,0,1-.941,3.277A3.17,3.17,0,0,1,186.82,17.156Zm-.187-7.773a2.3,2.3,0,0,0-1.9.727,3.739,3.739,0,0,0-.6,2.313v.289a4.285,4.285,0,0,0,.6,2.582,2.288,2.288,0,0,0,1.93.777,2.007,2.007,0,0,0,1.738-.9,4.26,4.26,0,0,0,.629-2.477,4.1,4.1,0,0,0-.629-2.457A2.069,2.069,0,0,0,186.633,9.383Zm13.4,3.328a4.724,4.724,0,0,1-1.055,3.27,3.714,3.714,0,0,1-2.914,1.176,3.86,3.86,0,0,1-2.039-.539,3.558,3.558,0,0,1-1.375-1.547,5.391,5.391,0,0,1-.484-2.359,4.716,4.716,0,0,1,1.047-3.262,3.7,3.7,0,0,1,2.906-1.168,3.622,3.622,0,0,1,2.855,1.2A4.7,4.7,0,0,1,200.031,12.711Zm-6.523,0a4.064,4.064,0,0,0,.656,2.5,2.6,2.6,0,0,0,3.863,0,4.043,4.043,0,0,0,.66-2.5,3.978,3.978,0,0,0-.66-2.48,2.32,2.32,0,0,0-1.949-.848,2.283,2.283,0,0,0-1.922.836A4.023,4.023,0,0,0,193.508,12.711Zm14.32,1.953a2.145,2.145,0,0,1-.891,1.844,4.186,4.186,0,0,1-2.5.648,5.436,5.436,0,0,1-2.656-.539v-1.2a6.423,6.423,0,0,0,1.324.492,5.53,5.53,0,0,0,1.363.18,3.092,3.092,0,0,0,1.563-.324,1.116,1.116,0,0,0,.113-1.844,6.82,6.82,0,0,0-1.691-.84,9.172,9.172,0,0,1-1.7-.777,2.321,2.321,0,0,1-.75-.754,1.966,1.966,0,0,1-.246-1.008,1.921,1.921,0,0,1,.852-1.652,3.968,3.968,0,0,1,2.336-.605,6.835,6.835,0,0,1,2.7.563L207.188,9.9a6.2,6.2,0,0,0-2.336-.531,2.688,2.688,0,0,0-1.391.289.894.894,0,0,0-.469.8.971.971,0,0,0,.176.586,1.735,1.735,0,0,0,.566.461,12.659,12.659,0,0,0,1.5.633,5.6,5.6,0,0,1,2.059,1.117A1.97,1.97,0,0,1,207.828,14.664ZM211.234,17h-1.3V8.438h1.3ZM209.828,6.117a.861.861,0,0,1,.219-.652.81.81,0,0,1,1.086,0,.846.846,0,0,1,.227.648.859.859,0,0,1-.227.652.794.794,0,0,1-1.086,0A.877.877,0,0,1,209.828,6.117Zm8.141,2.18a3.183,3.183,0,0,1,2.621,1.152,5.058,5.058,0,0,1,.934,3.262,5.1,5.1,0,0,1-.941,3.277,3.17,3.17,0,0,1-2.613,1.168,3.706,3.706,0,0,1-1.527-.309,2.872,2.872,0,0,1-1.16-.949h-.094l-.273,1.1h-.93V4.844h1.3V7.8q0,.992-.062,1.781h.063A3.079,3.079,0,0,1,217.969,8.3Zm-.187,1.086a2.264,2.264,0,0,0-1.914.762,4.3,4.3,0,0,0-.586,2.566,4.285,4.285,0,0,0,.6,2.582,2.288,2.288,0,0,0,1.93.777,2,2,0,0,0,1.781-.871,4.477,4.477,0,0,0,.586-2.5,4.3,4.3,0,0,0-.586-2.492A2.076,2.076,0,0,0,217.781,9.383Zm7.3,7.617h-1.3V4.844h1.3Zm6.367.156a3.934,3.934,0,0,1-3-1.156,4.476,4.476,0,0,1-1.1-3.211,4.964,4.964,0,0,1,1.02-3.289,3.387,3.387,0,0,1,2.738-1.219,3.229,3.229,0,0,1,2.547,1.059,4.057,4.057,0,0,1,.938,2.793v.82h-5.9a3.394,3.394,0,0,0,.762,2.289,2.634,2.634,0,0,0,2.035.781,6.9,6.9,0,0,0,2.734-.578V16.6a6.863,6.863,0,0,1-1.3.426A7.31,7.31,0,0,1,231.453,17.156ZM231.1,9.367a2.118,2.118,0,0,0-1.645.672,3.1,3.1,0,0,0-.723,1.859h4.477a2.851,2.851,0,0,0-.547-1.879A1.925,1.925,0,0,0,231.1,9.367ZM246.234,17l-.258-1.219h-.062a3.6,3.6,0,0,1-1.277,1.09,3.893,3.893,0,0,1-1.59.285,2.86,2.86,0,0,1-2-.656,2.394,2.394,0,0,1-.723-1.867q0-2.594,4.148-2.719l1.453-.047v-.531a2.171,2.171,0,0,0-.434-1.488,1.783,1.783,0,0,0-1.387-.48,5.65,5.65,0,0,0-2.422.656l-.4-.992a6.094,6.094,0,0,1,1.387-.539,6.006,6.006,0,0,1,1.512-.2,3.262,3.262,0,0,1,2.27.68,2.837,2.837,0,0,1,.738,2.18V17Zm-2.93-.914a2.632,2.632,0,0,0,1.9-.664,2.457,2.457,0,0,0,.691-1.859v-.773l-1.3.055a4.717,4.717,0,0,0-2.23.48,1.449,1.449,0,0,0-.684,1.324,1.336,1.336,0,0,0,.426,1.07A1.767,1.767,0,0,0,243.3,16.086Zm9.984,1.07a3.654,3.654,0,0,1-2.879-1.145,4.707,4.707,0,0,1-1.02-3.238,4.853,4.853,0,0,1,1.035-3.32,3.727,3.727,0,0,1,2.949-1.172,5.852,5.852,0,0,1,1.234.133,4.066,4.066,0,0,1,.969.313l-.4,1.1a6.1,6.1,0,0,0-.937-.285,4.186,4.186,0,0,0-.9-.113q-2.609,0-2.609,3.328a3.963,3.963,0,0,0,.637,2.422,2.215,2.215,0,0,0,1.887.844,5.769,5.769,0,0,0,2.2-.461v1.148A4.679,4.679,0,0,1,253.289,17.156Zm11.586-4.445a4.724,4.724,0,0,1-1.055,3.27,3.714,3.714,0,0,1-2.914,1.176,3.86,3.86,0,0,1-2.039-.539,3.558,3.558,0,0,1-1.375-1.547,5.391,5.391,0,0,1-.484-2.359,4.716,4.716,0,0,1,1.047-3.262,3.7,3.7,0,0,1,2.906-1.168,3.622,3.622,0,0,1,2.855,1.2A4.7,4.7,0,0,1,264.875,12.711Zm-6.523,0a4.064,4.064,0,0,0,.656,2.5,2.6,2.6,0,0,0,3.863,0,4.044,4.044,0,0,0,.66-2.5,3.978,3.978,0,0,0-.66-2.48,2.32,2.32,0,0,0-1.949-.848,2.283,2.283,0,0,0-1.922.836A4.023,4.023,0,0,0,258.352,12.711ZM278.063,17V11.43a2.312,2.312,0,0,0-.437-1.535,1.692,1.692,0,0,0-1.359-.512,2.195,2.195,0,0,0-1.789.7,3.3,3.3,0,0,0-.578,2.141V17h-1.3V11.43a2.312,2.312,0,0,0-.437-1.535,1.7,1.7,0,0,0-1.367-.512,2.118,2.118,0,0,0-1.785.73,3.953,3.953,0,0,0-.566,2.395V17h-1.3V8.438H268.2l.211,1.172h.063a2.549,2.549,0,0,1,1.035-.977,3.162,3.162,0,0,1,1.5-.352,2.544,2.544,0,0,1,2.625,1.453h.063A2.73,2.73,0,0,1,274.8,8.672a3.442,3.442,0,0,1,1.656-.391,2.9,2.9,0,0,1,2.176.746,3.338,3.338,0,0,1,.723,2.387V17Zm7.953.156a3.706,3.706,0,0,1-1.527-.309,2.872,2.872,0,0,1-1.16-.949h-.094a11.485,11.485,0,0,1,.094,1.422v3.523h-1.3V8.438h1.055l.18,1.172h.063a3.012,3.012,0,0,1,1.164-1.016,3.539,3.539,0,0,1,1.523-.312,3.165,3.165,0,0,1,2.629,1.164,5.125,5.125,0,0,1,.926,3.266,5.1,5.1,0,0,1-.941,3.277A3.17,3.17,0,0,1,286.016,17.156Zm-.187-7.773a2.3,2.3,0,0,0-1.9.727,3.739,3.739,0,0,0-.6,2.313v.289a4.285,4.285,0,0,0,.6,2.582,2.288,2.288,0,0,0,1.93.777,2.007,2.007,0,0,0,1.738-.9,4.26,4.26,0,0,0,.629-2.477,4.1,4.1,0,0,0-.629-2.457A2.069,2.069,0,0,0,285.828,9.383ZM297.1,17l-.258-1.219h-.062a3.6,3.6,0,0,1-1.277,1.09,3.893,3.893,0,0,1-1.59.285,2.86,2.86,0,0,1-2-.656,2.394,2.394,0,0,1-.723-1.867q0-2.594,4.148-2.719l1.453-.047v-.531a2.171,2.171,0,0,0-.434-1.488,1.783,1.783,0,0,0-1.387-.48,5.65,5.65,0,0,0-2.422.656l-.4-.992a6.094,6.094,0,0,1,1.387-.539,6.006,6.006,0,0,1,1.512-.2,3.262,3.262,0,0,1,2.27.68,2.837,2.837,0,0,1,.738,2.18V17Zm-2.93-.914a2.632,2.632,0,0,0,1.9-.664,2.457,2.457,0,0,0,.691-1.859v-.773l-1.3.055a4.717,4.717,0,0,0-2.23.48,1.449,1.449,0,0,0-.684,1.324,1.336,1.336,0,0,0,.426,1.07A1.767,1.767,0,0,0,294.172,16.086ZM306.594,17V11.461a2.235,2.235,0,0,0-.477-1.562,1.941,1.941,0,0,0-1.492-.516,2.461,2.461,0,0,0-1.969.727,3.668,3.668,0,0,0-.625,2.4V17h-1.3V8.438h1.055L302,9.609h.063a2.648,2.648,0,0,1,1.117-.98,3.63,3.63,0,0,1,1.6-.348,3.252,3.252,0,0,1,2.328.746,3.175,3.175,0,0,1,.781,2.387V17Zm-.969-9.711a1.58,1.58,0,0,1-.656-.145q-.32-.145-.629-.32t-.594-.32a1.216,1.216,0,0,0-.551-.145.731.731,0,0,0-.59.234,1.678,1.678,0,0,0-.309.711h-.766a2.7,2.7,0,0,1,.551-1.48,1.445,1.445,0,0,1,1.16-.535,1.742,1.742,0,0,1,.7.145,6.122,6.122,0,0,1,.641.32q.3.176.586.32a1.167,1.167,0,0,0,.531.145.692.692,0,0,0,.57-.23,1.827,1.827,0,0,0,.3-.715h.773a2.74,2.74,0,0,1-.543,1.48A1.447,1.447,0,0,1,305.625,7.289ZM315.82,17l-.258-1.219H315.5a3.6,3.6,0,0,1-1.277,1.09,3.893,3.893,0,0,1-1.59.285,2.86,2.86,0,0,1-2-.656,2.394,2.394,0,0,1-.723-1.867q0-2.594,4.148-2.719l1.453-.047v-.531a2.171,2.171,0,0,0-.434-1.488,1.783,1.783,0,0,0-1.387-.48,5.65,5.65,0,0,0-2.422.656l-.4-.992a6.094,6.094,0,0,1,1.387-.539,6.006,6.006,0,0,1,1.512-.2,3.262,3.262,0,0,1,2.27.68,2.837,2.837,0,0,1,.738,2.18V17Zm-2.93-.914a2.632,2.632,0,0,0,1.9-.664,2.457,2.457,0,0,0,.691-1.859v-.773l-1.3.055a4.717,4.717,0,0,0-2.23.48,1.449,1.449,0,0,0-.684,1.324,1.336,1.336,0,0,0,.426,1.07A1.767,1.767,0,0,0,312.891,16.086Zm12.391-.234h-.07a3.047,3.047,0,0,1-2.687,1.3,3.179,3.179,0,0,1-2.613-1.148,5.055,5.055,0,0,1-.934-3.266,5.141,5.141,0,0,1,.938-3.289,3.155,3.155,0,0,1,2.609-1.172A3.114,3.114,0,0,1,325.2,9.547h.1l-.055-.617-.031-.6V4.844h1.3V17h-1.055Zm-2.594.219a2.361,2.361,0,0,0,1.926-.723,3.652,3.652,0,0,0,.6-2.332v-.273a4.3,4.3,0,0,0-.605-2.6,2.3,2.3,0,0,0-1.934-.777,1.985,1.985,0,0,0-1.746.887,4.409,4.409,0,0,0-.605,2.5,4.227,4.227,0,0,0,.6,2.477A2.037,2.037,0,0,0,322.688,16.07Zm13.961-3.359a4.724,4.724,0,0,1-1.055,3.27,3.714,3.714,0,0,1-2.914,1.176,3.86,3.86,0,0,1-2.039-.539,3.558,3.558,0,0,1-1.375-1.547,5.391,5.391,0,0,1-.484-2.359,4.716,4.716,0,0,1,1.047-3.262,3.7,3.7,0,0,1,2.906-1.168,3.622,3.622,0,0,1,2.855,1.2A4.7,4.7,0,0,1,336.648,12.711Zm-6.523,0a4.064,4.064,0,0,0,.656,2.5,2.6,2.6,0,0,0,3.863,0,4.044,4.044,0,0,0,.66-2.5,3.978,3.978,0,0,0-.66-2.48,2.32,2.32,0,0,0-1.949-.848,2.283,2.283,0,0,0-1.922.836A4.023,4.023,0,0,0,330.125,12.711Zm18.781,3.141h-.07a3.047,3.047,0,0,1-2.687,1.3,3.179,3.179,0,0,1-2.613-1.148,5.055,5.055,0,0,1-.934-3.266,5.141,5.141,0,0,1,.938-3.289,3.155,3.155,0,0,1,2.609-1.172,3.114,3.114,0,0,1,2.672,1.266h.1l-.055-.617-.031-.6V4.844h1.3V17h-1.055Zm-2.594.219a2.361,2.361,0,0,0,1.926-.723,3.652,3.652,0,0,0,.6-2.332v-.273a4.3,4.3,0,0,0-.605-2.6,2.3,2.3,0,0,0-1.934-.777,1.985,1.985,0,0,0-1.746.887,4.409,4.409,0,0,0-.605,2.5,4.227,4.227,0,0,0,.6,2.477A2.037,2.037,0,0,0,346.313,16.07ZM356.5,17.156a3.934,3.934,0,0,1-3-1.156,4.476,4.476,0,0,1-1.1-3.211,4.964,4.964,0,0,1,1.02-3.289,3.387,3.387,0,0,1,2.738-1.219,3.229,3.229,0,0,1,2.547,1.059,4.057,4.057,0,0,1,.938,2.793v.82h-5.9a3.394,3.394,0,0,0,.762,2.289,2.635,2.635,0,0,0,2.035.781,6.9,6.9,0,0,0,2.734-.578V16.6a6.864,6.864,0,0,1-1.3.426A7.31,7.31,0,0,1,356.5,17.156Zm-.352-7.789a2.118,2.118,0,0,0-1.645.672,3.1,3.1,0,0,0-.723,1.859h4.477a2.851,2.851,0,0,0-.547-1.879A1.925,1.925,0,0,0,356.148,9.367Zm11.086-.93v5.555a2.235,2.235,0,0,0,.477,1.563,1.941,1.941,0,0,0,1.492.516,2.435,2.435,0,0,0,1.965-.734,3.7,3.7,0,0,0,.621-2.4v-4.5h1.3V17h-1.07l-.187-1.148h-.07a2.585,2.585,0,0,1-1.105.969,3.716,3.716,0,0,1-1.613.336,3.273,3.273,0,0,1-2.34-.742,3.159,3.159,0,0,1-.777-2.375v-5.6ZM381.7,17V11.461a2.235,2.235,0,0,0-.477-1.562,1.941,1.941,0,0,0-1.492-.516,2.461,2.461,0,0,0-1.969.727,3.668,3.668,0,0,0-.625,2.4V17h-1.3V8.438h1.055l.211,1.172h.063a2.648,2.648,0,0,1,1.117-.98,3.63,3.63,0,0,1,1.6-.348,3.252,3.252,0,0,1,2.328.746,3.175,3.175,0,0,1,.781,2.387V17ZM6.9,36.664a2.145,2.145,0,0,1-.891,1.844,4.186,4.186,0,0,1-2.5.648,5.436,5.436,0,0,1-2.656-.539v-1.2a6.424,6.424,0,0,0,1.324.492,5.53,5.53,0,0,0,1.363.18A3.092,3.092,0,0,0,5.1,37.762a1.116,1.116,0,0,0,.113-1.844,6.82,6.82,0,0,0-1.691-.84,9.172,9.172,0,0,1-1.7-.777,2.321,2.321,0,0,1-.75-.754,1.966,1.966,0,0,1-.246-1.008,1.921,1.921,0,0,1,.852-1.652,3.968,3.968,0,0,1,2.336-.605,6.835,6.835,0,0,1,2.7.563L6.258,31.9a6.2,6.2,0,0,0-2.336-.531,2.687,2.687,0,0,0-1.391.289.894.894,0,0,0-.469.8.971.971,0,0,0,.176.586A1.735,1.735,0,0,0,2.8,33.5a12.658,12.658,0,0,0,1.5.633A5.6,5.6,0,0,1,6.363,35.25,1.97,1.97,0,0,1,6.9,36.664Zm3.328-6.227v5.555a2.235,2.235,0,0,0,.477,1.563,1.941,1.941,0,0,0,1.492.516,2.435,2.435,0,0,0,1.965-.734,3.7,3.7,0,0,0,.621-2.4v-4.5h1.3V39h-1.07l-.187-1.148h-.07a2.585,2.585,0,0,1-1.105.969,3.716,3.716,0,0,1-1.613.336,3.273,3.273,0,0,1-2.34-.742,3.159,3.159,0,0,1-.777-2.375v-5.6ZM22.813,30.3a3.183,3.183,0,0,1,2.621,1.152,5.058,5.058,0,0,1,.934,3.262,5.1,5.1,0,0,1-.941,3.277,3.17,3.17,0,0,1-2.613,1.168,3.705,3.705,0,0,1-1.527-.309,2.872,2.872,0,0,1-1.16-.949h-.094L19.758,39h-.93V26.844h1.3V29.8q0,.992-.062,1.781h.063A3.079,3.079,0,0,1,22.813,30.3Zm-.187,1.086a2.264,2.264,0,0,0-1.914.762,4.3,4.3,0,0,0-.586,2.566,4.285,4.285,0,0,0,.6,2.582,2.288,2.288,0,0,0,1.93.777,2,2,0,0,0,1.781-.871,4.477,4.477,0,0,0,.586-2.5,4.3,4.3,0,0,0-.586-2.492A2.076,2.076,0,0,0,22.625,31.383Zm8.773,6.7a4.236,4.236,0,0,0,.664-.051,4.3,4.3,0,0,0,.508-.105v.992a2.371,2.371,0,0,1-.621.168,4.664,4.664,0,0,1-.738.066q-2.484,0-2.484-2.617V31.445H27.5V30.82l1.227-.539.547-1.828h.75v1.984h2.484v1.008H30.023v5.039a1.734,1.734,0,0,0,.367,1.188A1.278,1.278,0,0,0,31.4,38.086Zm4.18.914h-1.3V30.438h1.3Zm-1.352-9.891q.375-.484.809-1.172a13.412,13.412,0,0,0,.684-1.2H37.3v.164a14.473,14.473,0,0,1-2.2,2.4h-.867Zm6.867,8.977a4.236,4.236,0,0,0,.664-.051,4.3,4.3,0,0,0,.508-.105v.992a2.371,2.371,0,0,1-.621.168,4.664,4.664,0,0,1-.738.066q-2.484,0-2.484-2.617V31.445H37.2V30.82l1.227-.539.547-1.828h.75v1.984H42.2v1.008H39.719v5.039a1.734,1.734,0,0,0,.367,1.188A1.278,1.278,0,0,0,41.094,38.086Zm4.1-7.648v5.555a2.235,2.235,0,0,0,.477,1.563,1.941,1.941,0,0,0,1.492.516,2.435,2.435,0,0,0,1.965-.734,3.7,3.7,0,0,0,.621-2.4v-4.5h1.3V39h-1.07l-.187-1.148h-.07a2.585,2.585,0,0,1-1.105.969A3.716,3.716,0,0,1,47,39.156a3.273,3.273,0,0,1-2.34-.742,3.159,3.159,0,0,1-.777-2.375v-5.6ZM55.094,39H53.8V26.844h1.3Zm10.141-4.289a4.724,4.724,0,0,1-1.055,3.27,3.714,3.714,0,0,1-2.914,1.176,3.86,3.86,0,0,1-2.039-.539,3.558,3.558,0,0,1-1.375-1.547,5.391,5.391,0,0,1-.484-2.359,4.716,4.716,0,0,1,1.047-3.262,3.7,3.7,0,0,1,2.906-1.168,3.622,3.622,0,0,1,2.855,1.2A4.7,4.7,0,0,1,65.234,34.711Zm-6.523,0a4.064,4.064,0,0,0,.656,2.5,2.6,2.6,0,0,0,3.863,0,4.043,4.043,0,0,0,.66-2.5,3.978,3.978,0,0,0-.66-2.48,2.32,2.32,0,0,0-1.949-.848,2.283,2.283,0,0,0-1.922.836A4.023,4.023,0,0,0,58.711,34.711Zm16.57,4.445a3.934,3.934,0,0,1-3-1.156,4.476,4.476,0,0,1-1.1-3.211,4.964,4.964,0,0,1,1.02-3.289,3.387,3.387,0,0,1,2.738-1.219,3.229,3.229,0,0,1,2.547,1.059,4.057,4.057,0,0,1,.938,2.793v.82h-5.9a3.394,3.394,0,0,0,.762,2.289,2.635,2.635,0,0,0,2.035.781,6.9,6.9,0,0,0,2.734-.578V38.6a6.863,6.863,0,0,1-1.3.426A7.31,7.31,0,0,1,75.281,39.156Zm-.352-7.789a2.118,2.118,0,0,0-1.645.672,3.1,3.1,0,0,0-.723,1.859h4.477a2.851,2.851,0,0,0-.547-1.879A1.925,1.925,0,0,0,74.93,31.367Zm7.453,3.25-2.977-4.18h1.477l2.258,3.281,2.25-3.281h1.461l-2.977,4.18L87.008,39H85.539l-2.4-3.469L80.719,39H79.25Zm10.3,4.539a3.706,3.706,0,0,1-1.527-.309A2.872,2.872,0,0,1,90,37.9h-.094A11.485,11.485,0,0,1,90,39.32v3.523H88.7V30.438h1.055l.18,1.172H90a3.012,3.012,0,0,1,1.164-1.016,3.539,3.539,0,0,1,1.523-.312,3.165,3.165,0,0,1,2.629,1.164,5.125,5.125,0,0,1,.926,3.266,5.1,5.1,0,0,1-.941,3.277A3.17,3.17,0,0,1,92.688,39.156ZM92.5,31.383a2.3,2.3,0,0,0-1.9.727,3.739,3.739,0,0,0-.6,2.313v.289a4.285,4.285,0,0,0,.6,2.582,2.288,2.288,0,0,0,1.93.777,2.007,2.007,0,0,0,1.738-.9A4.26,4.26,0,0,0,94.9,34.7a4.1,4.1,0,0,0-.629-2.457A2.069,2.069,0,0,0,92.5,31.383ZM99.8,39h-1.3V26.844h1.3Zm4.047,0h-1.3V30.438h1.3Zm-1.406-10.883a.861.861,0,0,1,.219-.652.81.81,0,0,1,1.086,0,.846.846,0,0,1,.227.648.859.859,0,0,1-.227.652.794.794,0,0,1-1.086,0A.877.877,0,0,1,102.445,28.117Zm7.578,11.039a3.654,3.654,0,0,1-2.879-1.145,4.707,4.707,0,0,1-1.02-3.238,4.853,4.853,0,0,1,1.035-3.32,3.727,3.727,0,0,1,2.949-1.172,5.852,5.852,0,0,1,1.234.133,4.066,4.066,0,0,1,.969.313l-.4,1.1a6.1,6.1,0,0,0-.937-.285,4.186,4.186,0,0,0-.9-.113q-2.609,0-2.609,3.328a3.963,3.963,0,0,0,.637,2.422,2.215,2.215,0,0,0,1.887.844,5.769,5.769,0,0,0,2.2-.461v1.148A4.679,4.679,0,0,1,110.023,39.156ZM119.484,39l-.258-1.219h-.062a3.6,3.6,0,0,1-1.277,1.09,3.893,3.893,0,0,1-1.59.285,2.86,2.86,0,0,1-2-.656,2.394,2.394,0,0,1-.723-1.867q0-2.594,4.148-2.719l1.453-.047v-.531a2.171,2.171,0,0,0-.434-1.488,1.783,1.783,0,0,0-1.387-.48,5.65,5.65,0,0,0-2.422.656l-.4-.992a6.094,6.094,0,0,1,1.387-.539,6.006,6.006,0,0,1,1.512-.2,3.262,3.262,0,0,1,2.27.68,2.837,2.837,0,0,1,.738,2.18V39Zm-2.93-.914a2.632,2.632,0,0,0,1.9-.664,2.457,2.457,0,0,0,.691-1.859v-.773l-1.3.055a4.717,4.717,0,0,0-2.23.48,1.449,1.449,0,0,0-.684,1.324,1.336,1.336,0,0,0,.426,1.07A1.767,1.767,0,0,0,116.555,38.086Zm9.328,0a4.236,4.236,0,0,0,.664-.051,4.3,4.3,0,0,0,.508-.105v.992a2.371,2.371,0,0,1-.621.168,4.664,4.664,0,0,1-.738.066q-2.484,0-2.484-2.617V31.445h-1.227V30.82l1.227-.539.547-1.828h.75v1.984h2.484v1.008h-2.484v5.039a1.734,1.734,0,0,0,.367,1.188A1.278,1.278,0,0,0,125.883,38.086Zm4.18.914h-1.3V30.438h1.3Zm-1.406-10.883a.861.861,0,0,1,.219-.652.81.81,0,0,1,1.086,0,.846.846,0,0,1,.227.648.859.859,0,0,1-.227.652.794.794,0,0,1-1.086,0A.877.877,0,0,1,128.656,28.117ZM134.688,39l-3.25-8.562h1.391l1.844,5.078a24.035,24.035,0,0,1,.734,2.313h.063a17.468,17.468,0,0,1,.543-1.715q.457-1.3,2.051-5.676h1.391L136.2,39Zm13.531-4.289a4.724,4.724,0,0,1-1.055,3.27,3.714,3.714,0,0,1-2.914,1.176,3.86,3.86,0,0,1-2.039-.539,3.558,3.558,0,0,1-1.375-1.547,5.391,5.391,0,0,1-.484-2.359,4.716,4.716,0,0,1,1.047-3.262,3.7,3.7,0,0,1,2.906-1.168,3.622,3.622,0,0,1,2.855,1.2A4.7,4.7,0,0,1,148.219,34.711Zm-6.523,0a4.064,4.064,0,0,0,.656,2.5,2.6,2.6,0,0,0,3.863,0,4.043,4.043,0,0,0,.66-2.5,3.978,3.978,0,0,0-.66-2.48,2.32,2.32,0,0,0-1.949-.848,2.283,2.283,0,0,0-1.922.836A4.023,4.023,0,0,0,141.7,34.711Zm8.609,3.461a1.164,1.164,0,0,1,.238-.793.864.864,0,0,1,.684-.27.924.924,0,0,1,.707.27,1.116,1.116,0,0,1,.254.793,1.1,1.1,0,0,1-.258.781,1.025,1.025,0,0,1-1.363.027A1.07,1.07,0,0,1,150.3,38.172ZM8.75,83,7.328,79.367H2.75L1.344,83H0L4.516,71.531H5.633L10.125,83ZM6.914,78.172,5.586,74.633q-.258-.672-.531-1.648a14.8,14.8,0,0,1-.492,1.648L3.219,78.172Zm11.977,3.9a2.356,2.356,0,0,0,1.891-.7,3.766,3.766,0,0,0,.633-2.344v-.289a4.282,4.282,0,0,0-.609-2.586,2.285,2.285,0,0,0-1.93-.789,1.985,1.985,0,0,0-1.746.887,4.409,4.409,0,0,0-.605,2.5,4.258,4.258,0,0,0,.6,2.465A2.025,2.025,0,0,0,18.891,82.07Zm-.2,1.086a3.124,3.124,0,0,1-2.586-1.164,5.082,5.082,0,0,1-.93-3.25,5.147,5.147,0,0,1,.938-3.281,3.146,3.146,0,0,1,2.609-1.18,3.118,3.118,0,0,1,2.7,1.328h.07l.188-1.172h1.023V86.844h-1.3V83.18a8.726,8.726,0,0,1,.086-1.328h-.1A3.063,3.063,0,0,1,18.7,83.156Zm7.984-8.719v5.555a2.235,2.235,0,0,0,.477,1.563,1.941,1.941,0,0,0,1.492.516,2.435,2.435,0,0,0,1.965-.734,3.7,3.7,0,0,0,.621-2.4v-4.5h1.3V83h-1.07l-.187-1.148H31.2a2.585,2.585,0,0,1-1.105.969,3.716,3.716,0,0,1-1.613.336,3.273,3.273,0,0,1-2.34-.742,3.159,3.159,0,0,1-.777-2.375v-5.6ZM36.578,83h-1.3V74.438h1.3ZM35.172,72.117a.861.861,0,0,1,.219-.652.81.81,0,0,1,1.086,0,.846.846,0,0,1,.227.648.859.859,0,0,1-.227.652.794.794,0,0,1-1.086,0A.877.877,0,0,1,35.172,72.117Zm7.773,11.039a3.934,3.934,0,0,1-3-1.156,4.476,4.476,0,0,1-1.1-3.211,4.964,4.964,0,0,1,1.02-3.289,3.387,3.387,0,0,1,2.738-1.219,3.229,3.229,0,0,1,2.547,1.059,4.057,4.057,0,0,1,.938,2.793v.82H40.2a3.394,3.394,0,0,0,.762,2.289,2.634,2.634,0,0,0,2.035.781,6.9,6.9,0,0,0,2.734-.578V82.6a6.863,6.863,0,0,1-1.3.426A7.31,7.31,0,0,1,42.945,83.156Zm-.352-7.789a2.118,2.118,0,0,0-1.645.672,3.1,3.1,0,0,0-.723,1.859H44.7a2.851,2.851,0,0,0-.547-1.879A1.925,1.925,0,0,0,42.594,75.367ZM54.164,83V77.461a2.235,2.235,0,0,0-.477-1.562,1.941,1.941,0,0,0-1.492-.516,2.461,2.461,0,0,0-1.969.727,3.668,3.668,0,0,0-.625,2.4V83H48.3V74.438h1.055l.211,1.172h.063a2.648,2.648,0,0,1,1.117-.98,3.63,3.63,0,0,1,1.6-.348,3.252,3.252,0,0,1,2.328.746,3.175,3.175,0,0,1,.781,2.387V83Zm15.508-4.289a4.724,4.724,0,0,1-1.055,3.27A3.714,3.714,0,0,1,65.7,83.156a3.86,3.86,0,0,1-2.039-.539,3.558,3.558,0,0,1-1.375-1.547,5.391,5.391,0,0,1-.484-2.359,4.716,4.716,0,0,1,1.047-3.262,3.7,3.7,0,0,1,2.906-1.168,3.622,3.622,0,0,1,2.855,1.2A4.7,4.7,0,0,1,69.672,78.711Zm-6.523,0a4.064,4.064,0,0,0,.656,2.5,2.6,2.6,0,0,0,3.863,0,4.043,4.043,0,0,0,.66-2.5,3.978,3.978,0,0,0-.66-2.48,2.32,2.32,0,0,0-1.949-.848,2.283,2.283,0,0,0-1.922.836A4.023,4.023,0,0,0,63.148,78.711ZM81.367,83l-.258-1.219h-.062a3.6,3.6,0,0,1-1.277,1.09,3.893,3.893,0,0,1-1.59.285,2.86,2.86,0,0,1-2-.656,2.394,2.394,0,0,1-.723-1.867q0-2.594,4.148-2.719l1.453-.047v-.531a2.171,2.171,0,0,0-.434-1.488,1.783,1.783,0,0,0-1.387-.48,5.65,5.65,0,0,0-2.422.656l-.4-.992a6.094,6.094,0,0,1,1.387-.539,6.006,6.006,0,0,1,1.512-.2,3.262,3.262,0,0,1,2.27.68,2.837,2.837,0,0,1,.738,2.18V83Zm-2.93-.914a2.632,2.632,0,0,0,1.9-.664,2.457,2.457,0,0,0,.691-1.859v-.773l-1.3.055a4.717,4.717,0,0,0-2.23.48,1.449,1.449,0,0,0-.684,1.324,1.336,1.336,0,0,0,.426,1.07A1.767,1.767,0,0,0,78.438,82.086Zm13.953-.016a2.356,2.356,0,0,0,1.891-.7,3.766,3.766,0,0,0,.633-2.344v-.289a4.282,4.282,0,0,0-.609-2.586,2.285,2.285,0,0,0-1.93-.789,1.985,1.985,0,0,0-1.746.887,4.409,4.409,0,0,0-.605,2.5,4.258,4.258,0,0,0,.6,2.465A2.025,2.025,0,0,0,92.391,82.07Zm-.2,1.086a3.124,3.124,0,0,1-2.586-1.164,5.082,5.082,0,0,1-.93-3.25,5.147,5.147,0,0,1,.938-3.281,3.444,3.444,0,0,1,5.313.148H95l.188-1.172h1.023V86.844h-1.3V83.18A8.727,8.727,0,0,1,95,81.852h-.1A3.063,3.063,0,0,1,92.2,83.156Zm7.984-8.719v5.555a2.235,2.235,0,0,0,.477,1.563,1.941,1.941,0,0,0,1.492.516,2.435,2.435,0,0,0,1.965-.734,3.7,3.7,0,0,0,.621-2.4v-4.5h1.3V83h-1.07l-.187-1.148h-.07a2.585,2.585,0,0,1-1.105.969,3.716,3.716,0,0,1-1.613.336,3.273,3.273,0,0,1-2.34-.742,3.159,3.159,0,0,1-.777-2.375v-5.6Zm9.9,8.563h-1.3V74.438h1.3Zm-1.406-10.883a.861.861,0,0,1,.219-.652.81.81,0,0,1,1.086,0,.846.846,0,0,1,.227.648.859.859,0,0,1-.227.652.794.794,0,0,1-1.086,0A.877.877,0,0,1,108.672,72.117Zm7.773,11.039a3.934,3.934,0,0,1-3-1.156,4.476,4.476,0,0,1-1.1-3.211,4.964,4.964,0,0,1,1.02-3.289,3.387,3.387,0,0,1,2.738-1.219,3.229,3.229,0,0,1,2.547,1.059,4.057,4.057,0,0,1,.938,2.793v.82h-5.9a3.394,3.394,0,0,0,.762,2.289,2.634,2.634,0,0,0,2.035.781,6.9,6.9,0,0,0,2.734-.578V82.6a6.863,6.863,0,0,1-1.3.426A7.31,7.31,0,0,1,116.445,83.156Zm-.352-7.789a2.118,2.118,0,0,0-1.645.672,3.1,3.1,0,0,0-.723,1.859H118.2a2.851,2.851,0,0,0-.547-1.879A1.925,1.925,0,0,0,116.094,75.367ZM127.664,83V77.461a2.235,2.235,0,0,0-.477-1.562,1.941,1.941,0,0,0-1.492-.516,2.461,2.461,0,0,0-1.969.727,3.668,3.668,0,0,0-.625,2.4V83h-1.3V74.438h1.055l.211,1.172h.063a2.648,2.648,0,0,1,1.117-.98,3.63,3.63,0,0,1,1.6-.348,3.252,3.252,0,0,1,2.328.746,3.175,3.175,0,0,1,.781,2.387V83Zm7.578.156a3.934,3.934,0,0,1-3-1.156,4.476,4.476,0,0,1-1.1-3.211,4.964,4.964,0,0,1,1.02-3.289,3.387,3.387,0,0,1,2.738-1.219,3.229,3.229,0,0,1,2.547,1.059,4.057,4.057,0,0,1,.938,2.793v.82h-5.9a3.394,3.394,0,0,0,.762,2.289,2.634,2.634,0,0,0,2.035.781,6.9,6.9,0,0,0,2.734-.578V82.6a6.863,6.863,0,0,1-1.3.426A7.31,7.31,0,0,1,135.242,83.156Zm-.352-7.789a2.118,2.118,0,0,0-1.645.672,3.1,3.1,0,0,0-.723,1.859H137a2.851,2.851,0,0,0-.547-1.879A1.925,1.925,0,0,0,134.891,75.367Zm11.234,5.3a2.145,2.145,0,0,1-.891,1.844,4.186,4.186,0,0,1-2.5.648,5.436,5.436,0,0,1-2.656-.539v-1.2a6.423,6.423,0,0,0,1.324.492,5.53,5.53,0,0,0,1.363.18,3.092,3.092,0,0,0,1.563-.324,1.116,1.116,0,0,0,.113-1.844,6.82,6.82,0,0,0-1.691-.84,9.172,9.172,0,0,1-1.7-.777,2.321,2.321,0,0,1-.75-.754,1.966,1.966,0,0,1-.246-1.008,1.921,1.921,0,0,1,.852-1.652,3.968,3.968,0,0,1,2.336-.605,6.835,6.835,0,0,1,2.7.563l-.461,1.055a6.2,6.2,0,0,0-2.336-.531,2.687,2.687,0,0,0-1.391.289.894.894,0,0,0-.469.8.971.971,0,0,0,.176.586,1.735,1.735,0,0,0,.566.461,12.658,12.658,0,0,0,1.5.633,5.6,5.6,0,0,1,2.059,1.117A1.97,1.97,0,0,1,146.125,80.664Zm11.789,0a2.145,2.145,0,0,1-.891,1.844,4.186,4.186,0,0,1-2.5.648,5.436,5.436,0,0,1-2.656-.539v-1.2a6.423,6.423,0,0,0,1.324.492,5.53,5.53,0,0,0,1.363.18,3.092,3.092,0,0,0,1.563-.324,1.116,1.116,0,0,0,.113-1.844,6.82,6.82,0,0,0-1.691-.84,9.172,9.172,0,0,1-1.7-.777,2.321,2.321,0,0,1-.75-.754,1.966,1.966,0,0,1-.246-1.008,1.921,1.921,0,0,1,.852-1.652,3.968,3.968,0,0,1,2.336-.605,6.835,6.835,0,0,1,2.7.563l-.461,1.055a6.2,6.2,0,0,0-2.336-.531,2.687,2.687,0,0,0-1.391.289.894.894,0,0,0-.469.8.971.971,0,0,0,.176.586,1.735,1.735,0,0,0,.566.461,12.658,12.658,0,0,0,1.5.633,5.6,5.6,0,0,1,2.059,1.117A1.97,1.97,0,0,1,157.914,80.664Zm5.727,2.492a3.934,3.934,0,0,1-3-1.156,4.476,4.476,0,0,1-1.1-3.211,4.964,4.964,0,0,1,1.02-3.289,3.387,3.387,0,0,1,2.738-1.219,3.229,3.229,0,0,1,2.547,1.059,4.057,4.057,0,0,1,.938,2.793v.82h-5.9a3.394,3.394,0,0,0,.762,2.289,2.634,2.634,0,0,0,2.035.781,6.9,6.9,0,0,0,2.734-.578V82.6a6.863,6.863,0,0,1-1.3.426A7.31,7.31,0,0,1,163.641,83.156Zm-.352-7.789a2.118,2.118,0,0,0-1.645.672,3.1,3.1,0,0,0-.723,1.859H165.4a2.851,2.851,0,0,0-.547-1.879A1.925,1.925,0,0,0,163.289,75.367Zm15.7,6.484h-.07a3.047,3.047,0,0,1-2.687,1.3,3.179,3.179,0,0,1-2.613-1.148,5.055,5.055,0,0,1-.934-3.266,5.14,5.14,0,0,1,.938-3.289,3.155,3.155,0,0,1,2.609-1.172,3.114,3.114,0,0,1,2.672,1.266h.1l-.055-.617-.031-.6V70.844h1.3V83h-1.055Zm-2.594.219a2.361,2.361,0,0,0,1.926-.723,3.652,3.652,0,0,0,.6-2.332v-.273a4.3,4.3,0,0,0-.605-2.6,2.3,2.3,0,0,0-1.934-.777,1.985,1.985,0,0,0-1.746.887,4.409,4.409,0,0,0-.605,2.5,4.227,4.227,0,0,0,.6,2.477A2.037,2.037,0,0,0,176.391,82.07Zm7.867.93h-1.3V74.438h1.3Zm-1.406-10.883a.861.861,0,0,1,.219-.652.81.81,0,0,1,1.086,0,.846.846,0,0,1,.227.648.859.859,0,0,1-.227.652.794.794,0,0,1-1.086,0A.877.877,0,0,1,182.852,72.117Zm8.063,2.164a5.075,5.075,0,0,1,1.023.094l-.18,1.2a4.418,4.418,0,0,0-.937-.117,2.282,2.282,0,0,0-1.777.844,3.077,3.077,0,0,0-.738,2.1V83h-1.3V74.438h1.07l.148,1.586h.063a3.764,3.764,0,0,1,1.148-1.289A2.585,2.585,0,0,1,190.914,74.281ZM194.836,83h-1.3V74.438h1.3ZM193.43,72.117a.861.861,0,0,1,.219-.652.81.81,0,0,1,1.086,0,.846.846,0,0,1,.227.648.859.859,0,0,1-.227.652.794.794,0,0,1-1.086,0A.877.877,0,0,1,193.43,72.117Zm11.164,2.32v.82l-1.586.188a2.785,2.785,0,0,1,.563,1.711,2.531,2.531,0,0,1-.859,2.008,3.467,3.467,0,0,1-2.359.75,3.929,3.929,0,0,1-.719-.062,1.276,1.276,0,0,0-.828,1.1.56.56,0,0,0,.289.52,2.112,2.112,0,0,0,.992.168H201.6a3.394,3.394,0,0,1,2.137.586,2.036,2.036,0,0,1,.746,1.7,2.431,2.431,0,0,1-1.141,2.168,6.1,6.1,0,0,1-3.328.746,4.547,4.547,0,0,1-2.59-.625,2.018,2.018,0,0,1-.91-1.766,1.983,1.983,0,0,1,.5-1.352,2.546,2.546,0,0,1,1.406-.773,1.357,1.357,0,0,1-.551-.461,1.22,1.22,0,0,1-.223-.727,1.379,1.379,0,0,1,.25-.82,2.628,2.628,0,0,1,.789-.68,2.313,2.313,0,0,1-1.082-.93,2.732,2.732,0,0,1-.418-1.5,2.771,2.771,0,0,1,.844-2.168,3.445,3.445,0,0,1,2.391-.762,4.347,4.347,0,0,1,1.211.156Zm-6.828,10a1.162,1.162,0,0,0,.586,1.055,3.234,3.234,0,0,0,1.68.359,4.687,4.687,0,0,0,2.418-.488,1.5,1.5,0,0,0,.785-1.324,1.048,1.048,0,0,0-.43-.965,3.337,3.337,0,0,0-1.617-.27h-1.555a2.048,2.048,0,0,0-1.375.422A1.507,1.507,0,0,0,197.766,84.438Zm.7-7.258a1.743,1.743,0,0,0,.508,1.359,2.028,2.028,0,0,0,1.414.461,1.654,1.654,0,0,0,1.9-1.844,1.7,1.7,0,0,0-1.922-1.93,1.9,1.9,0,0,0-1.406.492A1.982,1.982,0,0,0,198.469,77.18Zm11.5,5.977a3.934,3.934,0,0,1-3-1.156,4.476,4.476,0,0,1-1.1-3.211,4.964,4.964,0,0,1,1.02-3.289,3.387,3.387,0,0,1,2.738-1.219,3.229,3.229,0,0,1,2.547,1.059,4.057,4.057,0,0,1,.938,2.793v.82h-5.9a3.394,3.394,0,0,0,.762,2.289,2.634,2.634,0,0,0,2.035.781,6.9,6.9,0,0,0,2.734-.578V82.6a6.863,6.863,0,0,1-1.3.426A7.31,7.31,0,0,1,209.969,83.156Zm-.352-7.789a2.118,2.118,0,0,0-1.645.672,3.1,3.1,0,0,0-.723,1.859h4.477a2.851,2.851,0,0,0-.547-1.879A1.925,1.925,0,0,0,209.617,75.367Zm5.523,6.8a1.164,1.164,0,0,1,.238-.793.864.864,0,0,1,.684-.27.924.924,0,0,1,.707.27,1.116,1.116,0,0,1,.254.793,1.1,1.1,0,0,1-.258.781,1.025,1.025,0,0,1-1.363.027A1.07,1.07,0,0,1,215.141,82.172ZM2.9,122.25V127H1.57V115.578H4.7a4.929,4.929,0,0,1,3.105.8,2.918,2.918,0,0,1,1,2.422,3.033,3.033,0,0,1-2.3,3.063L9.617,127H8.047l-2.766-4.75Zm0-1.141h1.82a3.144,3.144,0,0,0,2.063-.559,2.079,2.079,0,0,0,.656-1.676,1.907,1.907,0,0,0-.668-1.633,3.619,3.619,0,0,0-2.145-.5H2.9Zm11.984,6.047a3.934,3.934,0,0,1-3-1.156,4.476,4.476,0,0,1-1.1-3.211,4.964,4.964,0,0,1,1.02-3.289,3.387,3.387,0,0,1,2.738-1.219,3.229,3.229,0,0,1,2.547,1.059,4.057,4.057,0,0,1,.938,2.793v.82h-5.9a3.394,3.394,0,0,0,.762,2.289,2.634,2.634,0,0,0,2.035.781,6.9,6.9,0,0,0,2.734-.578V126.6a6.863,6.863,0,0,1-1.3.426A7.31,7.31,0,0,1,14.883,127.156Zm-.352-7.789a2.118,2.118,0,0,0-1.645.672,3.1,3.1,0,0,0-.723,1.859h4.477a2.851,2.851,0,0,0-.547-1.879A1.925,1.925,0,0,0,14.531,119.367Zm11.234,5.3a2.145,2.145,0,0,1-.891,1.844,4.186,4.186,0,0,1-2.5.648,5.436,5.436,0,0,1-2.656-.539v-1.2a6.423,6.423,0,0,0,1.324.492,5.53,5.53,0,0,0,1.363.18,3.092,3.092,0,0,0,1.563-.324,1.116,1.116,0,0,0,.113-1.844,6.82,6.82,0,0,0-1.691-.84,9.172,9.172,0,0,1-1.7-.777,2.321,2.321,0,0,1-.75-.754,1.966,1.966,0,0,1-.246-1.008,1.921,1.921,0,0,1,.852-1.652,3.968,3.968,0,0,1,2.336-.605,6.835,6.835,0,0,1,2.7.563l-.461,1.055a6.2,6.2,0,0,0-2.336-.531,2.687,2.687,0,0,0-1.391.289.894.894,0,0,0-.469.8.971.971,0,0,0,.176.586,1.735,1.735,0,0,0,.566.461,12.657,12.657,0,0,0,1.5.633,5.6,5.6,0,0,1,2.059,1.117A1.97,1.97,0,0,1,25.766,124.664Zm6.094,2.492a3.706,3.706,0,0,1-1.527-.309,2.872,2.872,0,0,1-1.16-.949h-.094a11.485,11.485,0,0,1,.094,1.422v3.523h-1.3V118.438H28.93l.18,1.172h.063a3.012,3.012,0,0,1,1.164-1.016,3.539,3.539,0,0,1,1.523-.312,3.165,3.165,0,0,1,2.629,1.164,6.2,6.2,0,0,1-.016,6.543A3.17,3.17,0,0,1,31.859,127.156Zm-.187-7.773a2.3,2.3,0,0,0-1.9.727,3.739,3.739,0,0,0-.6,2.313v.289a4.285,4.285,0,0,0,.6,2.582,2.288,2.288,0,0,0,1.93.777,2.007,2.007,0,0,0,1.738-.9,4.26,4.26,0,0,0,.629-2.477,4.1,4.1,0,0,0-.629-2.457A2.069,2.069,0,0,0,31.672,119.383Zm13.4,3.328a4.724,4.724,0,0,1-1.055,3.27,3.714,3.714,0,0,1-2.914,1.176,3.86,3.86,0,0,1-2.039-.539,3.558,3.558,0,0,1-1.375-1.547,5.391,5.391,0,0,1-.484-2.359,4.716,4.716,0,0,1,1.047-3.262,3.7,3.7,0,0,1,2.906-1.168,3.622,3.622,0,0,1,2.855,1.2A4.7,4.7,0,0,1,45.07,122.711Zm-6.523,0a4.064,4.064,0,0,0,.656,2.5,2.6,2.6,0,0,0,3.863,0,4.043,4.043,0,0,0,.66-2.5,3.978,3.978,0,0,0-.66-2.48,2.32,2.32,0,0,0-1.949-.848,2.283,2.283,0,0,0-1.922.836A4.023,4.023,0,0,0,38.547,122.711ZM53.2,127v-5.539a2.235,2.235,0,0,0-.477-1.562,1.941,1.941,0,0,0-1.492-.516,2.461,2.461,0,0,0-1.969.727,3.668,3.668,0,0,0-.625,2.4V127h-1.3v-8.562H48.4l.211,1.172h.063a2.648,2.648,0,0,1,1.117-.98,3.63,3.63,0,0,1,1.6-.348,3.252,3.252,0,0,1,2.328.746,3.175,3.175,0,0,1,.781,2.387V127Zm9.484-2.336a2.145,2.145,0,0,1-.891,1.844,4.186,4.186,0,0,1-2.5.648,5.436,5.436,0,0,1-2.656-.539v-1.2a6.423,6.423,0,0,0,1.324.492,5.53,5.53,0,0,0,1.363.18,3.092,3.092,0,0,0,1.563-.324A1.116,1.116,0,0,0,61,123.918a6.82,6.82,0,0,0-1.691-.84,9.172,9.172,0,0,1-1.7-.777,2.321,2.321,0,0,1-.75-.754,1.966,1.966,0,0,1-.246-1.008,1.921,1.921,0,0,1,.852-1.652,3.968,3.968,0,0,1,2.336-.605,6.835,6.835,0,0,1,2.7.563l-.461,1.055a6.2,6.2,0,0,0-2.336-.531,2.687,2.687,0,0,0-1.391.289.894.894,0,0,0-.469.8.971.971,0,0,0,.176.586,1.735,1.735,0,0,0,.566.461,12.657,12.657,0,0,0,1.5.633,5.6,5.6,0,0,1,2.059,1.117A1.97,1.97,0,0,1,62.688,124.664ZM70.063,127l-.258-1.219h-.062a3.6,3.6,0,0,1-1.277,1.09,3.893,3.893,0,0,1-1.59.285,2.86,2.86,0,0,1-2-.656,2.394,2.394,0,0,1-.723-1.867q0-2.594,4.148-2.719l1.453-.047v-.531a2.171,2.171,0,0,0-.434-1.488,1.783,1.783,0,0,0-1.387-.48,5.65,5.65,0,0,0-2.422.656l-.4-.992a6.094,6.094,0,0,1,1.387-.539,6.006,6.006,0,0,1,1.512-.2,3.262,3.262,0,0,1,2.27.68,2.837,2.837,0,0,1,.738,2.18V127Zm-2.93-.914a2.632,2.632,0,0,0,1.9-.664,2.457,2.457,0,0,0,.691-1.859v-.773l-1.3.055a4.717,4.717,0,0,0-2.23.48,1.449,1.449,0,0,0-.684,1.324,1.336,1.336,0,0,0,.426,1.07A1.767,1.767,0,0,0,67.133,126.086ZM77.68,118.3a3.183,3.183,0,0,1,2.621,1.152,6.17,6.17,0,0,1-.008,6.539,3.17,3.17,0,0,1-2.613,1.168,3.706,3.706,0,0,1-1.527-.309,2.872,2.872,0,0,1-1.16-.949H74.9l-.273,1.1H73.7V114.844h1.3V117.8q0,.992-.062,1.781h.063A3.079,3.079,0,0,1,77.68,118.3Zm-.187,1.086a2.264,2.264,0,0,0-1.914.762,5.877,5.877,0,0,0,.016,5.148,2.288,2.288,0,0,0,1.93.777A2,2,0,0,0,79.3,125.2a4.477,4.477,0,0,0,.586-2.5A4.3,4.3,0,0,0,79.3,120.2,2.076,2.076,0,0,0,77.492,119.383ZM84.8,127H83.5V114.844h1.3Zm6.367.156a3.934,3.934,0,0,1-3-1.156,4.476,4.476,0,0,1-1.1-3.211,4.964,4.964,0,0,1,1.02-3.289,3.387,3.387,0,0,1,2.738-1.219,3.229,3.229,0,0,1,2.547,1.059,4.057,4.057,0,0,1,.938,2.793v.82h-5.9a3.394,3.394,0,0,0,.762,2.289,2.634,2.634,0,0,0,2.035.781,6.9,6.9,0,0,0,2.734-.578V126.6a6.863,6.863,0,0,1-1.3.426A7.31,7.31,0,0,1,91.164,127.156Zm-.352-7.789a2.118,2.118,0,0,0-1.645.672,3.1,3.1,0,0,0-.723,1.859h4.477a2.851,2.851,0,0,0-.547-1.879A1.925,1.925,0,0,0,90.813,119.367Zm11.234,5.3a2.145,2.145,0,0,1-.891,1.844,4.186,4.186,0,0,1-2.5.648A5.436,5.436,0,0,1,96,126.617v-1.2a6.423,6.423,0,0,0,1.324.492,5.53,5.53,0,0,0,1.363.18,3.092,3.092,0,0,0,1.563-.324,1.116,1.116,0,0,0,.113-1.844,6.82,6.82,0,0,0-1.691-.84,9.172,9.172,0,0,1-1.7-.777,2.321,2.321,0,0,1-.75-.754,1.966,1.966,0,0,1-.246-1.008,1.921,1.921,0,0,1,.852-1.652,3.968,3.968,0,0,1,2.336-.605,6.835,6.835,0,0,1,2.7.563l-.461,1.055a6.2,6.2,0,0,0-2.336-.531,2.687,2.687,0,0,0-1.391.289.894.894,0,0,0-.469.8.971.971,0,0,0,.176.586,1.735,1.735,0,0,0,.566.461,12.656,12.656,0,0,0,1.5.633,5.6,5.6,0,0,1,2.059,1.117A1.97,1.97,0,0,1,102.047,124.664Zm1.922,1.508a1.164,1.164,0,0,1,.238-.793.864.864,0,0,1,.684-.27.924.924,0,0,1,.707.27,1.116,1.116,0,0,1,.254.793,1.1,1.1,0,0,1-.258.781,1.025,1.025,0,0,1-1.363.027A1.07,1.07,0,0,1,103.969,126.172ZM2.9,171H1.57V159.578H7.938v1.18H2.9v4.18H7.633v1.18H2.9Zm10.352.156a3.934,3.934,0,0,1-3-1.156,4.476,4.476,0,0,1-1.1-3.211,4.964,4.964,0,0,1,1.02-3.289,3.387,3.387,0,0,1,2.738-1.219,3.229,3.229,0,0,1,2.547,1.059,4.057,4.057,0,0,1,.938,2.793v.82H10.5a3.394,3.394,0,0,0,.762,2.289,2.635,2.635,0,0,0,2.035.781,6.9,6.9,0,0,0,2.734-.578V170.6a6.863,6.863,0,0,1-1.3.426A7.31,7.31,0,0,1,13.25,171.156Zm-.352-7.789a2.118,2.118,0,0,0-1.645.672,3.1,3.1,0,0,0-.723,1.859h4.477a2.851,2.851,0,0,0-.547-1.879A1.925,1.925,0,0,0,12.9,163.367Zm9.133,7.789a3.654,3.654,0,0,1-2.879-1.145,4.707,4.707,0,0,1-1.02-3.238,4.853,4.853,0,0,1,1.035-3.32,3.727,3.727,0,0,1,2.949-1.172,5.852,5.852,0,0,1,1.234.133,4.066,4.066,0,0,1,.969.313l-.4,1.1a6.1,6.1,0,0,0-.937-.285,4.186,4.186,0,0,0-.9-.113q-2.609,0-2.609,3.328a3.963,3.963,0,0,0,.637,2.422,2.215,2.215,0,0,0,1.887.844,5.769,5.769,0,0,0,2.2-.461v1.148A4.679,4.679,0,0,1,22.031,171.156ZM32.086,171v-5.539a2.235,2.235,0,0,0-.477-1.562,1.941,1.941,0,0,0-1.492-.516,2.445,2.445,0,0,0-1.973.734,3.72,3.72,0,0,0-.621,2.406V171h-1.3V158.844h1.3v3.68a8.018,8.018,0,0,1-.062,1.1h.078a2.645,2.645,0,0,1,1.09-.973,3.543,3.543,0,0,1,1.613-.355,3.3,3.3,0,0,1,2.355.746,3.142,3.142,0,0,1,.785,2.371V171Zm9.227,0-.258-1.219h-.062a3.6,3.6,0,0,1-1.277,1.09,3.893,3.893,0,0,1-1.59.285,2.86,2.86,0,0,1-2-.656,2.394,2.394,0,0,1-.723-1.867q0-2.594,4.148-2.719l1.453-.047v-.531a2.171,2.171,0,0,0-.434-1.488,1.783,1.783,0,0,0-1.387-.48,5.65,5.65,0,0,0-2.422.656l-.4-.992a6.094,6.094,0,0,1,1.387-.539,6.006,6.006,0,0,1,1.512-.2,3.262,3.262,0,0,1,2.27.68,2.837,2.837,0,0,1,.738,2.18V171Zm-2.93-.914a2.632,2.632,0,0,0,1.9-.664,2.457,2.457,0,0,0,.691-1.859v-.773l-1.3.055a4.717,4.717,0,0,0-2.23.48,1.449,1.449,0,0,0-.684,1.324,1.336,1.336,0,0,0,.426,1.07A1.767,1.767,0,0,0,38.383,170.086Zm16.547-.234h-.07a3.047,3.047,0,0,1-2.687,1.3,3.179,3.179,0,0,1-2.613-1.148,5.055,5.055,0,0,1-.934-3.266,5.141,5.141,0,0,1,.938-3.289,3.155,3.155,0,0,1,2.609-1.172,3.114,3.114,0,0,1,2.672,1.266h.1l-.055-.617-.031-.6v-3.484h1.3V171H55.1Zm-2.594.219a2.361,2.361,0,0,0,1.926-.723,3.652,3.652,0,0,0,.6-2.332v-.273a4.3,4.3,0,0,0-.605-2.6,2.3,2.3,0,0,0-1.934-.777,1.985,1.985,0,0,0-1.746.887,4.409,4.409,0,0,0-.605,2.5,4.227,4.227,0,0,0,.6,2.477A2.037,2.037,0,0,0,52.336,170.07Zm10.188,1.086a3.934,3.934,0,0,1-3-1.156,4.476,4.476,0,0,1-1.1-3.211,4.964,4.964,0,0,1,1.02-3.289,3.387,3.387,0,0,1,2.738-1.219,3.229,3.229,0,0,1,2.547,1.059,4.057,4.057,0,0,1,.938,2.793v.82h-5.9a3.394,3.394,0,0,0,.762,2.289,2.635,2.635,0,0,0,2.035.781,6.9,6.9,0,0,0,2.734-.578V170.6a6.863,6.863,0,0,1-1.3.426A7.31,7.31,0,0,1,62.523,171.156Zm-.352-7.789a2.118,2.118,0,0,0-1.645.672A3.1,3.1,0,0,0,59.8,165.9h4.477a2.851,2.851,0,0,0-.547-1.879A1.925,1.925,0,0,0,62.172,163.367Zm13.484,7.789a3.934,3.934,0,0,1-3-1.156,4.476,4.476,0,0,1-1.1-3.211,4.964,4.964,0,0,1,1.02-3.289,3.387,3.387,0,0,1,2.738-1.219,3.229,3.229,0,0,1,2.547,1.059,4.057,4.057,0,0,1,.938,2.793v.82h-5.9a3.394,3.394,0,0,0,.762,2.289,2.635,2.635,0,0,0,2.035.781,6.9,6.9,0,0,0,2.734-.578V170.6a6.863,6.863,0,0,1-1.3.426A7.31,7.31,0,0,1,75.656,171.156Zm-.352-7.789a2.118,2.118,0,0,0-1.645.672,3.1,3.1,0,0,0-.723,1.859h4.477a2.851,2.851,0,0,0-.547-1.879A1.925,1.925,0,0,0,75.3,163.367ZM82.313,171h-1.3V158.844h1.3Zm8.016,0-.258-1.219h-.062a3.6,3.6,0,0,1-1.277,1.09,3.893,3.893,0,0,1-1.59.285,2.86,2.86,0,0,1-2-.656,2.394,2.394,0,0,1-.723-1.867q0-2.594,4.148-2.719l1.453-.047v-.531a2.171,2.171,0,0,0-.434-1.488,1.783,1.783,0,0,0-1.387-.48,5.65,5.65,0,0,0-2.422.656l-.4-.992a6.094,6.094,0,0,1,1.387-.539,6.006,6.006,0,0,1,1.512-.2,3.262,3.262,0,0,1,2.27.68,2.837,2.837,0,0,1,.738,2.18V171Zm-2.93-.914a2.632,2.632,0,0,0,1.9-.664,2.457,2.457,0,0,0,.691-1.859v-.773l-1.3.055a4.717,4.717,0,0,0-2.23.48,1.449,1.449,0,0,0-.684,1.324,1.336,1.336,0,0,0,.426,1.07A1.767,1.767,0,0,0,87.4,170.086ZM97.945,162.3a3.183,3.183,0,0,1,2.621,1.152,6.17,6.17,0,0,1-.008,6.539,3.17,3.17,0,0,1-2.613,1.168,3.705,3.705,0,0,1-1.527-.309,2.872,2.872,0,0,1-1.16-.949h-.094l-.273,1.1h-.93V158.844h1.3V161.8q0,.992-.062,1.781h.063A3.079,3.079,0,0,1,97.945,162.3Zm-.187,1.086a2.264,2.264,0,0,0-1.914.762,5.877,5.877,0,0,0,.016,5.148,2.288,2.288,0,0,0,1.93.777,2,2,0,0,0,1.781-.871,4.477,4.477,0,0,0,.586-2.5,4.3,4.3,0,0,0-.586-2.492A2.076,2.076,0,0,0,97.758,163.383Zm13.4,3.328a4.724,4.724,0,0,1-1.055,3.27,3.714,3.714,0,0,1-2.914,1.176,3.86,3.86,0,0,1-2.039-.539,3.558,3.558,0,0,1-1.375-1.547,5.391,5.391,0,0,1-.484-2.359,4.716,4.716,0,0,1,1.047-3.262,3.7,3.7,0,0,1,2.906-1.168,3.622,3.622,0,0,1,2.855,1.2A4.7,4.7,0,0,1,111.156,166.711Zm-6.523,0a4.064,4.064,0,0,0,.656,2.5,2.6,2.6,0,0,0,3.863,0,4.043,4.043,0,0,0,.66-2.5,3.978,3.978,0,0,0-.66-2.48,2.32,2.32,0,0,0-1.949-.848,2.283,2.283,0,0,0-1.922.836A4.023,4.023,0,0,0,104.633,166.711Zm12.7-4.43a5.075,5.075,0,0,1,1.023.094l-.18,1.2a4.418,4.418,0,0,0-.937-.117,2.282,2.282,0,0,0-1.777.844,3.077,3.077,0,0,0-.738,2.1V171h-1.3v-8.562h1.07l.148,1.586h.063a3.764,3.764,0,0,1,1.148-1.289A2.585,2.585,0,0,1,117.336,162.281Zm7.57,8.719-.258-1.219h-.062a3.6,3.6,0,0,1-1.277,1.09,3.893,3.893,0,0,1-1.59.285,2.86,2.86,0,0,1-2-.656,2.394,2.394,0,0,1-.723-1.867q0-2.594,4.148-2.719l1.453-.047v-.531a2.171,2.171,0,0,0-.434-1.488,1.783,1.783,0,0,0-1.387-.48,5.65,5.65,0,0,0-2.422.656l-.4-.992a6.094,6.094,0,0,1,1.387-.539,6.006,6.006,0,0,1,1.512-.2,3.262,3.262,0,0,1,2.27.68,2.837,2.837,0,0,1,.738,2.18V171Zm-2.93-.914a2.632,2.632,0,0,0,1.9-.664,2.457,2.457,0,0,0,.691-1.859v-.773l-1.3.055a4.717,4.717,0,0,0-2.23.48,1.449,1.449,0,0,0-.684,1.324,1.336,1.336,0,0,0,.426,1.07A1.767,1.767,0,0,0,121.977,170.086Zm9.984,1.07a3.654,3.654,0,0,1-2.879-1.145,4.707,4.707,0,0,1-1.02-3.238,4.853,4.853,0,0,1,1.035-3.32,3.727,3.727,0,0,1,2.949-1.172,5.852,5.852,0,0,1,1.234.133,4.066,4.066,0,0,1,.969.313l-.4,1.1a6.1,6.1,0,0,0-.937-.285,4.186,4.186,0,0,0-.9-.113q-2.609,0-2.609,3.328a3.963,3.963,0,0,0,.637,2.422,2.215,2.215,0,0,0,1.887.844,5.769,5.769,0,0,0,2.2-.461v1.148A4.679,4.679,0,0,1,131.961,171.156Zm5.492-.156h-1.3v-8.562h1.3Zm-1.406-10.883a.861.861,0,0,1,.219-.652.81.81,0,0,1,1.086,0,.846.846,0,0,1,.227.648.859.859,0,0,1-.227.652.794.794,0,0,1-1.086,0A.877.877,0,0,1,136.047,160.117Zm11.547,6.594a4.724,4.724,0,0,1-1.055,3.27,3.714,3.714,0,0,1-2.914,1.176,3.86,3.86,0,0,1-2.039-.539,3.558,3.558,0,0,1-1.375-1.547,5.391,5.391,0,0,1-.484-2.359,4.716,4.716,0,0,1,1.047-3.262,3.7,3.7,0,0,1,2.906-1.168,3.622,3.622,0,0,1,2.855,1.2A4.7,4.7,0,0,1,147.594,166.711Zm-6.523,0a4.064,4.064,0,0,0,.656,2.5,2.6,2.6,0,0,0,3.863,0,4.043,4.043,0,0,0,.66-2.5,3.978,3.978,0,0,0-.66-2.48,2.32,2.32,0,0,0-1.949-.848,2.283,2.283,0,0,0-1.922.836A4.023,4.023,0,0,0,141.07,166.711Zm1.5-5.6q.375-.484.809-1.172a13.411,13.411,0,0,0,.684-1.2h1.578v.164a14.473,14.473,0,0,1-2.2,2.4h-.867ZM155.727,171v-5.539a2.235,2.235,0,0,0-.477-1.562,1.941,1.941,0,0,0-1.492-.516,2.461,2.461,0,0,0-1.969.727,3.668,3.668,0,0,0-.625,2.4V171h-1.3v-8.562h1.055l.211,1.172h.063a2.648,2.648,0,0,1,1.117-.98,3.63,3.63,0,0,1,1.6-.348,3.252,3.252,0,0,1,2.328.746,3.175,3.175,0,0,1,.781,2.387V171Zm3.773-.828a1.164,1.164,0,0,1,.238-.793.864.864,0,0,1,.684-.27.924.924,0,0,1,.707.27,1.116,1.116,0,0,1,.254.793,1.1,1.1,0,0,1-.258.781,1.025,1.025,0,0,1-1.363.027A1.07,1.07,0,0,1,159.5,170.172Z" transform="translate(545.242 6564.109)" fill="#444242"/>
    <path id="Trazado_132" data-name="Trazado 132" d="M536.168,6514.808l-4.951-4.951a1.629,1.629,0,0,0-2.3,0l-.615.615a1.628,1.628,0,0,0,0,2.3l2.413,2.413a8.4,8.4,0,0,1,.03,1.588l-2.443,2.443a1.627,1.627,0,0,0,0,2.3l.615.616a1.629,1.629,0,0,0,2.3,0l4.951-4.951a1.723,1.723,0,0,0,0-2.378Z" fill="#e6b54a"/>
    <path id="Trazado_133" data-name="Trazado 133" d="M536.168,6684.015l-4.951-4.951a1.629,1.629,0,0,0-2.3,0l-.615.615a1.628,1.628,0,0,0,0,2.3l2.413,2.413a8.4,8.4,0,0,1,.03,1.588l-2.443,2.443a1.628,1.628,0,0,0,0,2.3l.615.616a1.629,1.629,0,0,0,2.3,0l4.951-4.951a1.723,1.723,0,0,0,0-2.378Z" fill="#e6b54a"/>
    <path id="Trazado_134" data-name="Trazado 134" d="M536.168,6639.426l-4.951-4.951a1.628,1.628,0,0,0-2.3,0l-.615.616a1.628,1.628,0,0,0,0,2.3l2.413,2.413a8.414,8.414,0,0,1,.03,1.589l-2.443,2.442a1.629,1.629,0,0,0,0,2.3l.615.615a1.628,1.628,0,0,0,2.3,0l4.951-4.951a1.724,1.724,0,0,0,0-2.378Z" fill="#e6b54a"/>
    <path id="Trazado_135" data-name="Trazado 135" d="M536.168,6572.826l-4.951-4.951a1.628,1.628,0,0,0-2.3,0l-.615.616a1.627,1.627,0,0,0,0,2.3l2.413,2.413a8.414,8.414,0,0,1,.03,1.589l-2.443,2.443a1.628,1.628,0,0,0,0,2.3l.615.616a1.63,1.63,0,0,0,2.3,0l4.951-4.951a1.724,1.724,0,0,0,0-2.379Z" fill="#e6b54a"/>
    <path id="Trazado_136" data-name="Trazado 136" d="M536.168,6728.6l-4.951-4.951a1.629,1.629,0,0,0-2.3,0l-.615.616a1.627,1.627,0,0,0,0,2.3l2.413,2.413a8.414,8.414,0,0,1,.03,1.589l-2.443,2.442a1.628,1.628,0,0,0,0,2.3l.615.615a1.629,1.629,0,0,0,2.3,0l4.951-4.951a1.723,1.723,0,0,0,0-2.378Z" fill="#e6b54a"/>
  </g>
</svg>
